G04 #@! TF.GenerationSoftware,KiCad,Pcbnew,10.0.6-10.0.6~ubuntu24.04.1*
G04 #@! TF.CreationDate,2026-09-15T11:46:03-04:00*
G04 #@! TF.ProjectId,TTDB_2_Raspi,54544442-5f32-45f5-9261-7370692e6b69,1.0*
G04 #@! TF.SameCoordinates,Original*
G04 #@! TF.FileFunction,Copper,L2,Bot*
G04 #@! TF.FilePolarity,Positive*
%FSLAX46Y46*%
G04 Gerber Fmt 4.6, Leading zero omitted, Abs format (unit mm)*
G04 Created by KiCad (PCBNEW 10.0.6-10.0.6~ubuntu24.04.1) date 2026-09-15 11:46:03*
%MOMM*%
%LPD*%
G01*
G04 APERTURE LIST*
G04 #@! TA.AperFunction,ComponentPad*
%ADD10C,0.820000*%
G04 #@! TD*
G04 #@! TA.AperFunction,ComponentPad*
%ADD11R,1.700000X1.700000*%
G04 #@! TD*
G04 #@! TA.AperFunction,ComponentPad*
%ADD12O,1.700000X1.700000*%
G04 #@! TD*
G04 #@! TA.AperFunction,ComponentPad*
%ADD13C,1.700000*%
G04 #@! TD*
G04 #@! TA.AperFunction,ViaPad*
%ADD14C,0.800000*%
G04 #@! TD*
G04 #@! TA.AperFunction,ViaPad*
%ADD15C,0.600000*%
G04 #@! TD*
G04 #@! TA.AperFunction,Conductor*
%ADD16C,0.250000*%
G04 #@! TD*
G04 #@! TA.AperFunction,Conductor*
%ADD17C,0.400000*%
G04 #@! TD*
G04 APERTURE END LIST*
D10*
G04 #@! TO.P,STITCH23,1*
G04 #@! TO.N,GND*
X126180000Y-42900000D03*
G04 #@! TD*
G04 #@! TO.P,STITCH11,1*
G04 #@! TO.N,GND*
X134700000Y-71600000D03*
G04 #@! TD*
G04 #@! TO.P,STITCH1,1*
G04 #@! TO.N,GND*
X78400000Y-72000000D03*
G04 #@! TD*
G04 #@! TO.P,STITCH16,1*
G04 #@! TO.N,GND*
X90620000Y-42900000D03*
G04 #@! TD*
G04 #@! TO.P,STITCH4,1*
G04 #@! TO.N,GND*
X99600000Y-71400000D03*
G04 #@! TD*
G04 #@! TO.P,STITCH5,1*
G04 #@! TO.N,GND*
X104220000Y-71400000D03*
G04 #@! TD*
G04 #@! TO.P,STITCH31,1*
G04 #@! TO.N,GND*
X84800000Y-49900000D03*
G04 #@! TD*
G04 #@! TO.P,STITCH15,1*
G04 #@! TO.N,GND*
X85540000Y-42900000D03*
G04 #@! TD*
D11*
G04 #@! TO.P,J7,1,IO1_1*
G04 #@! TO.N,/P3_1*
X138410000Y-57540000D03*
D12*
G04 #@! TO.P,J7,2,IO2_2*
G04 #@! TO.N,/P3_2*
X135870000Y-57540000D03*
G04 #@! TO.P,J7,3,IO3_3*
G04 #@! TO.N,/P3_3*
X133330000Y-57540000D03*
G04 #@! TO.P,J7,4,IO4_4*
G04 #@! TO.N,/P3_4*
X130790000Y-57540000D03*
G04 #@! TO.P,J7,5,GND_5*
G04 #@! TO.N,GND*
X128250000Y-57540000D03*
D13*
G04 #@! TO.P,J7,6,VCC_6*
G04 #@! TO.N,+3V3*
X125710000Y-57540000D03*
D12*
G04 #@! TO.P,J7,7,IO5_7*
G04 #@! TO.N,/P3_5*
X138410000Y-60080000D03*
G04 #@! TO.P,J7,8,IO6_8*
G04 #@! TO.N,/P3_6*
X135870000Y-60080000D03*
G04 #@! TO.P,J7,9,IO7_9*
G04 #@! TO.N,/P3_7*
X133330000Y-60080000D03*
G04 #@! TO.P,J7,10,IO8_10*
G04 #@! TO.N,/P3_8*
X130790000Y-60080000D03*
G04 #@! TO.P,J7,11,GND_11*
G04 #@! TO.N,GND*
X128250000Y-60080000D03*
G04 #@! TO.P,J7,12,VCC_12*
G04 #@! TO.N,+3V3*
X125710000Y-60080000D03*
G04 #@! TD*
D11*
G04 #@! TO.P,J10,1,Pin_1_1*
G04 #@! TO.N,GND*
X70875000Y-59640000D03*
D12*
G04 #@! TO.P,J10,2,Pin_2_2*
G04 #@! TO.N,+3V3*
X70875000Y-57100000D03*
G04 #@! TO.P,J10,3,Pin_3_3*
G04 #@! TO.N,/USR_IO*
X70875000Y-54560000D03*
G04 #@! TO.P,J10,4,Pin_4_4*
G04 #@! TO.N,/USR_SW*
X70875000Y-52020000D03*
G04 #@! TD*
D11*
G04 #@! TO.P,J3,1,IO1_1*
G04 #@! TO.N,/P2_1*
X115600000Y-67700000D03*
D12*
G04 #@! TO.P,J3,2,IO2_2*
G04 #@! TO.N,/P2_2*
X113060000Y-67700000D03*
G04 #@! TO.P,J3,3,IO3_3*
G04 #@! TO.N,/P2_3*
X110520000Y-67700000D03*
G04 #@! TO.P,J3,4,IO4_4*
G04 #@! TO.N,/P2_4*
X107980000Y-67700000D03*
G04 #@! TO.P,J3,5,GND_5*
G04 #@! TO.N,GND*
X105440000Y-67700000D03*
D13*
G04 #@! TO.P,J3,6,VCC_6*
G04 #@! TO.N,+3V3*
X102900000Y-67700000D03*
D12*
G04 #@! TO.P,J3,7,IO5_7*
G04 #@! TO.N,/P2_5*
X115600000Y-70240000D03*
G04 #@! TO.P,J3,8,IO6_8*
G04 #@! TO.N,/P2_6*
X113060000Y-70240000D03*
G04 #@! TO.P,J3,9,IO7_9*
G04 #@! TO.N,/P2_7*
X110520000Y-70240000D03*
G04 #@! TO.P,J3,10,IO8_10*
G04 #@! TO.N,/P2_8*
X107980000Y-70240000D03*
G04 #@! TO.P,J3,11,GND_11*
G04 #@! TO.N,GND*
X105440000Y-70240000D03*
G04 #@! TO.P,J3,12,VCC_12*
G04 #@! TO.N,+3V3*
X102900000Y-70240000D03*
G04 #@! TD*
D10*
G04 #@! TO.P,STITCH31,1*
G04 #@! TO.N,GND*
X72900000Y-55600000D03*
G04 #@! TD*
G04 #@! TO.P,STITCH31,1*
G04 #@! TO.N,GND*
X81700000Y-62000000D03*
G04 #@! TD*
G04 #@! TO.P,STITCH19,1*
G04 #@! TO.N,GND*
X105860000Y-42900000D03*
G04 #@! TD*
G04 #@! TO.P,STITCH24,1*
G04 #@! TO.N,GND*
X131260000Y-42900000D03*
G04 #@! TD*
G04 #@! TO.P,STITCH2,1*
G04 #@! TO.N,GND*
X88980000Y-71400000D03*
G04 #@! TD*
G04 #@! TO.P,STITCH30,1*
G04 #@! TO.N,GND*
X120700000Y-66240000D03*
G04 #@! TD*
D11*
G04 #@! TO.P,J1,1,3V3_1*
G04 #@! TO.N,VDD*
X135880000Y-46060000D03*
D12*
G04 #@! TO.P,J1,2,5V_2*
G04 #@! TO.N,Net-(J1-5V-Pad2)*
X135880000Y-48600000D03*
G04 #@! TO.P,J1,3,SDA_I2C1/GPIO02_3*
G04 #@! TO.N,/P3_1*
X133340000Y-46060000D03*
G04 #@! TO.P,J1,4,5V_4*
G04 #@! TO.N,Net-(J1-5V-Pad2)*
X133340000Y-48600000D03*
G04 #@! TO.P,J1,5,SCL_I2C1/GPIO03_5*
G04 #@! TO.N,/P3_5*
X130800000Y-46060000D03*
G04 #@! TO.P,J1,6,GND_6*
G04 #@! TO.N,GND*
X130800000Y-48600000D03*
G04 #@! TO.P,J1,7,GPCLK0/GPIO04_7*
G04 #@! TO.N,/P3_2*
X128260000Y-46060000D03*
G04 #@! TO.P,J1,8,GPIO14/UART_TXD_8*
G04 #@! TO.N,/P3_6*
X128260000Y-48600000D03*
G04 #@! TO.P,J1,9,GND_9*
G04 #@! TO.N,GND*
X125720000Y-46060000D03*
G04 #@! TO.P,J1,10,GPIO15/UART_RXD_10*
G04 #@! TO.N,/P3_3*
X125720000Y-48600000D03*
G04 #@! TO.P,J1,11,GPIO17/SPI1_~{CE1}_11*
G04 #@! TO.N,/P3_7*
X123180000Y-46060000D03*
G04 #@! TO.P,J1,12,GPIO18/SPI1_~{CE0}/PCM_CLK/PWM0_12*
G04 #@! TO.N,/P3_4*
X123180000Y-48600000D03*
G04 #@! TO.P,J1,13,GPIO27/SDIO_DAT3_13*
G04 #@! TO.N,/P3_8*
X120640000Y-46060000D03*
G04 #@! TO.P,J1,14,GND_14*
G04 #@! TO.N,GND*
X120640000Y-48600000D03*
G04 #@! TO.P,J1,15,GPIO22/SDIO_CLK_15*
G04 #@! TO.N,/P2_1*
X118100000Y-46060000D03*
G04 #@! TO.P,J1,16,GPIO23/SDIO_CMD_16*
G04 #@! TO.N,/P2_5*
X118100000Y-48600000D03*
G04 #@! TO.P,J1,17,3V3_17*
G04 #@! TO.N,VDD*
X115560000Y-46060000D03*
G04 #@! TO.P,J1,18,GPIO24/SDIO_DAT0_18*
G04 #@! TO.N,/P2_6*
X115560000Y-48600000D03*
G04 #@! TO.P,J1,19,MOSI_SPI0/GPIO10_19*
G04 #@! TO.N,/P2_2*
X113020000Y-46060000D03*
G04 #@! TO.P,J1,20,GND_20*
G04 #@! TO.N,GND*
X113020000Y-48600000D03*
G04 #@! TO.P,J1,21,MISO_SPI0/GPIO09_21*
G04 #@! TO.N,/P2_7*
X110480000Y-46060000D03*
G04 #@! TO.P,J1,22,GPIO25/SDIO_DAT1_22*
G04 #@! TO.N,/P2_3*
X110480000Y-48600000D03*
G04 #@! TO.P,J1,23,SCLK_SPI0/GPIO11_23*
G04 #@! TO.N,/P2_8*
X107940000Y-46060000D03*
G04 #@! TO.P,J1,24,~{CE0}_SPI0/GPIO08_24*
G04 #@! TO.N,/P2_4*
X107940000Y-48600000D03*
G04 #@! TO.P,J1,25,GND_25*
G04 #@! TO.N,GND*
X105400000Y-46060000D03*
G04 #@! TO.P,J1,26,~{CE1}_SPI0/GPIO07_26*
G04 #@! TO.N,/~{RST}*
X105400000Y-48600000D03*
G04 #@! TO.P,J1,27,ID_SD_I2C0/GPIO00_27*
G04 #@! TO.N,/USR_SW*
X102860000Y-46060000D03*
G04 #@! TO.P,J1,28,ID_SC_I2C0/GPIO01_28*
G04 #@! TO.N,/CLK*
X102860000Y-48600000D03*
G04 #@! TO.P,J1,29,GPCLK1/GPIO05_29*
G04 #@! TO.N,/P1_5*
X100320000Y-46060000D03*
G04 #@! TO.P,J1,30,GND_30*
G04 #@! TO.N,GND*
X100320000Y-48600000D03*
G04 #@! TO.P,J1,31,GPCLK2/GPIO06_31*
G04 #@! TO.N,/P1_6*
X97780000Y-46060000D03*
G04 #@! TO.P,J1,32,GPIO12/PWM0_32*
G04 #@! TO.N,/P1_1*
X97780000Y-48600000D03*
G04 #@! TO.P,J1,33,GPIO13/PWM1_33*
G04 #@! TO.N,/P1_2*
X95240000Y-46060000D03*
G04 #@! TO.P,J1,34,GND_34*
G04 #@! TO.N,GND*
X95240000Y-48600000D03*
G04 #@! TO.P,J1,35,GPIO19/SPI1_MISO/PCM_FS_35*
G04 #@! TO.N,/P1_3*
X92700000Y-46060000D03*
G04 #@! TO.P,J1,36,GPIO16/SPI1_~{CE2}_36*
G04 #@! TO.N,/P1_7*
X92700000Y-48600000D03*
G04 #@! TO.P,J1,37,GPIO26/SDIO_DAT2_37*
G04 #@! TO.N,/P1_4*
X90160000Y-46060000D03*
G04 #@! TO.P,J1,38,GPIO20/SPI1_MOSI/PCM_DIN/PWM1_38*
G04 #@! TO.N,/P1_8*
X90160000Y-48600000D03*
G04 #@! TO.P,J1,39,GND_39*
G04 #@! TO.N,GND*
X87620000Y-46060000D03*
G04 #@! TO.P,J1,40,GPIO21/SPI1_SCLK/PCM_DOUT_40*
G04 #@! TO.N,/USR_IO*
X87620000Y-48600000D03*
G04 #@! TD*
D10*
G04 #@! TO.P,STITCH10,1*
G04 #@! TO.N,GND*
X129620000Y-71600000D03*
G04 #@! TD*
G04 #@! TO.P,STITCH31,1*
G04 #@! TO.N,GND*
X79500000Y-54300000D03*
G04 #@! TD*
D11*
G04 #@! TO.P,J5,1,IO1_1*
G04 #@! TO.N,/P1_1*
X92690000Y-57540000D03*
D12*
G04 #@! TO.P,J5,2,IO2_2*
G04 #@! TO.N,/P1_2*
X90150000Y-57540000D03*
G04 #@! TO.P,J5,3,IO3_3*
G04 #@! TO.N,/P1_3*
X87610000Y-57540000D03*
G04 #@! TO.P,J5,4,IO4_4*
G04 #@! TO.N,/P1_4*
X85070000Y-57540000D03*
G04 #@! TO.P,J5,5,GND_5*
G04 #@! TO.N,GND*
X82530000Y-57540000D03*
D13*
G04 #@! TO.P,J5,6,VCC_6*
G04 #@! TO.N,+3V3*
X79990000Y-57540000D03*
D12*
G04 #@! TO.P,J5,7,IO5_7*
G04 #@! TO.N,/P1_5*
X92690000Y-60080000D03*
G04 #@! TO.P,J5,8,IO6_8*
G04 #@! TO.N,/P1_6*
X90150000Y-60080000D03*
G04 #@! TO.P,J5,9,IO7_9*
G04 #@! TO.N,/P1_7*
X87610000Y-60080000D03*
G04 #@! TO.P,J5,10,IO8_10*
G04 #@! TO.N,/P1_8*
X85070000Y-60080000D03*
G04 #@! TO.P,J5,11,GND_11*
G04 #@! TO.N,GND*
X82530000Y-60080000D03*
G04 #@! TO.P,J5,12,VCC_12*
G04 #@! TO.N,+3V3*
X79990000Y-60080000D03*
G04 #@! TD*
D10*
G04 #@! TO.P,STITCH27,1*
G04 #@! TO.N,GND*
X139800000Y-55360000D03*
G04 #@! TD*
G04 #@! TO.P,STITCH31,1*
G04 #@! TO.N,GND*
X100000000Y-50800000D03*
G04 #@! TD*
G04 #@! TO.P,STITCH6,1*
G04 #@! TO.N,GND*
X109300000Y-71400000D03*
G04 #@! TD*
G04 #@! TO.P,STITCH12,1*
G04 #@! TO.N,GND*
X139780000Y-71600000D03*
G04 #@! TD*
G04 #@! TO.P,STITCH31,1*
G04 #@! TO.N,GND*
X99900000Y-54000000D03*
G04 #@! TD*
G04 #@! TO.P,STITCH31,1*
G04 #@! TO.N,GND*
X72900000Y-59700000D03*
G04 #@! TD*
D11*
G04 #@! TO.P,J6,1,IO1_1*
G04 #@! TO.N,/P2_1*
X115550000Y-57540000D03*
D12*
G04 #@! TO.P,J6,2,IO2_2*
G04 #@! TO.N,/P2_2*
X113010000Y-57540000D03*
G04 #@! TO.P,J6,3,IO3_3*
G04 #@! TO.N,/P2_3*
X110470000Y-57540000D03*
G04 #@! TO.P,J6,4,IO4_4*
G04 #@! TO.N,/P2_4*
X107930000Y-57540000D03*
G04 #@! TO.P,J6,5,GND_5*
G04 #@! TO.N,GND*
X105390000Y-57540000D03*
D13*
G04 #@! TO.P,J6,6,VCC_6*
G04 #@! TO.N,+3V3*
X102850000Y-57540000D03*
D12*
G04 #@! TO.P,J6,7,IO5_7*
G04 #@! TO.N,/P2_5*
X115550000Y-60080000D03*
G04 #@! TO.P,J6,8,IO6_8*
G04 #@! TO.N,/P2_6*
X113010000Y-60080000D03*
G04 #@! TO.P,J6,9,IO7_9*
G04 #@! TO.N,/P2_7*
X110470000Y-60080000D03*
G04 #@! TO.P,J6,10,IO8_10*
G04 #@! TO.N,/P2_8*
X107930000Y-60080000D03*
G04 #@! TO.P,J6,11,GND_11*
G04 #@! TO.N,GND*
X105390000Y-60080000D03*
G04 #@! TO.P,J6,12,VCC_12*
G04 #@! TO.N,+3V3*
X102850000Y-60080000D03*
G04 #@! TD*
D10*
G04 #@! TO.P,STITCH31,1*
G04 #@! TO.N,GND*
X96500000Y-62400000D03*
G04 #@! TD*
G04 #@! TO.P,STITCH17,1*
G04 #@! TO.N,GND*
X95700000Y-42900000D03*
G04 #@! TD*
D11*
G04 #@! TO.P,J11,1,Pin_1_1*
G04 #@! TO.N,+3V3*
X81400000Y-53140000D03*
D12*
G04 #@! TO.P,J11,2,Pin_2_2*
G04 #@! TO.N,VDD*
X81400000Y-50600000D03*
G04 #@! TD*
D10*
G04 #@! TO.P,STITCH31,1*
G04 #@! TO.N,GND*
X97300000Y-58000000D03*
G04 #@! TD*
G04 #@! TO.P,STITCH31,1*
G04 #@! TO.N,GND*
X100300000Y-68300000D03*
G04 #@! TD*
G04 #@! TO.P,STITCH21,1*
G04 #@! TO.N,GND*
X139800000Y-45200000D03*
G04 #@! TD*
G04 #@! TO.P,STITCH31,1*
G04 #@! TO.N,GND*
X94700000Y-50900000D03*
G04 #@! TD*
G04 #@! TO.P,STITCH27,1*
G04 #@! TO.N,GND*
X120700000Y-51000000D03*
G04 #@! TD*
G04 #@! TO.P,STITCH1,1*
G04 #@! TO.N,GND*
X71500000Y-72000000D03*
G04 #@! TD*
G04 #@! TO.P,STITCH27,1*
G04 #@! TO.N,GND*
X112900000Y-51800000D03*
G04 #@! TD*
G04 #@! TO.P,STITCH7,1*
G04 #@! TO.N,GND*
X114380000Y-71400000D03*
G04 #@! TD*
G04 #@! TO.P,STITCH8,1*
G04 #@! TO.N,GND*
X119460000Y-71400000D03*
G04 #@! TD*
D11*
G04 #@! TO.P,J8,1,Pin_1_1*
G04 #@! TO.N,/~{RST}*
X97770000Y-60080000D03*
D12*
G04 #@! TO.P,J8,2,Pin_2_2*
G04 #@! TO.N,/CLK*
X95230000Y-60080000D03*
G04 #@! TD*
D10*
G04 #@! TO.P,STITCH31,1*
G04 #@! TO.N,GND*
X96500000Y-68200000D03*
G04 #@! TD*
G04 #@! TO.P,STITCH12,1*
G04 #@! TO.N,GND*
X70300000Y-42900000D03*
G04 #@! TD*
G04 #@! TO.P,STITCH25,1*
G04 #@! TO.N,GND*
X136340000Y-42900000D03*
G04 #@! TD*
G04 #@! TO.P,STITCH13,1*
G04 #@! TO.N,GND*
X75380000Y-42900000D03*
G04 #@! TD*
G04 #@! TO.P,STITCH31,1*
G04 #@! TO.N,GND*
X103700000Y-51000000D03*
G04 #@! TD*
G04 #@! TO.P,STITCH1,1*
G04 #@! TO.N,GND*
X69800000Y-69600000D03*
G04 #@! TD*
G04 #@! TO.P,STITCH31,1*
G04 #@! TO.N,GND*
X100300000Y-58000000D03*
G04 #@! TD*
G04 #@! TO.P,STITCH31,1*
G04 #@! TO.N,GND*
X84800000Y-46600000D03*
G04 #@! TD*
G04 #@! TO.P,STITCH20,1*
G04 #@! TO.N,GND*
X110940000Y-42900000D03*
G04 #@! TD*
G04 #@! TO.P,STITCH26,1*
G04 #@! TO.N,GND*
X139800000Y-50280000D03*
G04 #@! TD*
G04 #@! TO.P,STITCH31,1*
G04 #@! TO.N,GND*
X81500000Y-66200000D03*
G04 #@! TD*
G04 #@! TO.P,STITCH31,1*
G04 #@! TO.N,GND*
X100300000Y-62400000D03*
G04 #@! TD*
G04 #@! TO.P,STITCH29,1*
G04 #@! TO.N,GND*
X120700000Y-61160000D03*
G04 #@! TD*
G04 #@! TO.P,STITCH1,1*
G04 #@! TO.N,GND*
X69800000Y-47300000D03*
G04 #@! TD*
D11*
G04 #@! TO.P,J4,1,IO1_1*
G04 #@! TO.N,/P3_1*
X138460000Y-67700000D03*
D12*
G04 #@! TO.P,J4,2,IO2_2*
G04 #@! TO.N,/P3_2*
X135920000Y-67700000D03*
G04 #@! TO.P,J4,3,IO3_3*
G04 #@! TO.N,/P3_3*
X133380000Y-67700000D03*
G04 #@! TO.P,J4,4,IO4_4*
G04 #@! TO.N,/P3_4*
X130840000Y-67700000D03*
G04 #@! TO.P,J4,5,GND_5*
G04 #@! TO.N,GND*
X128300000Y-67700000D03*
D13*
G04 #@! TO.P,J4,6,VCC_6*
G04 #@! TO.N,+3V3*
X125760000Y-67700000D03*
D12*
G04 #@! TO.P,J4,7,IO5_7*
G04 #@! TO.N,/P3_5*
X138460000Y-70240000D03*
G04 #@! TO.P,J4,8,IO6_8*
G04 #@! TO.N,/P3_6*
X135920000Y-70240000D03*
G04 #@! TO.P,J4,9,IO7_9*
G04 #@! TO.N,/P3_7*
X133380000Y-70240000D03*
G04 #@! TO.P,J4,10,IO8_10*
G04 #@! TO.N,/P3_8*
X130840000Y-70240000D03*
G04 #@! TO.P,J4,11,GND_11*
G04 #@! TO.N,GND*
X128300000Y-70240000D03*
G04 #@! TO.P,J4,12,VCC_12*
G04 #@! TO.N,+3V3*
X125760000Y-70240000D03*
G04 #@! TD*
D10*
G04 #@! TO.P,STITCH31,1*
G04 #@! TO.N,GND*
X82600000Y-55300000D03*
G04 #@! TD*
G04 #@! TO.P,STITCH9,1*
G04 #@! TO.N,GND*
X123800000Y-71400000D03*
G04 #@! TD*
G04 #@! TO.P,STITCH14,1*
G04 #@! TO.N,GND*
X80460000Y-42900000D03*
G04 #@! TD*
G04 #@! TO.P,STITCH28,1*
G04 #@! TO.N,GND*
X120700000Y-56080000D03*
G04 #@! TD*
G04 #@! TO.P,STITCH22,1*
G04 #@! TO.N,GND*
X121100000Y-42900000D03*
G04 #@! TD*
G04 #@! TO.P,STITCH31,1*
G04 #@! TO.N,GND*
X79500000Y-46600000D03*
G04 #@! TD*
G04 #@! TO.P,STITCH3,1*
G04 #@! TO.N,GND*
X94060000Y-71400000D03*
G04 #@! TD*
D11*
G04 #@! TO.P,J2,1,IO1_1*
G04 #@! TO.N,/P1_1*
X92740000Y-67700000D03*
D12*
G04 #@! TO.P,J2,2,IO2_2*
G04 #@! TO.N,/P1_2*
X90200000Y-67700000D03*
G04 #@! TO.P,J2,3,IO3_3*
G04 #@! TO.N,/P1_3*
X87660000Y-67700000D03*
G04 #@! TO.P,J2,4,IO4_4*
G04 #@! TO.N,/P1_4*
X85120000Y-67700000D03*
G04 #@! TO.P,J2,5,GND_5*
G04 #@! TO.N,GND*
X82580000Y-67700000D03*
D13*
G04 #@! TO.P,J2,6,VCC_6*
G04 #@! TO.N,+3V3*
X80040000Y-67700000D03*
D12*
G04 #@! TO.P,J2,7,IO5_7*
G04 #@! TO.N,/P1_5*
X92740000Y-70240000D03*
G04 #@! TO.P,J2,8,IO6_8*
G04 #@! TO.N,/P1_6*
X90200000Y-70240000D03*
G04 #@! TO.P,J2,9,IO7_9*
G04 #@! TO.N,/P1_7*
X87660000Y-70240000D03*
G04 #@! TO.P,J2,10,IO8_10*
G04 #@! TO.N,/P1_8*
X85120000Y-70240000D03*
G04 #@! TO.P,J2,11,GND_11*
G04 #@! TO.N,GND*
X82580000Y-70240000D03*
G04 #@! TO.P,J2,12,VCC_12*
G04 #@! TO.N,+3V3*
X80040000Y-70240000D03*
G04 #@! TD*
D10*
G04 #@! TO.P,STITCH31,1*
G04 #@! TO.N,GND*
X73500000Y-49800000D03*
G04 #@! TD*
G04 #@! TO.P,STITCH18,1*
G04 #@! TO.N,GND*
X100780000Y-42900000D03*
G04 #@! TD*
G04 #@! TO.P,STITCH1,1*
G04 #@! TO.N,GND*
X83900000Y-71400000D03*
G04 #@! TD*
D11*
G04 #@! TO.P,J9,1,Pin_1_1*
G04 #@! TO.N,/~{RST}*
X97820000Y-70240000D03*
D12*
G04 #@! TO.P,J9,2,Pin_2_2*
G04 #@! TO.N,/CLK*
X95280000Y-70240000D03*
G04 #@! TD*
D14*
G04 #@! TO.N,GND*
X128900000Y-63600000D03*
X105900000Y-65000000D03*
D15*
G04 #@! TO.N,/~{RST}*
X99900000Y-55500000D03*
X105500000Y-55300000D03*
D14*
G04 #@! TO.N,+3V3*
X72500000Y-70000000D03*
X101700000Y-72200000D03*
X74900000Y-70240000D03*
X124700000Y-72100000D03*
X125700000Y-72000000D03*
X102850000Y-72100000D03*
D15*
G04 #@! TO.N,/USR_IO*
X72400000Y-49100000D03*
G04 #@! TO.N,/USR_SW*
X82800000Y-51700000D03*
X82800000Y-44800000D03*
D14*
G04 #@! TO.N,VDD*
X81100000Y-45200000D03*
X81900000Y-44400000D03*
X116700000Y-43800000D03*
X115700000Y-43800000D03*
G04 #@! TD*
G04 #@! TO.N,Net-(J1-5V-Pad2)*
D16*
X133340000Y-48600000D02*
X135880000Y-48600000D01*
G04 #@! TO.N,/~{RST}*
X105400000Y-55400000D02*
X105500000Y-55300000D01*
X100000000Y-55400000D02*
X105400000Y-55400000D01*
X99900000Y-55500000D02*
X100000000Y-55400000D01*
G04 #@! TO.N,+3V3*
D17*
X102850000Y-72100000D02*
X103150000Y-72400000D01*
X74900000Y-70240000D02*
X72740000Y-70240000D01*
X124800000Y-72000000D02*
X125700000Y-72000000D01*
X124400000Y-72400000D02*
X124800000Y-72000000D01*
X102850000Y-72100000D02*
X102740000Y-72210000D01*
X70875000Y-57100000D02*
X79550000Y-57100000D01*
X79550000Y-57100000D02*
X79990000Y-57540000D01*
X80040000Y-70240000D02*
X74900000Y-70240000D01*
X82010000Y-72210000D02*
X80040000Y-70240000D01*
X103150000Y-72400000D02*
X124400000Y-72400000D01*
X72740000Y-70240000D02*
X72500000Y-70000000D01*
X102740000Y-72210000D02*
X82010000Y-72210000D01*
G04 #@! TO.N,/USR_IO*
D16*
X72900000Y-48600000D02*
X72400000Y-49100000D01*
X87620000Y-48600000D02*
X72900000Y-48600000D01*
G04 #@! TO.N,/USR_SW*
X102860000Y-46060000D02*
X101600000Y-44800000D01*
X82700000Y-51800000D02*
X82800000Y-51700000D01*
X101600000Y-44800000D02*
X82800000Y-44800000D01*
X70875000Y-52020000D02*
X71095000Y-51800000D01*
X71095000Y-51800000D02*
X82700000Y-51800000D01*
G04 #@! TO.N,VDD*
D17*
X82500000Y-43800000D02*
X81100000Y-45200000D01*
X135880000Y-46060000D02*
X133620000Y-43800000D01*
X133620000Y-43800000D02*
X115700000Y-43800000D01*
X115700000Y-43800000D02*
X82500000Y-43800000D01*
G04 #@! TD*
G04 #@! TA.AperFunction,Conductor*
G04 #@! TO.N,GND*
G36*
X82780000Y-59646988D02*
G01*
X82722993Y-59614075D01*
X82595826Y-59580000D01*
X82464174Y-59580000D01*
X82337007Y-59614075D01*
X82280000Y-59646988D01*
X82280000Y-57973012D01*
X82337007Y-58005925D01*
X82464174Y-58040000D01*
X82595826Y-58040000D01*
X82722993Y-58005925D01*
X82780000Y-57973012D01*
X82780000Y-59646988D01*
G37*
G04 #@! TD.AperFunction*
G04 #@! TA.AperFunction,Conductor*
G36*
X105640000Y-59646988D02*
G01*
X105582993Y-59614075D01*
X105455826Y-59580000D01*
X105324174Y-59580000D01*
X105197007Y-59614075D01*
X105140000Y-59646988D01*
X105140000Y-57973012D01*
X105197007Y-58005925D01*
X105324174Y-58040000D01*
X105455826Y-58040000D01*
X105582993Y-58005925D01*
X105640000Y-57973012D01*
X105640000Y-59646988D01*
G37*
G04 #@! TD.AperFunction*
G04 #@! TA.AperFunction,Conductor*
G36*
X128500000Y-59646988D02*
G01*
X128442993Y-59614075D01*
X128315826Y-59580000D01*
X128184174Y-59580000D01*
X128057007Y-59614075D01*
X128000000Y-59646988D01*
X128000000Y-57973012D01*
X128057007Y-58005925D01*
X128184174Y-58040000D01*
X128315826Y-58040000D01*
X128442993Y-58005925D01*
X128500000Y-57973012D01*
X128500000Y-59646988D01*
G37*
G04 #@! TD.AperFunction*
G04 #@! TA.AperFunction,Conductor*
G36*
X138904418Y-42300816D02*
G01*
X139104561Y-42315130D01*
X139122063Y-42317647D01*
X139313795Y-42359355D01*
X139330760Y-42364336D01*
X139514611Y-42432909D01*
X139530694Y-42440253D01*
X139647495Y-42504032D01*
X139702908Y-42534290D01*
X139717791Y-42543855D01*
X139874864Y-42661438D01*
X139888235Y-42673024D01*
X140026975Y-42811764D01*
X140038561Y-42825135D01*
X140156144Y-42982208D01*
X140165709Y-42997091D01*
X140259743Y-43169300D01*
X140267093Y-43185394D01*
X140335661Y-43369234D01*
X140340645Y-43386209D01*
X140382351Y-43577931D01*
X140384869Y-43595442D01*
X140399184Y-43795580D01*
X140399500Y-43804427D01*
X140399500Y-71095572D01*
X140399184Y-71104419D01*
X140384869Y-71304557D01*
X140382351Y-71322068D01*
X140340645Y-71513790D01*
X140335661Y-71530765D01*
X140267093Y-71714605D01*
X140259743Y-71730699D01*
X140165709Y-71902908D01*
X140156144Y-71917791D01*
X140038561Y-72074864D01*
X140026975Y-72088235D01*
X139888235Y-72226975D01*
X139874864Y-72238561D01*
X139717791Y-72356144D01*
X139702908Y-72365709D01*
X139530699Y-72459743D01*
X139514605Y-72467093D01*
X139330765Y-72535661D01*
X139313790Y-72540645D01*
X139122068Y-72582351D01*
X139104557Y-72584869D01*
X138923779Y-72597799D01*
X138904417Y-72599184D01*
X138895572Y-72599500D01*
X126611953Y-72599500D01*
X126544914Y-72579815D01*
X126499159Y-72527011D01*
X126489215Y-72457853D01*
X126497392Y-72428048D01*
X126535346Y-72336415D01*
X126565894Y-72262666D01*
X126572994Y-72226975D01*
X126600499Y-72088695D01*
X126600500Y-72088693D01*
X126600500Y-71911306D01*
X126600499Y-71911304D01*
X126565896Y-71737341D01*
X126565893Y-71737332D01*
X126559921Y-71722915D01*
X126539434Y-71673453D01*
X126498015Y-71573457D01*
X126498013Y-71573454D01*
X126498013Y-71573453D01*
X126474133Y-71537715D01*
X126453255Y-71471040D01*
X126471739Y-71403660D01*
X126504348Y-71368508D01*
X126639792Y-71270104D01*
X126790104Y-71119792D01*
X126790106Y-71119788D01*
X126790109Y-71119786D01*
X126868337Y-71012113D01*
X126915051Y-70947816D01*
X126919793Y-70938508D01*
X126967763Y-70887711D01*
X127035583Y-70870911D01*
X127101719Y-70893445D01*
X127140763Y-70938500D01*
X127145377Y-70947555D01*
X127270272Y-71119459D01*
X127270276Y-71119464D01*
X127420535Y-71269723D01*
X127420540Y-71269727D01*
X127592442Y-71394620D01*
X127781782Y-71491095D01*
X127983871Y-71556757D01*
X128050000Y-71567231D01*
X128050000Y-70673012D01*
X128107007Y-70705925D01*
X128234174Y-70740000D01*
X128365826Y-70740000D01*
X128492993Y-70705925D01*
X128550000Y-70673012D01*
X128550000Y-71567230D01*
X128616126Y-71556757D01*
X128616129Y-71556757D01*
X128818217Y-71491095D01*
X129007557Y-71394620D01*
X129179459Y-71269727D01*
X129179464Y-71269723D01*
X129329723Y-71119464D01*
X129329727Y-71119459D01*
X129454620Y-70947558D01*
X129459232Y-70938507D01*
X129507205Y-70887709D01*
X129575025Y-70870912D01*
X129641161Y-70893447D01*
X129680204Y-70938504D01*
X129684949Y-70947817D01*
X129809890Y-71119786D01*
X129960213Y-71270109D01*
X130132179Y-71395048D01*
X130132181Y-71395049D01*
X130132184Y-71395051D01*
X130321588Y-71491557D01*
X130523757Y-71557246D01*
X130733713Y-71590500D01*
X130733714Y-71590500D01*
X130946286Y-71590500D01*
X130946287Y-71590500D01*
X131156243Y-71557246D01*
X131358412Y-71491557D01*
X131547816Y-71395051D01*
X131621946Y-71341193D01*
X131719786Y-71270109D01*
X131719788Y-71270106D01*
X131719792Y-71270104D01*
X131870104Y-71119792D01*
X131870106Y-71119788D01*
X131870109Y-71119786D01*
X131995048Y-70947820D01*
X131995047Y-70947820D01*
X131995051Y-70947816D01*
X131999514Y-70939054D01*
X132047488Y-70888259D01*
X132115308Y-70871463D01*
X132181444Y-70893999D01*
X132220484Y-70939054D01*
X132221232Y-70940520D01*
X132224951Y-70947820D01*
X132349890Y-71119786D01*
X132500213Y-71270109D01*
X132672179Y-71395048D01*
X132672181Y-71395049D01*
X132672184Y-71395051D01*
X132861588Y-71491557D01*
X133063757Y-71557246D01*
X133273713Y-71590500D01*
X133273714Y-71590500D01*
X133486286Y-71590500D01*
X133486287Y-71590500D01*
X133696243Y-71557246D01*
X133898412Y-71491557D01*
X134087816Y-71395051D01*
X134161946Y-71341193D01*
X134259786Y-71270109D01*
X134259788Y-71270106D01*
X134259792Y-71270104D01*
X134410104Y-71119792D01*
X134410106Y-71119788D01*
X134410109Y-71119786D01*
X134535048Y-70947820D01*
X134535047Y-70947820D01*
X134535051Y-70947816D01*
X134539514Y-70939054D01*
X134587488Y-70888259D01*
X134655308Y-70871463D01*
X134721444Y-70893999D01*
X134760484Y-70939054D01*
X134761232Y-70940520D01*
X134764951Y-70947820D01*
X134889890Y-71119786D01*
X135040213Y-71270109D01*
X135212179Y-71395048D01*
X135212181Y-71395049D01*
X135212184Y-71395051D01*
X135401588Y-71491557D01*
X135603757Y-71557246D01*
X135813713Y-71590500D01*
X135813714Y-71590500D01*
X136026286Y-71590500D01*
X136026287Y-71590500D01*
X136236243Y-71557246D01*
X136438412Y-71491557D01*
X136627816Y-71395051D01*
X136701946Y-71341193D01*
X136799786Y-71270109D01*
X136799788Y-71270106D01*
X136799792Y-71270104D01*
X136950104Y-71119792D01*
X136950106Y-71119788D01*
X136950109Y-71119786D01*
X137075048Y-70947820D01*
X137075047Y-70947820D01*
X137075051Y-70947816D01*
X137079514Y-70939054D01*
X137127488Y-70888259D01*
X137195308Y-70871463D01*
X137261444Y-70893999D01*
X137300484Y-70939054D01*
X137301232Y-70940520D01*
X137304951Y-70947820D01*
X137429890Y-71119786D01*
X137580213Y-71270109D01*
X137752179Y-71395048D01*
X137752181Y-71395049D01*
X137752184Y-71395051D01*
X137941588Y-71491557D01*
X138143757Y-71557246D01*
X138353713Y-71590500D01*
X138353714Y-71590500D01*
X138566286Y-71590500D01*
X138566287Y-71590500D01*
X138776243Y-71557246D01*
X138978412Y-71491557D01*
X139167816Y-71395051D01*
X139241946Y-71341193D01*
X139339786Y-71270109D01*
X139339788Y-71270106D01*
X139339792Y-71270104D01*
X139490104Y-71119792D01*
X139490106Y-71119788D01*
X139490109Y-71119786D01*
X139615048Y-70947820D01*
X139615047Y-70947820D01*
X139615051Y-70947816D01*
X139711557Y-70758412D01*
X139777246Y-70556243D01*
X139810500Y-70346287D01*
X139810500Y-70133713D01*
X139777246Y-69923757D01*
X139711557Y-69721588D01*
X139615051Y-69532184D01*
X139615049Y-69532181D01*
X139615048Y-69532179D01*
X139490109Y-69360213D01*
X139376569Y-69246673D01*
X139343084Y-69185350D01*
X139348068Y-69115658D01*
X139389940Y-69059725D01*
X139420915Y-69042810D01*
X139552331Y-68993796D01*
X139667546Y-68907546D01*
X139753796Y-68792331D01*
X139804091Y-68657483D01*
X139810500Y-68597873D01*
X139810499Y-66802128D01*
X139804091Y-66742517D01*
X139802810Y-66739083D01*
X139753797Y-66607671D01*
X139753793Y-66607664D01*
X139667547Y-66492455D01*
X139667544Y-66492452D01*
X139552335Y-66406206D01*
X139552328Y-66406202D01*
X139417482Y-66355908D01*
X139417483Y-66355908D01*
X139357883Y-66349501D01*
X139357881Y-66349500D01*
X139357873Y-66349500D01*
X139357864Y-66349500D01*
X137562129Y-66349500D01*
X137562123Y-66349501D01*
X137502516Y-66355908D01*
X137367671Y-66406202D01*
X137367664Y-66406206D01*
X137252455Y-66492452D01*
X137252452Y-66492455D01*
X137166206Y-66607664D01*
X137166203Y-66607669D01*
X137117189Y-66739083D01*
X137075317Y-66795016D01*
X137009853Y-66819433D01*
X136941580Y-66804581D01*
X136913326Y-66783430D01*
X136799786Y-66669890D01*
X136627820Y-66544951D01*
X136438414Y-66448444D01*
X136438413Y-66448443D01*
X136438412Y-66448443D01*
X136236243Y-66382754D01*
X136236241Y-66382753D01*
X136236240Y-66382753D01*
X136074957Y-66357208D01*
X136026287Y-66349500D01*
X135813713Y-66349500D01*
X135765042Y-66357208D01*
X135603760Y-66382753D01*
X135401585Y-66448444D01*
X135212179Y-66544951D01*
X135040213Y-66669890D01*
X134889890Y-66820213D01*
X134764949Y-66992182D01*
X134760484Y-67000946D01*
X134712509Y-67051742D01*
X134644688Y-67068536D01*
X134578553Y-67045998D01*
X134539516Y-67000946D01*
X134535050Y-66992182D01*
X134410109Y-66820213D01*
X134259786Y-66669890D01*
X134087820Y-66544951D01*
X133898414Y-66448444D01*
X133898413Y-66448443D01*
X133898412Y-66448443D01*
X133696243Y-66382754D01*
X133696241Y-66382753D01*
X133696240Y-66382753D01*
X133534957Y-66357208D01*
X133486287Y-66349500D01*
X133273713Y-66349500D01*
X133225042Y-66357208D01*
X133063760Y-66382753D01*
X132861585Y-66448444D01*
X132672179Y-66544951D01*
X132500213Y-66669890D01*
X132349890Y-66820213D01*
X132224949Y-66992182D01*
X132220484Y-67000946D01*
X132172509Y-67051742D01*
X132104688Y-67068536D01*
X132038553Y-67045998D01*
X131999516Y-67000946D01*
X131995050Y-66992182D01*
X131870109Y-66820213D01*
X131719786Y-66669890D01*
X131547820Y-66544951D01*
X131358414Y-66448444D01*
X131358413Y-66448443D01*
X131358412Y-66448443D01*
X131156243Y-66382754D01*
X131156241Y-66382753D01*
X131156240Y-66382753D01*
X130994957Y-66357208D01*
X130946287Y-66349500D01*
X130733713Y-66349500D01*
X130685042Y-66357208D01*
X130523760Y-66382753D01*
X130321585Y-66448444D01*
X130132179Y-66544951D01*
X129960213Y-66669890D01*
X129809890Y-66820213D01*
X129684949Y-66992182D01*
X129680202Y-67001499D01*
X129632227Y-67052293D01*
X129564405Y-67069087D01*
X129498271Y-67046548D01*
X129459234Y-67001495D01*
X129454622Y-66992444D01*
X129329727Y-66820540D01*
X129329723Y-66820535D01*
X129179464Y-66670276D01*
X129179459Y-66670272D01*
X129007557Y-66545379D01*
X128818215Y-66448903D01*
X128616124Y-66383241D01*
X128550000Y-66372768D01*
X128550000Y-67266988D01*
X128492993Y-67234075D01*
X128365826Y-67200000D01*
X128234174Y-67200000D01*
X128107007Y-67234075D01*
X128050000Y-67266988D01*
X128050000Y-66372768D01*
X128049999Y-66372768D01*
X127983875Y-66383241D01*
X127781784Y-66448903D01*
X127592442Y-66545379D01*
X127420540Y-66670272D01*
X127420535Y-66670276D01*
X127270276Y-66820535D01*
X127270272Y-66820540D01*
X127145378Y-66992443D01*
X127140762Y-67001502D01*
X127092784Y-67052295D01*
X127024963Y-67069087D01*
X126958829Y-67046546D01*
X126919794Y-67001493D01*
X126915051Y-66992184D01*
X126915049Y-66992181D01*
X126915048Y-66992179D01*
X126790109Y-66820213D01*
X126639786Y-66669890D01*
X126467820Y-66544951D01*
X126278414Y-66448444D01*
X126278413Y-66448443D01*
X126278412Y-66448443D01*
X126076243Y-66382754D01*
X126076241Y-66382753D01*
X126076240Y-66382753D01*
X125914957Y-66357208D01*
X125866287Y-66349500D01*
X125653713Y-66349500D01*
X125605042Y-66357208D01*
X125443760Y-66382753D01*
X125241585Y-66448444D01*
X125052179Y-66544951D01*
X124880213Y-66669890D01*
X124729890Y-66820213D01*
X124604951Y-66992179D01*
X124508444Y-67181585D01*
X124442753Y-67383760D01*
X124409500Y-67593713D01*
X124409500Y-67806286D01*
X124442753Y-68016239D01*
X124508444Y-68218414D01*
X124604951Y-68407820D01*
X124729890Y-68579786D01*
X124880213Y-68730109D01*
X125052182Y-68855050D01*
X125060946Y-68859516D01*
X125111742Y-68907491D01*
X125128536Y-68975312D01*
X125105998Y-69041447D01*
X125060946Y-69080484D01*
X125052182Y-69084949D01*
X124880213Y-69209890D01*
X124729890Y-69360213D01*
X124604951Y-69532179D01*
X124508444Y-69721585D01*
X124442753Y-69923760D01*
X124409500Y-70133713D01*
X124409500Y-70346286D01*
X124442753Y-70556239D01*
X124508444Y-70758414D01*
X124604948Y-70947815D01*
X124651663Y-71012113D01*
X124675142Y-71077920D01*
X124659316Y-71145974D01*
X124609210Y-71194668D01*
X124575536Y-71206615D01*
X124437340Y-71234104D01*
X124437332Y-71234106D01*
X124273459Y-71301983D01*
X124273446Y-71301990D01*
X124125965Y-71400535D01*
X124125961Y-71400538D01*
X124000538Y-71525961D01*
X124000535Y-71525965D01*
X123921406Y-71644391D01*
X123867794Y-71689196D01*
X123818304Y-71699500D01*
X116226799Y-71699500D01*
X116159760Y-71679815D01*
X116114005Y-71627011D01*
X116104061Y-71557853D01*
X116133086Y-71494297D01*
X116170504Y-71465015D01*
X116183681Y-71458300D01*
X116307816Y-71395051D01*
X116408269Y-71322068D01*
X116479786Y-71270109D01*
X116479788Y-71270106D01*
X116479792Y-71270104D01*
X116630104Y-71119792D01*
X116630106Y-71119788D01*
X116630109Y-71119786D01*
X116755048Y-70947820D01*
X116755047Y-70947820D01*
X116755051Y-70947816D01*
X116851557Y-70758412D01*
X116917246Y-70556243D01*
X116950500Y-70346287D01*
X116950500Y-70133713D01*
X116917246Y-69923757D01*
X116851557Y-69721588D01*
X116755051Y-69532184D01*
X116755049Y-69532181D01*
X116755048Y-69532179D01*
X116630109Y-69360213D01*
X116516569Y-69246673D01*
X116483084Y-69185350D01*
X116488068Y-69115658D01*
X116529940Y-69059725D01*
X116560915Y-69042810D01*
X116692331Y-68993796D01*
X116807546Y-68907546D01*
X116893796Y-68792331D01*
X116944091Y-68657483D01*
X116950500Y-68597873D01*
X116950499Y-66802128D01*
X116944091Y-66742517D01*
X116942810Y-66739083D01*
X116893797Y-66607671D01*
X116893793Y-66607664D01*
X116807547Y-66492455D01*
X116807544Y-66492452D01*
X116692335Y-66406206D01*
X116692328Y-66406202D01*
X116557482Y-66355908D01*
X116557483Y-66355908D01*
X116497883Y-66349501D01*
X116497881Y-66349500D01*
X116497873Y-66349500D01*
X116497864Y-66349500D01*
X114702129Y-66349500D01*
X114702123Y-66349501D01*
X114642516Y-66355908D01*
X114507671Y-66406202D01*
X114507664Y-66406206D01*
X114392455Y-66492452D01*
X114392452Y-66492455D01*
X114306206Y-66607664D01*
X114306203Y-66607669D01*
X114257189Y-66739083D01*
X114215317Y-66795016D01*
X114149853Y-66819433D01*
X114081580Y-66804581D01*
X114053326Y-66783430D01*
X113939786Y-66669890D01*
X113767820Y-66544951D01*
X113578414Y-66448444D01*
X113578413Y-66448443D01*
X113578412Y-66448443D01*
X113376243Y-66382754D01*
X113376241Y-66382753D01*
X113376240Y-66382753D01*
X113214957Y-66357208D01*
X113166287Y-66349500D01*
X112953713Y-66349500D01*
X112905042Y-66357208D01*
X112743760Y-66382753D01*
X112541585Y-66448444D01*
X112352179Y-66544951D01*
X112180213Y-66669890D01*
X112029890Y-66820213D01*
X111904949Y-66992182D01*
X111900484Y-67000946D01*
X111852509Y-67051742D01*
X111784688Y-67068536D01*
X111718553Y-67045998D01*
X111679516Y-67000946D01*
X111675050Y-66992182D01*
X111550109Y-66820213D01*
X111399786Y-66669890D01*
X111227820Y-66544951D01*
X111038414Y-66448444D01*
X111038413Y-66448443D01*
X111038412Y-66448443D01*
X110836243Y-66382754D01*
X110836241Y-66382753D01*
X110836240Y-66382753D01*
X110674957Y-66357208D01*
X110626287Y-66349500D01*
X110413713Y-66349500D01*
X110365042Y-66357208D01*
X110203760Y-66382753D01*
X110001585Y-66448444D01*
X109812179Y-66544951D01*
X109640213Y-66669890D01*
X109489890Y-66820213D01*
X109364949Y-66992182D01*
X109360484Y-67000946D01*
X109312509Y-67051742D01*
X109244688Y-67068536D01*
X109178553Y-67045998D01*
X109139516Y-67000946D01*
X109135050Y-66992182D01*
X109010109Y-66820213D01*
X108859786Y-66669890D01*
X108687820Y-66544951D01*
X108498414Y-66448444D01*
X108498413Y-66448443D01*
X108498412Y-66448443D01*
X108296243Y-66382754D01*
X108296241Y-66382753D01*
X108296240Y-66382753D01*
X108134957Y-66357208D01*
X108086287Y-66349500D01*
X107873713Y-66349500D01*
X107825042Y-66357208D01*
X107663760Y-66382753D01*
X107461585Y-66448444D01*
X107272179Y-66544951D01*
X107100213Y-66669890D01*
X106949890Y-66820213D01*
X106824949Y-66992182D01*
X106820202Y-67001499D01*
X106772227Y-67052293D01*
X106704405Y-67069087D01*
X106638271Y-67046548D01*
X106599234Y-67001495D01*
X106594622Y-66992444D01*
X106469727Y-66820540D01*
X106469723Y-66820535D01*
X106319464Y-66670276D01*
X106319459Y-66670272D01*
X106147557Y-66545379D01*
X105958215Y-66448903D01*
X105756124Y-66383241D01*
X105690000Y-66372768D01*
X105690000Y-67266988D01*
X105632993Y-67234075D01*
X105505826Y-67200000D01*
X105374174Y-67200000D01*
X105247007Y-67234075D01*
X105190000Y-67266988D01*
X105190000Y-66372768D01*
X105189999Y-66372768D01*
X105123875Y-66383241D01*
X104921784Y-66448903D01*
X104732442Y-66545379D01*
X104560540Y-66670272D01*
X104560535Y-66670276D01*
X104410276Y-66820535D01*
X104410272Y-66820540D01*
X104285378Y-66992443D01*
X104280762Y-67001502D01*
X104232784Y-67052295D01*
X104164963Y-67069087D01*
X104098829Y-67046546D01*
X104059794Y-67001493D01*
X104055051Y-66992184D01*
X104055049Y-66992181D01*
X104055048Y-66992179D01*
X103930109Y-66820213D01*
X103779786Y-66669890D01*
X103607820Y-66544951D01*
X103418414Y-66448444D01*
X103418413Y-66448443D01*
X103418412Y-66448443D01*
X103216243Y-66382754D01*
X103216241Y-66382753D01*
X103216240Y-66382753D01*
X103054957Y-66357208D01*
X103006287Y-66349500D01*
X102793713Y-66349500D01*
X102745042Y-66357208D01*
X102583760Y-66382753D01*
X102381585Y-66448444D01*
X102192179Y-66544951D01*
X102020213Y-66669890D01*
X101869890Y-66820213D01*
X101744951Y-66992179D01*
X101648444Y-67181585D01*
X101582753Y-67383760D01*
X101549500Y-67593713D01*
X101549500Y-67806286D01*
X101582753Y-68016239D01*
X101648444Y-68218414D01*
X101744951Y-68407820D01*
X101869890Y-68579786D01*
X102020213Y-68730109D01*
X102192182Y-68855050D01*
X102200946Y-68859516D01*
X102251742Y-68907491D01*
X102268536Y-68975312D01*
X102245998Y-69041447D01*
X102200946Y-69080484D01*
X102192182Y-69084949D01*
X102020213Y-69209890D01*
X101869890Y-69360213D01*
X101744951Y-69532179D01*
X101648444Y-69721585D01*
X101582753Y-69923760D01*
X101549500Y-70133713D01*
X101549500Y-70346286D01*
X101582753Y-70556239D01*
X101648444Y-70758414D01*
X101744948Y-70947815D01*
X101857416Y-71102615D01*
X101880895Y-71168422D01*
X101865069Y-71236475D01*
X101814963Y-71285170D01*
X101757097Y-71299500D01*
X101611306Y-71299500D01*
X101437341Y-71334103D01*
X101437332Y-71334106D01*
X101273459Y-71401983D01*
X101273447Y-71401990D01*
X101143825Y-71488602D01*
X101077148Y-71509480D01*
X101074934Y-71509500D01*
X99226046Y-71509500D01*
X99159007Y-71489815D01*
X99113252Y-71437011D01*
X99103308Y-71367853D01*
X99112179Y-71341193D01*
X99110697Y-71340641D01*
X99149548Y-71236475D01*
X99164091Y-71197483D01*
X99170500Y-71137873D01*
X99170499Y-69342128D01*
X99164091Y-69282517D01*
X99162810Y-69279083D01*
X99113797Y-69147671D01*
X99113793Y-69147664D01*
X99027547Y-69032455D01*
X99027544Y-69032452D01*
X98912335Y-68946206D01*
X98912328Y-68946202D01*
X98777482Y-68895908D01*
X98777483Y-68895908D01*
X98717883Y-68889501D01*
X98717881Y-68889500D01*
X98717873Y-68889500D01*
X98717864Y-68889500D01*
X96922129Y-68889500D01*
X96922123Y-68889501D01*
X96862516Y-68895908D01*
X96727671Y-68946202D01*
X96727664Y-68946206D01*
X96612455Y-69032452D01*
X96612452Y-69032455D01*
X96526206Y-69147664D01*
X96526203Y-69147669D01*
X96477189Y-69279083D01*
X96435317Y-69335016D01*
X96369853Y-69359433D01*
X96301580Y-69344581D01*
X96273326Y-69323430D01*
X96159786Y-69209890D01*
X95987820Y-69084951D01*
X95798414Y-68988444D01*
X95798413Y-68988443D01*
X95798412Y-68988443D01*
X95596243Y-68922754D01*
X95596241Y-68922753D01*
X95596240Y-68922753D01*
X95434957Y-68897208D01*
X95386287Y-68889500D01*
X95173713Y-68889500D01*
X95125042Y-68897208D01*
X94963760Y-68922753D01*
X94761585Y-68988444D01*
X94572179Y-69084951D01*
X94400213Y-69209890D01*
X94249890Y-69360213D01*
X94124949Y-69532182D01*
X94120484Y-69540946D01*
X94072509Y-69591742D01*
X94004688Y-69608536D01*
X93938553Y-69585998D01*
X93899516Y-69540946D01*
X93895050Y-69532182D01*
X93770109Y-69360213D01*
X93656569Y-69246673D01*
X93623084Y-69185350D01*
X93628068Y-69115658D01*
X93669940Y-69059725D01*
X93700915Y-69042810D01*
X93832331Y-68993796D01*
X93947546Y-68907546D01*
X94033796Y-68792331D01*
X94084091Y-68657483D01*
X94090500Y-68597873D01*
X94090499Y-66802128D01*
X94084091Y-66742517D01*
X94082810Y-66739083D01*
X94033797Y-66607671D01*
X94033793Y-66607664D01*
X93947547Y-66492455D01*
X93947544Y-66492452D01*
X93832335Y-66406206D01*
X93832328Y-66406202D01*
X93697482Y-66355908D01*
X93697483Y-66355908D01*
X93637883Y-66349501D01*
X93637881Y-66349500D01*
X93637873Y-66349500D01*
X93637864Y-66349500D01*
X91842129Y-66349500D01*
X91842123Y-66349501D01*
X91782516Y-66355908D01*
X91647671Y-66406202D01*
X91647664Y-66406206D01*
X91532455Y-66492452D01*
X91532452Y-66492455D01*
X91446206Y-66607664D01*
X91446203Y-66607669D01*
X91397189Y-66739083D01*
X91355317Y-66795016D01*
X91289853Y-66819433D01*
X91221580Y-66804581D01*
X91193326Y-66783430D01*
X91079786Y-66669890D01*
X90907820Y-66544951D01*
X90718414Y-66448444D01*
X90718413Y-66448443D01*
X90718412Y-66448443D01*
X90516243Y-66382754D01*
X90516241Y-66382753D01*
X90516240Y-66382753D01*
X90354957Y-66357208D01*
X90306287Y-66349500D01*
X90093713Y-66349500D01*
X90045042Y-66357208D01*
X89883760Y-66382753D01*
X89681585Y-66448444D01*
X89492179Y-66544951D01*
X89320213Y-66669890D01*
X89169890Y-66820213D01*
X89044949Y-66992182D01*
X89040484Y-67000946D01*
X88992509Y-67051742D01*
X88924688Y-67068536D01*
X88858553Y-67045998D01*
X88819516Y-67000946D01*
X88815050Y-66992182D01*
X88690109Y-66820213D01*
X88539786Y-66669890D01*
X88367820Y-66544951D01*
X88178414Y-66448444D01*
X88178413Y-66448443D01*
X88178412Y-66448443D01*
X87976243Y-66382754D01*
X87976241Y-66382753D01*
X87976240Y-66382753D01*
X87814957Y-66357208D01*
X87766287Y-66349500D01*
X87553713Y-66349500D01*
X87505042Y-66357208D01*
X87343760Y-66382753D01*
X87141585Y-66448444D01*
X86952179Y-66544951D01*
X86780213Y-66669890D01*
X86629890Y-66820213D01*
X86504949Y-66992182D01*
X86500484Y-67000946D01*
X86452509Y-67051742D01*
X86384688Y-67068536D01*
X86318553Y-67045998D01*
X86279516Y-67000946D01*
X86275050Y-66992182D01*
X86150109Y-66820213D01*
X85999786Y-66669890D01*
X85827820Y-66544951D01*
X85638414Y-66448444D01*
X85638413Y-66448443D01*
X85638412Y-66448443D01*
X85436243Y-66382754D01*
X85436241Y-66382753D01*
X85436240Y-66382753D01*
X85274957Y-66357208D01*
X85226287Y-66349500D01*
X85013713Y-66349500D01*
X84965042Y-66357208D01*
X84803760Y-66382753D01*
X84601585Y-66448444D01*
X84412179Y-66544951D01*
X84240213Y-66669890D01*
X84089890Y-66820213D01*
X83964949Y-66992182D01*
X83960202Y-67001499D01*
X83912227Y-67052293D01*
X83844405Y-67069087D01*
X83778271Y-67046548D01*
X83739234Y-67001495D01*
X83734622Y-66992444D01*
X83609727Y-66820540D01*
X83609723Y-66820535D01*
X83459464Y-66670276D01*
X83459459Y-66670272D01*
X83287557Y-66545379D01*
X83098215Y-66448903D01*
X82896124Y-66383241D01*
X82830000Y-66372768D01*
X82830000Y-67266988D01*
X82772993Y-67234075D01*
X82645826Y-67200000D01*
X82514174Y-67200000D01*
X82387007Y-67234075D01*
X82330000Y-67266988D01*
X82330000Y-66372768D01*
X82329999Y-66372768D01*
X82263875Y-66383241D01*
X82061784Y-66448903D01*
X81872442Y-66545379D01*
X81700540Y-66670272D01*
X81700535Y-66670276D01*
X81550276Y-66820535D01*
X81550272Y-66820540D01*
X81425378Y-66992443D01*
X81420762Y-67001502D01*
X81372784Y-67052295D01*
X81304963Y-67069087D01*
X81238829Y-67046546D01*
X81199794Y-67001493D01*
X81195051Y-66992184D01*
X81195049Y-66992181D01*
X81195048Y-66992179D01*
X81070109Y-66820213D01*
X80919786Y-66669890D01*
X80747820Y-66544951D01*
X80558414Y-66448444D01*
X80558413Y-66448443D01*
X80558412Y-66448443D01*
X80356243Y-66382754D01*
X80356241Y-66382753D01*
X80356240Y-66382753D01*
X80194957Y-66357208D01*
X80146287Y-66349500D01*
X79933713Y-66349500D01*
X79885042Y-66357208D01*
X79723760Y-66382753D01*
X79521585Y-66448444D01*
X79332179Y-66544951D01*
X79160213Y-66669890D01*
X79009890Y-66820213D01*
X78884951Y-66992179D01*
X78788444Y-67181585D01*
X78722753Y-67383760D01*
X78689500Y-67593713D01*
X78689500Y-67806286D01*
X78722753Y-68016239D01*
X78788444Y-68218414D01*
X78884951Y-68407820D01*
X79009890Y-68579786D01*
X79160213Y-68730109D01*
X79332182Y-68855050D01*
X79340946Y-68859516D01*
X79391742Y-68907491D01*
X79408536Y-68975312D01*
X79385998Y-69041447D01*
X79340946Y-69080484D01*
X79332182Y-69084949D01*
X79160213Y-69209890D01*
X79009892Y-69360211D01*
X78962121Y-69425965D01*
X78916770Y-69488385D01*
X78861442Y-69531051D01*
X78816453Y-69539500D01*
X75510100Y-69539500D01*
X75443061Y-69519815D01*
X75441209Y-69518602D01*
X75326549Y-69441988D01*
X75326547Y-69441987D01*
X75162667Y-69374106D01*
X75162658Y-69374103D01*
X74988694Y-69339500D01*
X74988691Y-69339500D01*
X74811309Y-69339500D01*
X74811306Y-69339500D01*
X74637341Y-69374103D01*
X74637332Y-69374106D01*
X74473452Y-69441987D01*
X74473450Y-69441988D01*
X74358791Y-69518602D01*
X74292114Y-69539480D01*
X74289900Y-69539500D01*
X73341605Y-69539500D01*
X73274566Y-69519815D01*
X73238503Y-69484390D01*
X73199467Y-69425969D01*
X73199461Y-69425961D01*
X73074038Y-69300538D01*
X73074034Y-69300535D01*
X72926553Y-69201990D01*
X72926540Y-69201983D01*
X72762667Y-69134106D01*
X72762658Y-69134103D01*
X72588694Y-69099500D01*
X72588691Y-69099500D01*
X72411309Y-69099500D01*
X72411306Y-69099500D01*
X72237341Y-69134103D01*
X72237332Y-69134106D01*
X72073459Y-69201983D01*
X72073446Y-69201990D01*
X71925965Y-69300535D01*
X71925961Y-69300538D01*
X71800538Y-69425961D01*
X71800535Y-69425965D01*
X71701990Y-69573446D01*
X71701983Y-69573459D01*
X71634106Y-69737332D01*
X71634103Y-69737341D01*
X71599500Y-69911304D01*
X71599500Y-70088695D01*
X71634103Y-70262658D01*
X71634106Y-70262667D01*
X71701983Y-70426540D01*
X71701990Y-70426553D01*
X71800535Y-70574034D01*
X71800538Y-70574038D01*
X71925961Y-70699461D01*
X71925965Y-70699464D01*
X72073446Y-70798009D01*
X72073459Y-70798016D01*
X72196363Y-70848923D01*
X72237334Y-70865894D01*
X72237336Y-70865894D01*
X72237341Y-70865896D01*
X72411304Y-70900499D01*
X72411307Y-70900500D01*
X72411309Y-70900500D01*
X72479427Y-70900500D01*
X72526880Y-70909939D01*
X72532729Y-70912361D01*
X72535671Y-70913580D01*
X72535672Y-70913580D01*
X72535677Y-70913582D01*
X72562545Y-70918925D01*
X72562551Y-70918926D01*
X72562591Y-70918934D01*
X72652937Y-70936905D01*
X72671006Y-70940500D01*
X72671007Y-70940500D01*
X74289900Y-70940500D01*
X74356939Y-70960185D01*
X74358788Y-70961396D01*
X74473453Y-71038013D01*
X74637334Y-71105894D01*
X74637336Y-71105894D01*
X74637341Y-71105896D01*
X74811304Y-71140499D01*
X74811307Y-71140500D01*
X74811309Y-71140500D01*
X74988693Y-71140500D01*
X74988694Y-71140499D01*
X75046682Y-71128964D01*
X75162658Y-71105896D01*
X75162661Y-71105894D01*
X75162666Y-71105894D01*
X75326547Y-71038013D01*
X75441209Y-70961397D01*
X75507886Y-70940520D01*
X75510100Y-70940500D01*
X78816453Y-70940500D01*
X78883492Y-70960185D01*
X78916769Y-70991614D01*
X78951842Y-71039887D01*
X79009892Y-71119788D01*
X79160213Y-71270109D01*
X79332179Y-71395048D01*
X79332181Y-71395049D01*
X79332184Y-71395051D01*
X79521588Y-71491557D01*
X79723757Y-71557246D01*
X79933713Y-71590500D01*
X79933714Y-71590500D01*
X80146286Y-71590500D01*
X80146287Y-71590500D01*
X80302771Y-71565715D01*
X80372064Y-71574670D01*
X80409850Y-71600507D01*
X81197162Y-72387819D01*
X81230647Y-72449142D01*
X81225663Y-72518834D01*
X81183791Y-72574767D01*
X81118327Y-72599184D01*
X81109481Y-72599500D01*
X70604428Y-72599500D01*
X70595582Y-72599184D01*
X70573622Y-72597613D01*
X70395442Y-72584869D01*
X70377931Y-72582351D01*
X70186209Y-72540645D01*
X70169234Y-72535661D01*
X69985394Y-72467093D01*
X69969300Y-72459743D01*
X69797091Y-72365709D01*
X69782208Y-72356144D01*
X69625135Y-72238561D01*
X69611764Y-72226975D01*
X69473024Y-72088235D01*
X69461438Y-72074864D01*
X69343855Y-71917791D01*
X69334290Y-71902908D01*
X69240256Y-71730699D01*
X69232909Y-71714611D01*
X69164336Y-71530760D01*
X69159354Y-71513790D01*
X69158416Y-71509480D01*
X69117647Y-71322063D01*
X69115130Y-71304556D01*
X69115111Y-71304297D01*
X69100816Y-71104418D01*
X69100500Y-71095572D01*
X69100500Y-51913713D01*
X69524500Y-51913713D01*
X69524500Y-52126286D01*
X69555464Y-52321789D01*
X69557754Y-52336243D01*
X69614594Y-52511179D01*
X69623444Y-52538414D01*
X69719951Y-52727820D01*
X69844890Y-52899786D01*
X69995213Y-53050109D01*
X70167182Y-53175050D01*
X70175946Y-53179516D01*
X70226742Y-53227491D01*
X70243536Y-53295312D01*
X70220998Y-53361447D01*
X70175946Y-53400484D01*
X70167182Y-53404949D01*
X69995213Y-53529890D01*
X69844890Y-53680213D01*
X69719951Y-53852179D01*
X69623444Y-54041585D01*
X69557753Y-54243760D01*
X69541315Y-54347546D01*
X69524500Y-54453713D01*
X69524500Y-54666287D01*
X69534534Y-54729644D01*
X69544048Y-54789711D01*
X69557754Y-54876243D01*
X69572240Y-54920827D01*
X69623444Y-55078414D01*
X69719951Y-55267820D01*
X69844890Y-55439786D01*
X69995213Y-55590109D01*
X70167182Y-55715050D01*
X70175946Y-55719516D01*
X70226742Y-55767491D01*
X70243536Y-55835312D01*
X70220998Y-55901447D01*
X70175946Y-55940484D01*
X70167182Y-55944949D01*
X69995213Y-56069890D01*
X69844890Y-56220213D01*
X69719951Y-56392179D01*
X69623444Y-56581585D01*
X69557753Y-56783760D01*
X69524500Y-56993713D01*
X69524500Y-57206287D01*
X69557754Y-57416243D01*
X69621518Y-57612489D01*
X69623444Y-57618414D01*
X69719951Y-57807820D01*
X69844890Y-57979786D01*
X69958818Y-58093714D01*
X69992303Y-58155037D01*
X69987319Y-58224729D01*
X69945447Y-58280662D01*
X69914471Y-58297577D01*
X69782912Y-58346646D01*
X69782906Y-58346649D01*
X69667812Y-58432809D01*
X69667809Y-58432812D01*
X69581649Y-58547906D01*
X69581645Y-58547913D01*
X69531403Y-58682620D01*
X69531401Y-58682627D01*
X69525000Y-58742155D01*
X69525000Y-59390000D01*
X70441988Y-59390000D01*
X70409075Y-59447007D01*
X70375000Y-59574174D01*
X70375000Y-59705826D01*
X70409075Y-59832993D01*
X70441988Y-59890000D01*
X69525000Y-59890000D01*
X69525000Y-60537844D01*
X69531401Y-60597372D01*
X69531403Y-60597379D01*
X69581645Y-60732086D01*
X69581649Y-60732093D01*
X69667809Y-60847187D01*
X69667812Y-60847190D01*
X69782906Y-60933350D01*
X69782913Y-60933354D01*
X69917620Y-60983596D01*
X69917627Y-60983598D01*
X69977155Y-60989999D01*
X69977172Y-60990000D01*
X70625000Y-60990000D01*
X70625000Y-60073012D01*
X70682007Y-60105925D01*
X70809174Y-60140000D01*
X70940826Y-60140000D01*
X71067993Y-60105925D01*
X71125000Y-60073012D01*
X71125000Y-60990000D01*
X71772828Y-60990000D01*
X71772844Y-60989999D01*
X71832372Y-60983598D01*
X71832379Y-60983596D01*
X71967086Y-60933354D01*
X71967093Y-60933350D01*
X72082187Y-60847190D01*
X72082190Y-60847187D01*
X72168350Y-60732093D01*
X72168354Y-60732086D01*
X72218596Y-60597379D01*
X72218598Y-60597372D01*
X72224999Y-60537844D01*
X72225000Y-60537827D01*
X72225000Y-59890000D01*
X71308012Y-59890000D01*
X71340925Y-59832993D01*
X71375000Y-59705826D01*
X71375000Y-59574174D01*
X71340925Y-59447007D01*
X71308012Y-59390000D01*
X72225000Y-59390000D01*
X72225000Y-58742172D01*
X72224999Y-58742155D01*
X72218598Y-58682627D01*
X72218596Y-58682620D01*
X72168354Y-58547913D01*
X72168350Y-58547906D01*
X72082190Y-58432812D01*
X72082187Y-58432809D01*
X71967093Y-58346649D01*
X71967088Y-58346646D01*
X71835528Y-58297577D01*
X71779595Y-58255705D01*
X71755178Y-58190241D01*
X71770030Y-58121968D01*
X71791175Y-58093720D01*
X71905104Y-57979792D01*
X71998229Y-57851614D01*
X72053558Y-57808949D01*
X72098547Y-57800500D01*
X78564551Y-57800500D01*
X78631590Y-57820185D01*
X78677345Y-57872989D01*
X78682480Y-57886179D01*
X78712895Y-57979785D01*
X78738444Y-58058414D01*
X78834951Y-58247820D01*
X78959890Y-58419786D01*
X79110213Y-58570109D01*
X79282182Y-58695050D01*
X79290946Y-58699516D01*
X79341742Y-58747491D01*
X79358536Y-58815312D01*
X79335998Y-58881447D01*
X79290946Y-58920484D01*
X79282182Y-58924949D01*
X79110213Y-59049890D01*
X78959890Y-59200213D01*
X78834951Y-59372179D01*
X78738444Y-59561585D01*
X78672753Y-59763760D01*
X78671291Y-59772993D01*
X78639500Y-59973713D01*
X78639500Y-60186287D01*
X78672754Y-60396243D01*
X78738107Y-60597379D01*
X78738444Y-60598414D01*
X78834951Y-60787820D01*
X78959890Y-60959786D01*
X79110213Y-61110109D01*
X79282179Y-61235048D01*
X79282181Y-61235049D01*
X79282184Y-61235051D01*
X79471588Y-61331557D01*
X79673757Y-61397246D01*
X79883713Y-61430500D01*
X79883714Y-61430500D01*
X80096286Y-61430500D01*
X80096287Y-61430500D01*
X80306243Y-61397246D01*
X80508412Y-61331557D01*
X80697816Y-61235051D01*
X80784138Y-61172335D01*
X80869786Y-61110109D01*
X80869788Y-61110106D01*
X80869792Y-61110104D01*
X81020104Y-60959792D01*
X81020106Y-60959788D01*
X81020109Y-60959786D01*
X81087515Y-60867007D01*
X81145051Y-60787816D01*
X81149793Y-60778508D01*
X81197763Y-60727711D01*
X81265583Y-60710911D01*
X81331719Y-60733445D01*
X81370763Y-60778500D01*
X81375377Y-60787555D01*
X81500272Y-60959459D01*
X81500276Y-60959464D01*
X81650535Y-61109723D01*
X81650540Y-61109727D01*
X81822442Y-61234620D01*
X82011782Y-61331095D01*
X82213871Y-61396757D01*
X82280000Y-61407231D01*
X82280000Y-60513012D01*
X82337007Y-60545925D01*
X82464174Y-60580000D01*
X82595826Y-60580000D01*
X82722993Y-60545925D01*
X82780000Y-60513012D01*
X82780000Y-61407230D01*
X82846126Y-61396757D01*
X82846129Y-61396757D01*
X83048217Y-61331095D01*
X83237557Y-61234620D01*
X83409459Y-61109727D01*
X83409464Y-61109723D01*
X83559723Y-60959464D01*
X83559727Y-60959459D01*
X83684620Y-60787558D01*
X83689232Y-60778507D01*
X83737205Y-60727709D01*
X83805025Y-60710912D01*
X83871161Y-60733447D01*
X83910204Y-60778504D01*
X83914949Y-60787817D01*
X84039890Y-60959786D01*
X84190213Y-61110109D01*
X84362179Y-61235048D01*
X84362181Y-61235049D01*
X84362184Y-61235051D01*
X84551588Y-61331557D01*
X84753757Y-61397246D01*
X84963713Y-61430500D01*
X84963714Y-61430500D01*
X85176286Y-61430500D01*
X85176287Y-61430500D01*
X85386243Y-61397246D01*
X85588412Y-61331557D01*
X85777816Y-61235051D01*
X85864138Y-61172335D01*
X85949786Y-61110109D01*
X85949788Y-61110106D01*
X85949792Y-61110104D01*
X86100104Y-60959792D01*
X86100106Y-60959788D01*
X86100109Y-60959786D01*
X86225048Y-60787820D01*
X86225047Y-60787820D01*
X86225051Y-60787816D01*
X86229514Y-60779054D01*
X86277488Y-60728259D01*
X86345308Y-60711463D01*
X86411444Y-60733999D01*
X86450486Y-60779056D01*
X86454951Y-60787820D01*
X86579890Y-60959786D01*
X86730213Y-61110109D01*
X86902179Y-61235048D01*
X86902181Y-61235049D01*
X86902184Y-61235051D01*
X87091588Y-61331557D01*
X87293757Y-61397246D01*
X87503713Y-61430500D01*
X87503714Y-61430500D01*
X87716286Y-61430500D01*
X87716287Y-61430500D01*
X87926243Y-61397246D01*
X88128412Y-61331557D01*
X88317816Y-61235051D01*
X88404138Y-61172335D01*
X88489786Y-61110109D01*
X88489788Y-61110106D01*
X88489792Y-61110104D01*
X88640104Y-60959792D01*
X88640106Y-60959788D01*
X88640109Y-60959786D01*
X88765048Y-60787820D01*
X88765047Y-60787820D01*
X88765051Y-60787816D01*
X88769514Y-60779054D01*
X88817488Y-60728259D01*
X88885308Y-60711463D01*
X88951444Y-60733999D01*
X88990486Y-60779056D01*
X88994951Y-60787820D01*
X89119890Y-60959786D01*
X89270213Y-61110109D01*
X89442179Y-61235048D01*
X89442181Y-61235049D01*
X89442184Y-61235051D01*
X89631588Y-61331557D01*
X89833757Y-61397246D01*
X90043713Y-61430500D01*
X90043714Y-61430500D01*
X90256286Y-61430500D01*
X90256287Y-61430500D01*
X90466243Y-61397246D01*
X90668412Y-61331557D01*
X90857816Y-61235051D01*
X90944138Y-61172335D01*
X91029786Y-61110109D01*
X91029788Y-61110106D01*
X91029792Y-61110104D01*
X91180104Y-60959792D01*
X91180106Y-60959788D01*
X91180109Y-60959786D01*
X91305048Y-60787820D01*
X91305047Y-60787820D01*
X91305051Y-60787816D01*
X91309514Y-60779054D01*
X91357488Y-60728259D01*
X91425308Y-60711463D01*
X91491444Y-60733999D01*
X91530486Y-60779056D01*
X91534951Y-60787820D01*
X91659890Y-60959786D01*
X91810213Y-61110109D01*
X91982179Y-61235048D01*
X91982181Y-61235049D01*
X91982184Y-61235051D01*
X92171588Y-61331557D01*
X92373757Y-61397246D01*
X92583713Y-61430500D01*
X92583714Y-61430500D01*
X92796286Y-61430500D01*
X92796287Y-61430500D01*
X93006243Y-61397246D01*
X93208412Y-61331557D01*
X93397816Y-61235051D01*
X93484138Y-61172335D01*
X93569786Y-61110109D01*
X93569788Y-61110106D01*
X93569792Y-61110104D01*
X93720104Y-60959792D01*
X93720106Y-60959788D01*
X93720109Y-60959786D01*
X93845048Y-60787820D01*
X93845047Y-60787820D01*
X93845051Y-60787816D01*
X93849514Y-60779054D01*
X93897488Y-60728259D01*
X93965308Y-60711463D01*
X94031444Y-60733999D01*
X94070486Y-60779056D01*
X94074951Y-60787820D01*
X94199890Y-60959786D01*
X94350213Y-61110109D01*
X94522179Y-61235048D01*
X94522181Y-61235049D01*
X94522184Y-61235051D01*
X94711588Y-61331557D01*
X94913757Y-61397246D01*
X95123713Y-61430500D01*
X95123714Y-61430500D01*
X95336286Y-61430500D01*
X95336287Y-61430500D01*
X95546243Y-61397246D01*
X95748412Y-61331557D01*
X95937816Y-61235051D01*
X96109792Y-61110104D01*
X96223329Y-60996566D01*
X96284648Y-60963084D01*
X96354340Y-60968068D01*
X96410274Y-61009939D01*
X96427189Y-61040917D01*
X96476202Y-61172328D01*
X96476206Y-61172335D01*
X96562452Y-61287544D01*
X96562455Y-61287547D01*
X96677664Y-61373793D01*
X96677671Y-61373797D01*
X96812517Y-61424091D01*
X96812516Y-61424091D01*
X96819444Y-61424835D01*
X96872127Y-61430500D01*
X98667872Y-61430499D01*
X98727483Y-61424091D01*
X98862331Y-61373796D01*
X98977546Y-61287546D01*
X99063796Y-61172331D01*
X99114091Y-61037483D01*
X99120500Y-60977873D01*
X99120499Y-59182128D01*
X99114091Y-59122517D01*
X99112810Y-59119083D01*
X99063797Y-58987671D01*
X99063793Y-58987664D01*
X98977547Y-58872455D01*
X98977544Y-58872452D01*
X98862335Y-58786206D01*
X98862328Y-58786202D01*
X98727482Y-58735908D01*
X98727483Y-58735908D01*
X98667883Y-58729501D01*
X98667881Y-58729500D01*
X98667873Y-58729500D01*
X98667864Y-58729500D01*
X96872129Y-58729500D01*
X96872123Y-58729501D01*
X96812516Y-58735908D01*
X96677671Y-58786202D01*
X96677664Y-58786206D01*
X96562455Y-58872452D01*
X96562452Y-58872455D01*
X96476206Y-58987664D01*
X96476203Y-58987669D01*
X96427189Y-59119083D01*
X96385317Y-59175016D01*
X96319853Y-59199433D01*
X96251580Y-59184581D01*
X96223326Y-59163430D01*
X96109786Y-59049890D01*
X95937820Y-58924951D01*
X95748414Y-58828444D01*
X95748413Y-58828443D01*
X95748412Y-58828443D01*
X95546243Y-58762754D01*
X95546241Y-58762753D01*
X95546240Y-58762753D01*
X95384957Y-58737208D01*
X95336287Y-58729500D01*
X95123713Y-58729500D01*
X95075042Y-58737208D01*
X94913760Y-58762753D01*
X94711585Y-58828444D01*
X94522179Y-58924951D01*
X94350213Y-59049890D01*
X94199890Y-59200213D01*
X94074949Y-59372182D01*
X94070484Y-59380946D01*
X94022509Y-59431742D01*
X93954688Y-59448536D01*
X93888553Y-59425998D01*
X93849516Y-59380946D01*
X93845050Y-59372182D01*
X93720109Y-59200213D01*
X93606569Y-59086673D01*
X93573084Y-59025350D01*
X93578068Y-58955658D01*
X93619940Y-58899725D01*
X93650915Y-58882810D01*
X93782331Y-58833796D01*
X93897546Y-58747546D01*
X93983796Y-58632331D01*
X94034091Y-58497483D01*
X94040500Y-58437873D01*
X94040499Y-56642128D01*
X94034091Y-56582517D01*
X94033743Y-56581585D01*
X93983797Y-56447671D01*
X93983793Y-56447664D01*
X93897547Y-56332455D01*
X93897544Y-56332452D01*
X93782335Y-56246206D01*
X93782328Y-56246202D01*
X93647482Y-56195908D01*
X93647483Y-56195908D01*
X93587883Y-56189501D01*
X93587881Y-56189500D01*
X93587873Y-56189500D01*
X93587864Y-56189500D01*
X91792129Y-56189500D01*
X91792123Y-56189501D01*
X91732516Y-56195908D01*
X91597671Y-56246202D01*
X91597664Y-56246206D01*
X91482455Y-56332452D01*
X91482452Y-56332455D01*
X91396206Y-56447664D01*
X91396203Y-56447669D01*
X91347189Y-56579083D01*
X91305317Y-56635016D01*
X91239853Y-56659433D01*
X91171580Y-56644581D01*
X91143326Y-56623430D01*
X91029786Y-56509890D01*
X90857820Y-56384951D01*
X90668414Y-56288444D01*
X90668413Y-56288443D01*
X90668412Y-56288443D01*
X90466243Y-56222754D01*
X90466241Y-56222753D01*
X90466240Y-56222753D01*
X90304957Y-56197208D01*
X90256287Y-56189500D01*
X90043713Y-56189500D01*
X89995042Y-56197208D01*
X89833760Y-56222753D01*
X89631585Y-56288444D01*
X89442179Y-56384951D01*
X89270213Y-56509890D01*
X89119890Y-56660213D01*
X88994949Y-56832182D01*
X88990484Y-56840946D01*
X88942509Y-56891742D01*
X88874688Y-56908536D01*
X88808553Y-56885998D01*
X88769516Y-56840946D01*
X88765050Y-56832182D01*
X88640109Y-56660213D01*
X88489786Y-56509890D01*
X88317820Y-56384951D01*
X88128414Y-56288444D01*
X88128413Y-56288443D01*
X88128412Y-56288443D01*
X87926243Y-56222754D01*
X87926241Y-56222753D01*
X87926240Y-56222753D01*
X87764957Y-56197208D01*
X87716287Y-56189500D01*
X87503713Y-56189500D01*
X87455042Y-56197208D01*
X87293760Y-56222753D01*
X87091585Y-56288444D01*
X86902179Y-56384951D01*
X86730213Y-56509890D01*
X86579890Y-56660213D01*
X86454949Y-56832182D01*
X86450484Y-56840946D01*
X86402509Y-56891742D01*
X86334688Y-56908536D01*
X86268553Y-56885998D01*
X86229516Y-56840946D01*
X86225050Y-56832182D01*
X86100109Y-56660213D01*
X85949786Y-56509890D01*
X85777820Y-56384951D01*
X85588414Y-56288444D01*
X85588413Y-56288443D01*
X85588412Y-56288443D01*
X85386243Y-56222754D01*
X85386241Y-56222753D01*
X85386240Y-56222753D01*
X85224957Y-56197208D01*
X85176287Y-56189500D01*
X84963713Y-56189500D01*
X84915042Y-56197208D01*
X84753760Y-56222753D01*
X84551585Y-56288444D01*
X84362179Y-56384951D01*
X84190213Y-56509890D01*
X84039890Y-56660213D01*
X83914949Y-56832182D01*
X83910202Y-56841499D01*
X83862227Y-56892293D01*
X83794405Y-56909087D01*
X83728271Y-56886548D01*
X83689234Y-56841495D01*
X83684622Y-56832444D01*
X83559727Y-56660540D01*
X83559723Y-56660535D01*
X83409464Y-56510276D01*
X83409459Y-56510272D01*
X83237557Y-56385379D01*
X83048215Y-56288903D01*
X82846124Y-56223241D01*
X82780000Y-56212768D01*
X82780000Y-57106988D01*
X82722993Y-57074075D01*
X82595826Y-57040000D01*
X82464174Y-57040000D01*
X82337007Y-57074075D01*
X82280000Y-57106988D01*
X82280000Y-56212768D01*
X82279999Y-56212768D01*
X82213875Y-56223241D01*
X82011784Y-56288903D01*
X81822442Y-56385379D01*
X81650540Y-56510272D01*
X81650535Y-56510276D01*
X81500276Y-56660535D01*
X81500272Y-56660540D01*
X81375378Y-56832443D01*
X81370762Y-56841502D01*
X81322784Y-56892295D01*
X81254963Y-56909087D01*
X81188829Y-56886546D01*
X81149794Y-56841493D01*
X81145051Y-56832184D01*
X81145049Y-56832181D01*
X81145048Y-56832179D01*
X81020109Y-56660213D01*
X80869786Y-56509890D01*
X80697820Y-56384951D01*
X80508414Y-56288444D01*
X80508413Y-56288443D01*
X80508412Y-56288443D01*
X80306243Y-56222754D01*
X80306241Y-56222753D01*
X80306240Y-56222753D01*
X80144957Y-56197208D01*
X80096287Y-56189500D01*
X79883713Y-56189500D01*
X79835042Y-56197208D01*
X79673760Y-56222753D01*
X79471585Y-56288444D01*
X79280151Y-56385985D01*
X79223856Y-56399500D01*
X72098547Y-56399500D01*
X72031508Y-56379815D01*
X71998230Y-56348385D01*
X71955014Y-56288904D01*
X71905107Y-56220211D01*
X71754786Y-56069890D01*
X71582820Y-55944951D01*
X71582115Y-55944591D01*
X71574054Y-55940485D01*
X71523259Y-55892512D01*
X71506463Y-55824692D01*
X71528999Y-55758556D01*
X71574054Y-55719515D01*
X71582816Y-55715051D01*
X71632200Y-55679172D01*
X71754786Y-55590109D01*
X71754788Y-55590106D01*
X71754792Y-55590104D01*
X71905104Y-55439792D01*
X71918646Y-55421153D01*
X99099500Y-55421153D01*
X99099500Y-55578846D01*
X99130261Y-55733489D01*
X99130264Y-55733501D01*
X99190602Y-55879172D01*
X99190609Y-55879185D01*
X99278210Y-56010288D01*
X99278213Y-56010292D01*
X99389707Y-56121786D01*
X99389711Y-56121789D01*
X99520814Y-56209390D01*
X99520827Y-56209397D01*
X99660936Y-56267431D01*
X99666503Y-56269737D01*
X99821153Y-56300499D01*
X99821156Y-56300500D01*
X99821158Y-56300500D01*
X99978844Y-56300500D01*
X99978845Y-56300499D01*
X100133497Y-56269737D01*
X100253064Y-56220211D01*
X100279172Y-56209397D01*
X100279172Y-56209396D01*
X100279179Y-56209394D01*
X100410289Y-56121789D01*
X100470260Y-56061817D01*
X100531581Y-56028334D01*
X100557940Y-56025500D01*
X102357939Y-56025500D01*
X102424978Y-56045185D01*
X102470733Y-56097989D01*
X102480677Y-56167147D01*
X102451652Y-56230703D01*
X102396257Y-56267430D01*
X102331588Y-56288443D01*
X102331585Y-56288444D01*
X102142179Y-56384951D01*
X101970213Y-56509890D01*
X101819890Y-56660213D01*
X101694951Y-56832179D01*
X101598444Y-57021585D01*
X101532753Y-57223760D01*
X101531291Y-57232993D01*
X101499500Y-57433713D01*
X101499500Y-57646287D01*
X101532754Y-57856243D01*
X101572895Y-57979785D01*
X101598444Y-58058414D01*
X101694951Y-58247820D01*
X101819890Y-58419786D01*
X101970213Y-58570109D01*
X102142182Y-58695050D01*
X102150946Y-58699516D01*
X102201742Y-58747491D01*
X102218536Y-58815312D01*
X102195998Y-58881447D01*
X102150946Y-58920484D01*
X102142182Y-58924949D01*
X101970213Y-59049890D01*
X101819890Y-59200213D01*
X101694951Y-59372179D01*
X101598444Y-59561585D01*
X101532753Y-59763760D01*
X101531291Y-59772993D01*
X101499500Y-59973713D01*
X101499500Y-60186287D01*
X101532754Y-60396243D01*
X101598107Y-60597379D01*
X101598444Y-60598414D01*
X101694951Y-60787820D01*
X101819890Y-60959786D01*
X101970213Y-61110109D01*
X102142179Y-61235048D01*
X102142181Y-61235049D01*
X102142184Y-61235051D01*
X102331588Y-61331557D01*
X102533757Y-61397246D01*
X102743713Y-61430500D01*
X102743714Y-61430500D01*
X102956286Y-61430500D01*
X102956287Y-61430500D01*
X103166243Y-61397246D01*
X103368412Y-61331557D01*
X103557816Y-61235051D01*
X103644138Y-61172335D01*
X103729786Y-61110109D01*
X103729788Y-61110106D01*
X103729792Y-61110104D01*
X103880104Y-60959792D01*
X103880106Y-60959788D01*
X103880109Y-60959786D01*
X103947515Y-60867007D01*
X104005051Y-60787816D01*
X104009793Y-60778508D01*
X104057763Y-60727711D01*
X104125583Y-60710911D01*
X104191719Y-60733445D01*
X104230763Y-60778500D01*
X104235377Y-60787555D01*
X104360272Y-60959459D01*
X104360276Y-60959464D01*
X104510535Y-61109723D01*
X104510540Y-61109727D01*
X104682442Y-61234620D01*
X104871782Y-61331095D01*
X105073871Y-61396757D01*
X105140000Y-61407231D01*
X105140000Y-60513012D01*
X105197007Y-60545925D01*
X105324174Y-60580000D01*
X105455826Y-60580000D01*
X105582993Y-60545925D01*
X105640000Y-60513012D01*
X105640000Y-61407230D01*
X105706126Y-61396757D01*
X105706129Y-61396757D01*
X105908217Y-61331095D01*
X106097557Y-61234620D01*
X106269459Y-61109727D01*
X106269464Y-61109723D01*
X106419723Y-60959464D01*
X106419727Y-60959459D01*
X106544620Y-60787558D01*
X106549232Y-60778507D01*
X106597205Y-60727709D01*
X106665025Y-60710912D01*
X106731161Y-60733447D01*
X106770204Y-60778504D01*
X106774949Y-60787817D01*
X106899890Y-60959786D01*
X107050213Y-61110109D01*
X107222179Y-61235048D01*
X107222181Y-61235049D01*
X107222184Y-61235051D01*
X107411588Y-61331557D01*
X107613757Y-61397246D01*
X107823713Y-61430500D01*
X107823714Y-61430500D01*
X108036286Y-61430500D01*
X108036287Y-61430500D01*
X108246243Y-61397246D01*
X108448412Y-61331557D01*
X108637816Y-61235051D01*
X108724138Y-61172335D01*
X108809786Y-61110109D01*
X108809788Y-61110106D01*
X108809792Y-61110104D01*
X108960104Y-60959792D01*
X108960106Y-60959788D01*
X108960109Y-60959786D01*
X109085048Y-60787820D01*
X109085047Y-60787820D01*
X109085051Y-60787816D01*
X109089514Y-60779054D01*
X109137488Y-60728259D01*
X109205308Y-60711463D01*
X109271444Y-60733999D01*
X109310486Y-60779056D01*
X109314951Y-60787820D01*
X109439890Y-60959786D01*
X109590213Y-61110109D01*
X109762179Y-61235048D01*
X109762181Y-61235049D01*
X109762184Y-61235051D01*
X109951588Y-61331557D01*
X110153757Y-61397246D01*
X110363713Y-61430500D01*
X110363714Y-61430500D01*
X110576286Y-61430500D01*
X110576287Y-61430500D01*
X110786243Y-61397246D01*
X110988412Y-61331557D01*
X111177816Y-61235051D01*
X111264138Y-61172335D01*
X111349786Y-61110109D01*
X111349788Y-61110106D01*
X111349792Y-61110104D01*
X111500104Y-60959792D01*
X111500106Y-60959788D01*
X111500109Y-60959786D01*
X111625048Y-60787820D01*
X111625047Y-60787820D01*
X111625051Y-60787816D01*
X111629514Y-60779054D01*
X111677488Y-60728259D01*
X111745308Y-60711463D01*
X111811444Y-60733999D01*
X111850486Y-60779056D01*
X111854951Y-60787820D01*
X111979890Y-60959786D01*
X112130213Y-61110109D01*
X112302179Y-61235048D01*
X112302181Y-61235049D01*
X112302184Y-61235051D01*
X112491588Y-61331557D01*
X112693757Y-61397246D01*
X112903713Y-61430500D01*
X112903714Y-61430500D01*
X113116286Y-61430500D01*
X113116287Y-61430500D01*
X113326243Y-61397246D01*
X113528412Y-61331557D01*
X113717816Y-61235051D01*
X113804138Y-61172335D01*
X113889786Y-61110109D01*
X113889788Y-61110106D01*
X113889792Y-61110104D01*
X114040104Y-60959792D01*
X114040106Y-60959788D01*
X114040109Y-60959786D01*
X114165048Y-60787820D01*
X114165047Y-60787820D01*
X114165051Y-60787816D01*
X114169514Y-60779054D01*
X114217488Y-60728259D01*
X114285308Y-60711463D01*
X114351444Y-60733999D01*
X114390486Y-60779056D01*
X114394951Y-60787820D01*
X114519890Y-60959786D01*
X114670213Y-61110109D01*
X114842179Y-61235048D01*
X114842181Y-61235049D01*
X114842184Y-61235051D01*
X115031588Y-61331557D01*
X115233757Y-61397246D01*
X115443713Y-61430500D01*
X115443714Y-61430500D01*
X115656286Y-61430500D01*
X115656287Y-61430500D01*
X115866243Y-61397246D01*
X116068412Y-61331557D01*
X116257816Y-61235051D01*
X116344138Y-61172335D01*
X116429786Y-61110109D01*
X116429788Y-61110106D01*
X116429792Y-61110104D01*
X116580104Y-60959792D01*
X116580106Y-60959788D01*
X116580109Y-60959786D01*
X116705048Y-60787820D01*
X116705047Y-60787820D01*
X116705051Y-60787816D01*
X116801557Y-60598412D01*
X116867246Y-60396243D01*
X116900500Y-60186287D01*
X116900500Y-59973713D01*
X116867246Y-59763757D01*
X116801557Y-59561588D01*
X116705051Y-59372184D01*
X116705049Y-59372181D01*
X116705048Y-59372179D01*
X116580109Y-59200213D01*
X116466569Y-59086673D01*
X116433084Y-59025350D01*
X116438068Y-58955658D01*
X116479940Y-58899725D01*
X116510915Y-58882810D01*
X116642331Y-58833796D01*
X116757546Y-58747546D01*
X116843796Y-58632331D01*
X116894091Y-58497483D01*
X116900500Y-58437873D01*
X116900499Y-57433713D01*
X124359500Y-57433713D01*
X124359500Y-57646287D01*
X124392754Y-57856243D01*
X124432895Y-57979785D01*
X124458444Y-58058414D01*
X124554951Y-58247820D01*
X124679890Y-58419786D01*
X124830213Y-58570109D01*
X125002182Y-58695050D01*
X125010946Y-58699516D01*
X125061742Y-58747491D01*
X125078536Y-58815312D01*
X125055998Y-58881447D01*
X125010946Y-58920484D01*
X125002182Y-58924949D01*
X124830213Y-59049890D01*
X124679890Y-59200213D01*
X124554951Y-59372179D01*
X124458444Y-59561585D01*
X124392753Y-59763760D01*
X124391291Y-59772993D01*
X124359500Y-59973713D01*
X124359500Y-60186287D01*
X124392754Y-60396243D01*
X124458107Y-60597379D01*
X124458444Y-60598414D01*
X124554951Y-60787820D01*
X124679890Y-60959786D01*
X124830213Y-61110109D01*
X125002179Y-61235048D01*
X125002181Y-61235049D01*
X125002184Y-61235051D01*
X125191588Y-61331557D01*
X125393757Y-61397246D01*
X125603713Y-61430500D01*
X125603714Y-61430500D01*
X125816286Y-61430500D01*
X125816287Y-61430500D01*
X126026243Y-61397246D01*
X126228412Y-61331557D01*
X126417816Y-61235051D01*
X126504138Y-61172335D01*
X126589786Y-61110109D01*
X126589788Y-61110106D01*
X126589792Y-61110104D01*
X126740104Y-60959792D01*
X126740106Y-60959788D01*
X126740109Y-60959786D01*
X126807515Y-60867007D01*
X126865051Y-60787816D01*
X126869793Y-60778508D01*
X126917763Y-60727711D01*
X126985583Y-60710911D01*
X127051719Y-60733445D01*
X127090763Y-60778500D01*
X127095377Y-60787555D01*
X127220272Y-60959459D01*
X127220276Y-60959464D01*
X127370535Y-61109723D01*
X127370540Y-61109727D01*
X127542442Y-61234620D01*
X127731782Y-61331095D01*
X127933871Y-61396757D01*
X128000000Y-61407231D01*
X128000000Y-60513012D01*
X128057007Y-60545925D01*
X128184174Y-60580000D01*
X128315826Y-60580000D01*
X128442993Y-60545925D01*
X128500000Y-60513012D01*
X128500000Y-61407230D01*
X128566126Y-61396757D01*
X128566129Y-61396757D01*
X128768217Y-61331095D01*
X128957557Y-61234620D01*
X129129459Y-61109727D01*
X129129464Y-61109723D01*
X129279723Y-60959464D01*
X129279727Y-60959459D01*
X129404620Y-60787558D01*
X129409232Y-60778507D01*
X129457205Y-60727709D01*
X129525025Y-60710912D01*
X129591161Y-60733447D01*
X129630204Y-60778504D01*
X129634949Y-60787817D01*
X129759890Y-60959786D01*
X129910213Y-61110109D01*
X130082179Y-61235048D01*
X130082181Y-61235049D01*
X130082184Y-61235051D01*
X130271588Y-61331557D01*
X130473757Y-61397246D01*
X130683713Y-61430500D01*
X130683714Y-61430500D01*
X130896286Y-61430500D01*
X130896287Y-61430500D01*
X131106243Y-61397246D01*
X131308412Y-61331557D01*
X131497816Y-61235051D01*
X131584138Y-61172335D01*
X131669786Y-61110109D01*
X131669788Y-61110106D01*
X131669792Y-61110104D01*
X131820104Y-60959792D01*
X131820106Y-60959788D01*
X131820109Y-60959786D01*
X131945048Y-60787820D01*
X131945047Y-60787820D01*
X131945051Y-60787816D01*
X131949514Y-60779054D01*
X131997488Y-60728259D01*
X132065308Y-60711463D01*
X132131444Y-60733999D01*
X132170486Y-60779056D01*
X132174951Y-60787820D01*
X132299890Y-60959786D01*
X132450213Y-61110109D01*
X132622179Y-61235048D01*
X132622181Y-61235049D01*
X132622184Y-61235051D01*
X132811588Y-61331557D01*
X133013757Y-61397246D01*
X133223713Y-61430500D01*
X133223714Y-61430500D01*
X133436286Y-61430500D01*
X133436287Y-61430500D01*
X133646243Y-61397246D01*
X133848412Y-61331557D01*
X134037816Y-61235051D01*
X134124138Y-61172335D01*
X134209786Y-61110109D01*
X134209788Y-61110106D01*
X134209792Y-61110104D01*
X134360104Y-60959792D01*
X134360106Y-60959788D01*
X134360109Y-60959786D01*
X134485048Y-60787820D01*
X134485047Y-60787820D01*
X134485051Y-60787816D01*
X134489514Y-60779054D01*
X134537488Y-60728259D01*
X134605308Y-60711463D01*
X134671444Y-60733999D01*
X134710486Y-60779056D01*
X134714951Y-60787820D01*
X134839890Y-60959786D01*
X134990213Y-61110109D01*
X135162179Y-61235048D01*
X135162181Y-61235049D01*
X135162184Y-61235051D01*
X135351588Y-61331557D01*
X135553757Y-61397246D01*
X135763713Y-61430500D01*
X135763714Y-61430500D01*
X135976286Y-61430500D01*
X135976287Y-61430500D01*
X136186243Y-61397246D01*
X136388412Y-61331557D01*
X136577816Y-61235051D01*
X136664138Y-61172335D01*
X136749786Y-61110109D01*
X136749788Y-61110106D01*
X136749792Y-61110104D01*
X136900104Y-60959792D01*
X136900106Y-60959788D01*
X136900109Y-60959786D01*
X137025048Y-60787820D01*
X137025047Y-60787820D01*
X137025051Y-60787816D01*
X137029514Y-60779054D01*
X137077488Y-60728259D01*
X137145308Y-60711463D01*
X137211444Y-60733999D01*
X137250486Y-60779056D01*
X137254951Y-60787820D01*
X137379890Y-60959786D01*
X137530213Y-61110109D01*
X137702179Y-61235048D01*
X137702181Y-61235049D01*
X137702184Y-61235051D01*
X137891588Y-61331557D01*
X138093757Y-61397246D01*
X138303713Y-61430500D01*
X138303714Y-61430500D01*
X138516286Y-61430500D01*
X138516287Y-61430500D01*
X138726243Y-61397246D01*
X138928412Y-61331557D01*
X139117816Y-61235051D01*
X139204138Y-61172335D01*
X139289786Y-61110109D01*
X139289788Y-61110106D01*
X139289792Y-61110104D01*
X139440104Y-60959792D01*
X139440106Y-60959788D01*
X139440109Y-60959786D01*
X139565048Y-60787820D01*
X139565047Y-60787820D01*
X139565051Y-60787816D01*
X139661557Y-60598412D01*
X139727246Y-60396243D01*
X139760500Y-60186287D01*
X139760500Y-59973713D01*
X139727246Y-59763757D01*
X139661557Y-59561588D01*
X139565051Y-59372184D01*
X139565049Y-59372181D01*
X139565048Y-59372179D01*
X139440109Y-59200213D01*
X139326569Y-59086673D01*
X139293084Y-59025350D01*
X139298068Y-58955658D01*
X139339940Y-58899725D01*
X139370915Y-58882810D01*
X139502331Y-58833796D01*
X139617546Y-58747546D01*
X139703796Y-58632331D01*
X139754091Y-58497483D01*
X139760500Y-58437873D01*
X139760499Y-56642128D01*
X139754091Y-56582517D01*
X139753743Y-56581585D01*
X139703797Y-56447671D01*
X139703793Y-56447664D01*
X139617547Y-56332455D01*
X139617544Y-56332452D01*
X139502335Y-56246206D01*
X139502328Y-56246202D01*
X139367482Y-56195908D01*
X139367483Y-56195908D01*
X139307883Y-56189501D01*
X139307881Y-56189500D01*
X139307873Y-56189500D01*
X139307864Y-56189500D01*
X137512129Y-56189500D01*
X137512123Y-56189501D01*
X137452516Y-56195908D01*
X137317671Y-56246202D01*
X137317664Y-56246206D01*
X137202455Y-56332452D01*
X137202452Y-56332455D01*
X137116206Y-56447664D01*
X137116203Y-56447669D01*
X137067189Y-56579083D01*
X137025317Y-56635016D01*
X136959853Y-56659433D01*
X136891580Y-56644581D01*
X136863326Y-56623430D01*
X136749786Y-56509890D01*
X136577820Y-56384951D01*
X136388414Y-56288444D01*
X136388413Y-56288443D01*
X136388412Y-56288443D01*
X136186243Y-56222754D01*
X136186241Y-56222753D01*
X136186240Y-56222753D01*
X136024957Y-56197208D01*
X135976287Y-56189500D01*
X135763713Y-56189500D01*
X135715042Y-56197208D01*
X135553760Y-56222753D01*
X135351585Y-56288444D01*
X135162179Y-56384951D01*
X134990213Y-56509890D01*
X134839890Y-56660213D01*
X134714949Y-56832182D01*
X134710484Y-56840946D01*
X134662509Y-56891742D01*
X134594688Y-56908536D01*
X134528553Y-56885998D01*
X134489516Y-56840946D01*
X134485050Y-56832182D01*
X134360109Y-56660213D01*
X134209786Y-56509890D01*
X134037820Y-56384951D01*
X133848414Y-56288444D01*
X133848413Y-56288443D01*
X133848412Y-56288443D01*
X133646243Y-56222754D01*
X133646241Y-56222753D01*
X133646240Y-56222753D01*
X133484957Y-56197208D01*
X133436287Y-56189500D01*
X133223713Y-56189500D01*
X133175042Y-56197208D01*
X133013760Y-56222753D01*
X132811585Y-56288444D01*
X132622179Y-56384951D01*
X132450213Y-56509890D01*
X132299890Y-56660213D01*
X132174949Y-56832182D01*
X132170484Y-56840946D01*
X132122509Y-56891742D01*
X132054688Y-56908536D01*
X131988553Y-56885998D01*
X131949516Y-56840946D01*
X131945050Y-56832182D01*
X131820109Y-56660213D01*
X131669786Y-56509890D01*
X131497820Y-56384951D01*
X131308414Y-56288444D01*
X131308413Y-56288443D01*
X131308412Y-56288443D01*
X131106243Y-56222754D01*
X131106241Y-56222753D01*
X131106240Y-56222753D01*
X130944957Y-56197208D01*
X130896287Y-56189500D01*
X130683713Y-56189500D01*
X130635042Y-56197208D01*
X130473760Y-56222753D01*
X130271585Y-56288444D01*
X130082179Y-56384951D01*
X129910213Y-56509890D01*
X129759890Y-56660213D01*
X129634949Y-56832182D01*
X129630202Y-56841499D01*
X129582227Y-56892293D01*
X129514405Y-56909087D01*
X129448271Y-56886548D01*
X129409234Y-56841495D01*
X129404622Y-56832444D01*
X129279727Y-56660540D01*
X129279723Y-56660535D01*
X129129464Y-56510276D01*
X129129459Y-56510272D01*
X128957557Y-56385379D01*
X128768215Y-56288903D01*
X128566124Y-56223241D01*
X128500000Y-56212768D01*
X128500000Y-57106988D01*
X128442993Y-57074075D01*
X128315826Y-57040000D01*
X128184174Y-57040000D01*
X128057007Y-57074075D01*
X128000000Y-57106988D01*
X128000000Y-56212768D01*
X127999999Y-56212768D01*
X127933875Y-56223241D01*
X127731784Y-56288903D01*
X127542442Y-56385379D01*
X127370540Y-56510272D01*
X127370535Y-56510276D01*
X127220276Y-56660535D01*
X127220272Y-56660540D01*
X127095378Y-56832443D01*
X127090762Y-56841502D01*
X127042784Y-56892295D01*
X126974963Y-56909087D01*
X126908829Y-56886546D01*
X126869794Y-56841493D01*
X126865051Y-56832184D01*
X126865049Y-56832181D01*
X126865048Y-56832179D01*
X126740109Y-56660213D01*
X126589786Y-56509890D01*
X126417820Y-56384951D01*
X126228414Y-56288444D01*
X126228413Y-56288443D01*
X126228412Y-56288443D01*
X126026243Y-56222754D01*
X126026241Y-56222753D01*
X126026240Y-56222753D01*
X125864957Y-56197208D01*
X125816287Y-56189500D01*
X125603713Y-56189500D01*
X125555042Y-56197208D01*
X125393760Y-56222753D01*
X125191585Y-56288444D01*
X125002179Y-56384951D01*
X124830213Y-56509890D01*
X124679890Y-56660213D01*
X124554951Y-56832179D01*
X124458444Y-57021585D01*
X124392753Y-57223760D01*
X124391291Y-57232993D01*
X124359500Y-57433713D01*
X116900499Y-57433713D01*
X116900499Y-56642128D01*
X116894091Y-56582517D01*
X116893743Y-56581585D01*
X116843797Y-56447671D01*
X116843793Y-56447664D01*
X116757547Y-56332455D01*
X116757544Y-56332452D01*
X116642335Y-56246206D01*
X116642328Y-56246202D01*
X116507482Y-56195908D01*
X116507483Y-56195908D01*
X116447883Y-56189501D01*
X116447881Y-56189500D01*
X116447873Y-56189500D01*
X116447864Y-56189500D01*
X114652129Y-56189500D01*
X114652123Y-56189501D01*
X114592516Y-56195908D01*
X114457671Y-56246202D01*
X114457664Y-56246206D01*
X114342455Y-56332452D01*
X114342452Y-56332455D01*
X114256206Y-56447664D01*
X114256203Y-56447669D01*
X114207189Y-56579083D01*
X114165317Y-56635016D01*
X114099853Y-56659433D01*
X114031580Y-56644581D01*
X114003326Y-56623430D01*
X113889786Y-56509890D01*
X113717820Y-56384951D01*
X113528414Y-56288444D01*
X113528413Y-56288443D01*
X113528412Y-56288443D01*
X113326243Y-56222754D01*
X113326241Y-56222753D01*
X113326240Y-56222753D01*
X113164957Y-56197208D01*
X113116287Y-56189500D01*
X112903713Y-56189500D01*
X112855042Y-56197208D01*
X112693760Y-56222753D01*
X112491585Y-56288444D01*
X112302179Y-56384951D01*
X112130213Y-56509890D01*
X111979890Y-56660213D01*
X111854949Y-56832182D01*
X111850484Y-56840946D01*
X111802509Y-56891742D01*
X111734688Y-56908536D01*
X111668553Y-56885998D01*
X111629516Y-56840946D01*
X111625050Y-56832182D01*
X111500109Y-56660213D01*
X111349786Y-56509890D01*
X111177820Y-56384951D01*
X110988414Y-56288444D01*
X110988413Y-56288443D01*
X110988412Y-56288443D01*
X110786243Y-56222754D01*
X110786241Y-56222753D01*
X110786240Y-56222753D01*
X110624957Y-56197208D01*
X110576287Y-56189500D01*
X110363713Y-56189500D01*
X110315042Y-56197208D01*
X110153760Y-56222753D01*
X109951585Y-56288444D01*
X109762179Y-56384951D01*
X109590213Y-56509890D01*
X109439890Y-56660213D01*
X109314949Y-56832182D01*
X109310484Y-56840946D01*
X109262509Y-56891742D01*
X109194688Y-56908536D01*
X109128553Y-56885998D01*
X109089516Y-56840946D01*
X109085050Y-56832182D01*
X108960109Y-56660213D01*
X108809786Y-56509890D01*
X108637820Y-56384951D01*
X108448414Y-56288444D01*
X108448413Y-56288443D01*
X108448412Y-56288443D01*
X108246243Y-56222754D01*
X108246241Y-56222753D01*
X108246240Y-56222753D01*
X108084957Y-56197208D01*
X108036287Y-56189500D01*
X107823713Y-56189500D01*
X107775042Y-56197208D01*
X107613760Y-56222753D01*
X107411585Y-56288444D01*
X107222179Y-56384951D01*
X107050213Y-56509890D01*
X106899890Y-56660213D01*
X106774949Y-56832182D01*
X106770202Y-56841499D01*
X106722227Y-56892293D01*
X106654405Y-56909087D01*
X106588271Y-56886548D01*
X106549234Y-56841495D01*
X106544622Y-56832444D01*
X106419727Y-56660540D01*
X106419723Y-56660535D01*
X106269464Y-56510276D01*
X106269459Y-56510272D01*
X106097557Y-56385379D01*
X105908217Y-56288904D01*
X105833450Y-56264611D01*
X105775774Y-56225173D01*
X105748576Y-56160815D01*
X105760491Y-56091968D01*
X105807735Y-56040493D01*
X105824316Y-56032119D01*
X105879173Y-56009397D01*
X105879176Y-56009395D01*
X105879179Y-56009394D01*
X106010289Y-55921789D01*
X106121789Y-55810289D01*
X106209394Y-55679179D01*
X106269737Y-55533497D01*
X106300500Y-55378842D01*
X106300500Y-55221158D01*
X106300500Y-55221155D01*
X106300499Y-55221153D01*
X106280543Y-55120827D01*
X106269737Y-55066503D01*
X106237929Y-54989711D01*
X106209397Y-54920827D01*
X106209390Y-54920814D01*
X106121789Y-54789711D01*
X106121786Y-54789707D01*
X106010292Y-54678213D01*
X106010288Y-54678210D01*
X105879185Y-54590609D01*
X105879172Y-54590602D01*
X105733501Y-54530264D01*
X105733489Y-54530261D01*
X105578845Y-54499500D01*
X105578842Y-54499500D01*
X105421158Y-54499500D01*
X105421155Y-54499500D01*
X105266510Y-54530261D01*
X105266498Y-54530264D01*
X105120827Y-54590602D01*
X105120814Y-54590609D01*
X104989712Y-54678209D01*
X104968422Y-54699500D01*
X104929739Y-54738182D01*
X104868419Y-54771666D01*
X104842060Y-54774500D01*
X100264960Y-54774500D01*
X100217508Y-54765061D01*
X100133501Y-54730264D01*
X100133489Y-54730261D01*
X99978845Y-54699500D01*
X99978842Y-54699500D01*
X99821158Y-54699500D01*
X99821155Y-54699500D01*
X99666510Y-54730261D01*
X99666498Y-54730264D01*
X99520827Y-54790602D01*
X99520814Y-54790609D01*
X99389711Y-54878210D01*
X99389707Y-54878213D01*
X99278213Y-54989707D01*
X99278210Y-54989711D01*
X99190609Y-55120814D01*
X99190602Y-55120827D01*
X99130264Y-55266498D01*
X99130261Y-55266510D01*
X99099500Y-55421153D01*
X71918646Y-55421153D01*
X71949384Y-55378846D01*
X71976023Y-55342181D01*
X72030048Y-55267820D01*
X72030047Y-55267820D01*
X72030051Y-55267816D01*
X72126557Y-55078412D01*
X72192246Y-54876243D01*
X72225500Y-54666287D01*
X72225500Y-54453713D01*
X72192246Y-54243757D01*
X72126557Y-54041588D01*
X72030051Y-53852184D01*
X72030049Y-53852181D01*
X72030048Y-53852179D01*
X71905109Y-53680213D01*
X71754786Y-53529890D01*
X71582820Y-53404951D01*
X71582115Y-53404591D01*
X71574054Y-53400485D01*
X71523259Y-53352512D01*
X71506463Y-53284692D01*
X71528999Y-53218556D01*
X71574054Y-53179515D01*
X71582816Y-53175051D01*
X71604789Y-53159086D01*
X71754786Y-53050109D01*
X71754788Y-53050106D01*
X71754792Y-53050104D01*
X71905104Y-52899792D01*
X71905106Y-52899788D01*
X71905109Y-52899786D01*
X72030048Y-52727820D01*
X72030047Y-52727820D01*
X72030051Y-52727816D01*
X72126557Y-52538412D01*
X72132676Y-52519576D01*
X72135406Y-52511179D01*
X72174845Y-52453505D01*
X72239204Y-52426308D01*
X72253336Y-52425500D01*
X79925500Y-52425500D01*
X79992539Y-52445185D01*
X80038294Y-52497989D01*
X80049500Y-52549500D01*
X80049500Y-54037870D01*
X80049501Y-54037876D01*
X80055908Y-54097483D01*
X80106202Y-54232328D01*
X80106206Y-54232335D01*
X80192452Y-54347544D01*
X80192455Y-54347547D01*
X80307664Y-54433793D01*
X80307671Y-54433797D01*
X80442517Y-54484091D01*
X80442516Y-54484091D01*
X80449444Y-54484835D01*
X80502127Y-54490500D01*
X82297872Y-54490499D01*
X82357483Y-54484091D01*
X82492331Y-54433796D01*
X82607546Y-54347546D01*
X82693796Y-54232331D01*
X82744091Y-54097483D01*
X82750500Y-54037873D01*
X82750499Y-52624499D01*
X82770184Y-52557461D01*
X82822987Y-52511706D01*
X82874499Y-52500500D01*
X82878844Y-52500500D01*
X82878845Y-52500499D01*
X83033497Y-52469737D01*
X83179179Y-52409394D01*
X83310289Y-52321789D01*
X83421789Y-52210289D01*
X83509394Y-52079179D01*
X83569737Y-51933497D01*
X83600500Y-51778842D01*
X83600500Y-51621158D01*
X83600500Y-51621155D01*
X83600499Y-51621153D01*
X83569738Y-51466510D01*
X83569737Y-51466503D01*
X83569735Y-51466498D01*
X83509397Y-51320827D01*
X83509390Y-51320814D01*
X83421789Y-51189711D01*
X83421786Y-51189707D01*
X83310292Y-51078213D01*
X83310288Y-51078210D01*
X83179185Y-50990609D01*
X83179172Y-50990602D01*
X83033501Y-50930264D01*
X83033489Y-50930261D01*
X82878845Y-50899500D01*
X82878842Y-50899500D01*
X82865083Y-50899500D01*
X82798044Y-50879815D01*
X82752289Y-50827011D01*
X82742345Y-50757853D01*
X82742610Y-50756102D01*
X82750500Y-50706286D01*
X82750500Y-50493713D01*
X82717246Y-50283760D01*
X82717246Y-50283757D01*
X82651557Y-50081588D01*
X82555051Y-49892184D01*
X82555049Y-49892181D01*
X82555048Y-49892179D01*
X82430109Y-49720213D01*
X82279790Y-49569894D01*
X82279785Y-49569890D01*
X82114519Y-49449818D01*
X82071853Y-49394489D01*
X82065874Y-49324875D01*
X82098479Y-49263080D01*
X82159318Y-49228723D01*
X82187404Y-49225500D01*
X86347019Y-49225500D01*
X86414058Y-49245185D01*
X86457503Y-49293203D01*
X86464950Y-49307819D01*
X86589890Y-49479786D01*
X86740213Y-49630109D01*
X86912179Y-49755048D01*
X86912181Y-49755049D01*
X86912184Y-49755051D01*
X87101588Y-49851557D01*
X87303757Y-49917246D01*
X87513713Y-49950500D01*
X87513714Y-49950500D01*
X87726286Y-49950500D01*
X87726287Y-49950500D01*
X87936243Y-49917246D01*
X88138412Y-49851557D01*
X88327816Y-49755051D01*
X88375774Y-49720208D01*
X88499786Y-49630109D01*
X88499788Y-49630106D01*
X88499792Y-49630104D01*
X88650104Y-49479792D01*
X88650106Y-49479788D01*
X88650109Y-49479786D01*
X88775048Y-49307820D01*
X88775049Y-49307819D01*
X88775051Y-49307816D01*
X88779514Y-49299054D01*
X88827488Y-49248259D01*
X88895308Y-49231463D01*
X88961444Y-49253999D01*
X89000486Y-49299056D01*
X89004951Y-49307820D01*
X89129890Y-49479786D01*
X89280213Y-49630109D01*
X89452179Y-49755048D01*
X89452181Y-49755049D01*
X89452184Y-49755051D01*
X89641588Y-49851557D01*
X89843757Y-49917246D01*
X90053713Y-49950500D01*
X90053714Y-49950500D01*
X90266286Y-49950500D01*
X90266287Y-49950500D01*
X90476243Y-49917246D01*
X90678412Y-49851557D01*
X90867816Y-49755051D01*
X90915774Y-49720208D01*
X91039786Y-49630109D01*
X91039788Y-49630106D01*
X91039792Y-49630104D01*
X91190104Y-49479792D01*
X91190106Y-49479788D01*
X91190109Y-49479786D01*
X91315048Y-49307820D01*
X91315049Y-49307819D01*
X91315051Y-49307816D01*
X91319514Y-49299054D01*
X91367488Y-49248259D01*
X91435308Y-49231463D01*
X91501444Y-49253999D01*
X91540486Y-49299056D01*
X91544951Y-49307820D01*
X91669890Y-49479786D01*
X91820213Y-49630109D01*
X91992179Y-49755048D01*
X91992181Y-49755049D01*
X91992184Y-49755051D01*
X92181588Y-49851557D01*
X92383757Y-49917246D01*
X92593713Y-49950500D01*
X92593714Y-49950500D01*
X92806286Y-49950500D01*
X92806287Y-49950500D01*
X93016243Y-49917246D01*
X93218412Y-49851557D01*
X93407816Y-49755051D01*
X93455774Y-49720208D01*
X93579786Y-49630109D01*
X93579788Y-49630106D01*
X93579792Y-49630104D01*
X93730104Y-49479792D01*
X93730106Y-49479788D01*
X93730109Y-49479786D01*
X93836392Y-49333498D01*
X93855051Y-49307816D01*
X93859793Y-49298508D01*
X93907763Y-49247711D01*
X93975583Y-49230911D01*
X94041719Y-49253445D01*
X94080763Y-49298500D01*
X94085377Y-49307555D01*
X94210272Y-49479459D01*
X94210276Y-49479464D01*
X94360535Y-49629723D01*
X94360540Y-49629727D01*
X94532442Y-49754620D01*
X94721782Y-49851095D01*
X94923871Y-49916757D01*
X94990000Y-49927231D01*
X94990000Y-49033012D01*
X95047007Y-49065925D01*
X95174174Y-49100000D01*
X95305826Y-49100000D01*
X95432993Y-49065925D01*
X95490000Y-49033012D01*
X95490000Y-49927230D01*
X95556126Y-49916757D01*
X95556129Y-49916757D01*
X95758217Y-49851095D01*
X95947557Y-49754620D01*
X96119459Y-49629727D01*
X96119464Y-49629723D01*
X96269723Y-49479464D01*
X96269727Y-49479459D01*
X96394620Y-49307558D01*
X96399232Y-49298507D01*
X96447205Y-49247709D01*
X96515025Y-49230912D01*
X96581161Y-49253447D01*
X96620204Y-49298504D01*
X96624949Y-49307817D01*
X96749890Y-49479786D01*
X96900213Y-49630109D01*
X97072179Y-49755048D01*
X97072181Y-49755049D01*
X97072184Y-49755051D01*
X97261588Y-49851557D01*
X97463757Y-49917246D01*
X97673713Y-49950500D01*
X97673714Y-49950500D01*
X97886286Y-49950500D01*
X97886287Y-49950500D01*
X98096243Y-49917246D01*
X98298412Y-49851557D01*
X98487816Y-49755051D01*
X98535774Y-49720208D01*
X98659786Y-49630109D01*
X98659788Y-49630106D01*
X98659792Y-49630104D01*
X98810104Y-49479792D01*
X98810106Y-49479788D01*
X98810109Y-49479786D01*
X98916392Y-49333498D01*
X98935051Y-49307816D01*
X98939793Y-49298508D01*
X98987763Y-49247711D01*
X99055583Y-49230911D01*
X99121719Y-49253445D01*
X99160763Y-49298500D01*
X99165377Y-49307555D01*
X99290272Y-49479459D01*
X99290276Y-49479464D01*
X99440535Y-49629723D01*
X99440540Y-49629727D01*
X99612442Y-49754620D01*
X99801782Y-49851095D01*
X100003871Y-49916757D01*
X100070000Y-49927231D01*
X100070000Y-49033012D01*
X100127007Y-49065925D01*
X100254174Y-49100000D01*
X100385826Y-49100000D01*
X100512993Y-49065925D01*
X100570000Y-49033012D01*
X100570000Y-49927230D01*
X100636126Y-49916757D01*
X100636129Y-49916757D01*
X100838217Y-49851095D01*
X101027557Y-49754620D01*
X101199459Y-49629727D01*
X101199464Y-49629723D01*
X101349723Y-49479464D01*
X101349727Y-49479459D01*
X101474620Y-49307558D01*
X101479232Y-49298507D01*
X101527205Y-49247709D01*
X101595025Y-49230912D01*
X101661161Y-49253447D01*
X101700204Y-49298504D01*
X101704949Y-49307817D01*
X101829890Y-49479786D01*
X101980213Y-49630109D01*
X102152179Y-49755048D01*
X102152181Y-49755049D01*
X102152184Y-49755051D01*
X102341588Y-49851557D01*
X102543757Y-49917246D01*
X102753713Y-49950500D01*
X102753714Y-49950500D01*
X102966286Y-49950500D01*
X102966287Y-49950500D01*
X103176243Y-49917246D01*
X103378412Y-49851557D01*
X103567816Y-49755051D01*
X103615774Y-49720208D01*
X103739786Y-49630109D01*
X103739788Y-49630106D01*
X103739792Y-49630104D01*
X103890104Y-49479792D01*
X103890106Y-49479788D01*
X103890109Y-49479786D01*
X104015048Y-49307820D01*
X104015049Y-49307819D01*
X104015051Y-49307816D01*
X104019514Y-49299054D01*
X104067488Y-49248259D01*
X104135308Y-49231463D01*
X104201444Y-49253999D01*
X104240486Y-49299056D01*
X104244951Y-49307820D01*
X104369890Y-49479786D01*
X104520213Y-49630109D01*
X104692179Y-49755048D01*
X104692181Y-49755049D01*
X104692184Y-49755051D01*
X104881588Y-49851557D01*
X105083757Y-49917246D01*
X105293713Y-49950500D01*
X105293714Y-49950500D01*
X105506286Y-49950500D01*
X105506287Y-49950500D01*
X105716243Y-49917246D01*
X105918412Y-49851557D01*
X106107816Y-49755051D01*
X106155774Y-49720208D01*
X106279786Y-49630109D01*
X106279788Y-49630106D01*
X106279792Y-49630104D01*
X106430104Y-49479792D01*
X106430106Y-49479788D01*
X106430109Y-49479786D01*
X106555048Y-49307820D01*
X106555049Y-49307819D01*
X106555051Y-49307816D01*
X106559514Y-49299054D01*
X106607488Y-49248259D01*
X106675308Y-49231463D01*
X106741444Y-49253999D01*
X106780486Y-49299056D01*
X106784951Y-49307820D01*
X106909890Y-49479786D01*
X107060213Y-49630109D01*
X107232179Y-49755048D01*
X107232181Y-49755049D01*
X107232184Y-49755051D01*
X107421588Y-49851557D01*
X107623757Y-49917246D01*
X107833713Y-49950500D01*
X107833714Y-49950500D01*
X108046286Y-49950500D01*
X108046287Y-49950500D01*
X108256243Y-49917246D01*
X108458412Y-49851557D01*
X108647816Y-49755051D01*
X108695774Y-49720208D01*
X108819786Y-49630109D01*
X108819788Y-49630106D01*
X108819792Y-49630104D01*
X108970104Y-49479792D01*
X108970106Y-49479788D01*
X108970109Y-49479786D01*
X109095048Y-49307820D01*
X109095049Y-49307819D01*
X109095051Y-49307816D01*
X109099514Y-49299054D01*
X109147488Y-49248259D01*
X109215308Y-49231463D01*
X109281444Y-49253999D01*
X109320486Y-49299056D01*
X109324951Y-49307820D01*
X109449890Y-49479786D01*
X109600213Y-49630109D01*
X109772179Y-49755048D01*
X109772181Y-49755049D01*
X109772184Y-49755051D01*
X109961588Y-49851557D01*
X110163757Y-49917246D01*
X110373713Y-49950500D01*
X110373714Y-49950500D01*
X110586286Y-49950500D01*
X110586287Y-49950500D01*
X110796243Y-49917246D01*
X110998412Y-49851557D01*
X111187816Y-49755051D01*
X111235774Y-49720208D01*
X111359786Y-49630109D01*
X111359788Y-49630106D01*
X111359792Y-49630104D01*
X111510104Y-49479792D01*
X111510106Y-49479788D01*
X111510109Y-49479786D01*
X111616392Y-49333498D01*
X111635051Y-49307816D01*
X111639793Y-49298508D01*
X111687763Y-49247711D01*
X111755583Y-49230911D01*
X111821719Y-49253445D01*
X111860763Y-49298500D01*
X111865377Y-49307555D01*
X111990272Y-49479459D01*
X111990276Y-49479464D01*
X112140535Y-49629723D01*
X112140540Y-49629727D01*
X112312442Y-49754620D01*
X112501782Y-49851095D01*
X112703871Y-49916757D01*
X112770000Y-49927231D01*
X112770000Y-49033012D01*
X112827007Y-49065925D01*
X112954174Y-49100000D01*
X113085826Y-49100000D01*
X113212993Y-49065925D01*
X113270000Y-49033012D01*
X113270000Y-49927231D01*
X113336126Y-49916757D01*
X113336129Y-49916757D01*
X113538217Y-49851095D01*
X113727557Y-49754620D01*
X113899459Y-49629727D01*
X113899464Y-49629723D01*
X114049723Y-49479464D01*
X114049727Y-49479459D01*
X114174620Y-49307558D01*
X114179232Y-49298507D01*
X114227205Y-49247709D01*
X114295025Y-49230912D01*
X114361161Y-49253447D01*
X114400204Y-49298504D01*
X114404949Y-49307817D01*
X114529890Y-49479786D01*
X114680213Y-49630109D01*
X114852179Y-49755048D01*
X114852181Y-49755049D01*
X114852184Y-49755051D01*
X115041588Y-49851557D01*
X115243757Y-49917246D01*
X115453713Y-49950500D01*
X115453714Y-49950500D01*
X115666286Y-49950500D01*
X115666287Y-49950500D01*
X115876243Y-49917246D01*
X116078412Y-49851557D01*
X116267816Y-49755051D01*
X116315774Y-49720208D01*
X116439786Y-49630109D01*
X116439788Y-49630106D01*
X116439792Y-49630104D01*
X116590104Y-49479792D01*
X116590106Y-49479788D01*
X116590109Y-49479786D01*
X116715048Y-49307820D01*
X116715049Y-49307819D01*
X116715051Y-49307816D01*
X116719514Y-49299054D01*
X116767488Y-49248259D01*
X116835308Y-49231463D01*
X116901444Y-49253999D01*
X116940486Y-49299056D01*
X116944951Y-49307820D01*
X117069890Y-49479786D01*
X117220213Y-49630109D01*
X117392179Y-49755048D01*
X117392181Y-49755049D01*
X117392184Y-49755051D01*
X117581588Y-49851557D01*
X117783757Y-49917246D01*
X117993713Y-49950500D01*
X117993714Y-49950500D01*
X118206286Y-49950500D01*
X118206287Y-49950500D01*
X118416243Y-49917246D01*
X118618412Y-49851557D01*
X118807816Y-49755051D01*
X118855774Y-49720208D01*
X118979786Y-49630109D01*
X118979788Y-49630106D01*
X118979792Y-49630104D01*
X119130104Y-49479792D01*
X119130106Y-49479788D01*
X119130109Y-49479786D01*
X119236392Y-49333498D01*
X119255051Y-49307816D01*
X119259793Y-49298508D01*
X119307763Y-49247711D01*
X119375583Y-49230911D01*
X119441719Y-49253445D01*
X119480763Y-49298500D01*
X119485377Y-49307555D01*
X119610272Y-49479459D01*
X119610276Y-49479464D01*
X119760535Y-49629723D01*
X119760540Y-49629727D01*
X119932442Y-49754620D01*
X120121782Y-49851095D01*
X120323871Y-49916757D01*
X120390000Y-49927231D01*
X120390000Y-49033012D01*
X120447007Y-49065925D01*
X120574174Y-49100000D01*
X120705826Y-49100000D01*
X120832993Y-49065925D01*
X120890000Y-49033012D01*
X120890000Y-49927231D01*
X120956126Y-49916757D01*
X120956129Y-49916757D01*
X121158217Y-49851095D01*
X121347557Y-49754620D01*
X121519459Y-49629727D01*
X121519464Y-49629723D01*
X121669723Y-49479464D01*
X121669727Y-49479459D01*
X121794620Y-49307558D01*
X121799232Y-49298507D01*
X121847205Y-49247709D01*
X121915025Y-49230912D01*
X121981161Y-49253447D01*
X122020204Y-49298504D01*
X122024949Y-49307817D01*
X122149890Y-49479786D01*
X122300213Y-49630109D01*
X122472179Y-49755048D01*
X122472181Y-49755049D01*
X122472184Y-49755051D01*
X122661588Y-49851557D01*
X122863757Y-49917246D01*
X123073713Y-49950500D01*
X123073714Y-49950500D01*
X123286286Y-49950500D01*
X123286287Y-49950500D01*
X123496243Y-49917246D01*
X123698412Y-49851557D01*
X123887816Y-49755051D01*
X123935774Y-49720208D01*
X124059786Y-49630109D01*
X124059788Y-49630106D01*
X124059792Y-49630104D01*
X124210104Y-49479792D01*
X124210106Y-49479788D01*
X124210109Y-49479786D01*
X124335048Y-49307820D01*
X124335049Y-49307819D01*
X124335051Y-49307816D01*
X124339514Y-49299054D01*
X124387488Y-49248259D01*
X124455308Y-49231463D01*
X124521444Y-49253999D01*
X124560486Y-49299056D01*
X124564951Y-49307820D01*
X124689890Y-49479786D01*
X124840213Y-49630109D01*
X125012179Y-49755048D01*
X125012181Y-49755049D01*
X125012184Y-49755051D01*
X125201588Y-49851557D01*
X125403757Y-49917246D01*
X125613713Y-49950500D01*
X125613714Y-49950500D01*
X125826286Y-49950500D01*
X125826287Y-49950500D01*
X126036243Y-49917246D01*
X126238412Y-49851557D01*
X126427816Y-49755051D01*
X126475774Y-49720208D01*
X126599786Y-49630109D01*
X126599788Y-49630106D01*
X126599792Y-49630104D01*
X126750104Y-49479792D01*
X126750106Y-49479788D01*
X126750109Y-49479786D01*
X126875048Y-49307820D01*
X126875049Y-49307819D01*
X126875051Y-49307816D01*
X126879514Y-49299054D01*
X126927488Y-49248259D01*
X126995308Y-49231463D01*
X127061444Y-49253999D01*
X127100486Y-49299056D01*
X127104951Y-49307820D01*
X127229890Y-49479786D01*
X127380213Y-49630109D01*
X127552179Y-49755048D01*
X127552181Y-49755049D01*
X127552184Y-49755051D01*
X127741588Y-49851557D01*
X127943757Y-49917246D01*
X128153713Y-49950500D01*
X128153714Y-49950500D01*
X128366286Y-49950500D01*
X128366287Y-49950500D01*
X128576243Y-49917246D01*
X128778412Y-49851557D01*
X128967816Y-49755051D01*
X129015774Y-49720208D01*
X129139786Y-49630109D01*
X129139788Y-49630106D01*
X129139792Y-49630104D01*
X129290104Y-49479792D01*
X129290106Y-49479788D01*
X129290109Y-49479786D01*
X129396392Y-49333498D01*
X129415051Y-49307816D01*
X129419793Y-49298508D01*
X129467763Y-49247711D01*
X129535583Y-49230911D01*
X129601719Y-49253445D01*
X129640763Y-49298500D01*
X129645377Y-49307555D01*
X129770272Y-49479459D01*
X129770276Y-49479464D01*
X129920535Y-49629723D01*
X129920540Y-49629727D01*
X130092442Y-49754620D01*
X130281782Y-49851095D01*
X130483871Y-49916757D01*
X130550000Y-49927231D01*
X130550000Y-49033012D01*
X130607007Y-49065925D01*
X130734174Y-49100000D01*
X130865826Y-49100000D01*
X130992993Y-49065925D01*
X131050000Y-49033012D01*
X131050000Y-49927230D01*
X131116126Y-49916757D01*
X131116129Y-49916757D01*
X131318217Y-49851095D01*
X131507557Y-49754620D01*
X131679459Y-49629727D01*
X131679464Y-49629723D01*
X131829723Y-49479464D01*
X131829727Y-49479459D01*
X131954620Y-49307558D01*
X131959232Y-49298507D01*
X132007205Y-49247709D01*
X132075025Y-49230912D01*
X132141161Y-49253447D01*
X132180204Y-49298504D01*
X132184949Y-49307817D01*
X132309890Y-49479786D01*
X132460213Y-49630109D01*
X132632179Y-49755048D01*
X132632181Y-49755049D01*
X132632184Y-49755051D01*
X132821588Y-49851557D01*
X133023757Y-49917246D01*
X133233713Y-49950500D01*
X133233714Y-49950500D01*
X133446286Y-49950500D01*
X133446287Y-49950500D01*
X133656243Y-49917246D01*
X133858412Y-49851557D01*
X134047816Y-49755051D01*
X134095774Y-49720208D01*
X134219786Y-49630109D01*
X134219788Y-49630106D01*
X134219792Y-49630104D01*
X134370104Y-49479792D01*
X134370106Y-49479788D01*
X134370109Y-49479786D01*
X134495048Y-49307820D01*
X134495049Y-49307819D01*
X134495051Y-49307816D01*
X134499514Y-49299055D01*
X134547488Y-49248259D01*
X134615308Y-49231463D01*
X134681444Y-49253999D01*
X134720486Y-49299056D01*
X134724951Y-49307820D01*
X134849890Y-49479786D01*
X135000213Y-49630109D01*
X135172179Y-49755048D01*
X135172181Y-49755049D01*
X135172184Y-49755051D01*
X135361588Y-49851557D01*
X135563757Y-49917246D01*
X135773713Y-49950500D01*
X135773714Y-49950500D01*
X135986286Y-49950500D01*
X135986287Y-49950500D01*
X136196243Y-49917246D01*
X136398412Y-49851557D01*
X136587816Y-49755051D01*
X136635774Y-49720208D01*
X136759786Y-49630109D01*
X136759788Y-49630106D01*
X136759792Y-49630104D01*
X136910104Y-49479792D01*
X136910106Y-49479788D01*
X136910109Y-49479786D01*
X137035048Y-49307820D01*
X137035049Y-49307819D01*
X137035051Y-49307816D01*
X137131557Y-49118412D01*
X137197246Y-48916243D01*
X137230500Y-48706287D01*
X137230500Y-48493713D01*
X137197246Y-48283757D01*
X137131557Y-48081588D01*
X137035051Y-47892184D01*
X137035049Y-47892181D01*
X137035048Y-47892179D01*
X136910109Y-47720213D01*
X136796569Y-47606673D01*
X136763084Y-47545350D01*
X136768068Y-47475658D01*
X136809940Y-47419725D01*
X136840915Y-47402810D01*
X136972331Y-47353796D01*
X137087546Y-47267546D01*
X137173796Y-47152331D01*
X137224091Y-47017483D01*
X137230500Y-46957873D01*
X137230499Y-45162128D01*
X137224091Y-45102517D01*
X137197145Y-45030272D01*
X137173797Y-44967671D01*
X137173793Y-44967664D01*
X137087547Y-44852455D01*
X137087544Y-44852452D01*
X136972335Y-44766206D01*
X136972328Y-44766202D01*
X136837482Y-44715908D01*
X136837483Y-44715908D01*
X136777883Y-44709501D01*
X136777881Y-44709500D01*
X136777873Y-44709500D01*
X136777865Y-44709500D01*
X135571519Y-44709500D01*
X135504480Y-44689815D01*
X135483838Y-44673181D01*
X134066546Y-43255888D01*
X134066545Y-43255887D01*
X133951807Y-43179222D01*
X133824332Y-43126421D01*
X133824322Y-43126418D01*
X133688996Y-43099500D01*
X133688994Y-43099500D01*
X133688993Y-43099500D01*
X117310100Y-43099500D01*
X117243061Y-43079815D01*
X117241209Y-43078602D01*
X117126549Y-43001988D01*
X117126547Y-43001987D01*
X116962667Y-42934106D01*
X116962658Y-42934103D01*
X116788694Y-42899500D01*
X116788691Y-42899500D01*
X116611309Y-42899500D01*
X116611306Y-42899500D01*
X116437341Y-42934103D01*
X116437332Y-42934106D01*
X116273459Y-43001983D01*
X116273446Y-43001990D01*
X116268887Y-43005037D01*
X116202208Y-43025912D01*
X116134829Y-43007425D01*
X116131113Y-43005037D01*
X116126553Y-43001990D01*
X116126540Y-43001983D01*
X115962667Y-42934106D01*
X115962658Y-42934103D01*
X115788694Y-42899500D01*
X115788691Y-42899500D01*
X115611309Y-42899500D01*
X115611306Y-42899500D01*
X115437341Y-42934103D01*
X115437332Y-42934106D01*
X115273452Y-43001987D01*
X115273450Y-43001988D01*
X115158791Y-43078602D01*
X115092114Y-43099480D01*
X115089900Y-43099500D01*
X82431004Y-43099500D01*
X82295677Y-43126418D01*
X82295667Y-43126421D01*
X82168192Y-43179222D01*
X82053454Y-43255887D01*
X81836075Y-43473266D01*
X81774752Y-43506751D01*
X81772586Y-43507202D01*
X81637340Y-43534104D01*
X81637332Y-43534106D01*
X81473459Y-43601983D01*
X81473446Y-43601990D01*
X81325965Y-43700535D01*
X81325961Y-43700538D01*
X81200538Y-43825961D01*
X81200535Y-43825965D01*
X81101990Y-43973446D01*
X81101983Y-43973459D01*
X81034106Y-44137332D01*
X81034104Y-44137338D01*
X81017622Y-44220198D01*
X80985236Y-44282108D01*
X80924520Y-44316682D01*
X80920198Y-44317622D01*
X80837338Y-44334104D01*
X80837332Y-44334106D01*
X80673459Y-44401983D01*
X80673446Y-44401990D01*
X80525965Y-44500535D01*
X80525961Y-44500538D01*
X80400538Y-44625961D01*
X80400535Y-44625965D01*
X80301990Y-44773446D01*
X80301983Y-44773459D01*
X80234106Y-44937332D01*
X80234103Y-44937341D01*
X80199500Y-45111304D01*
X80199500Y-45288695D01*
X80234103Y-45462658D01*
X80234106Y-45462667D01*
X80301983Y-45626540D01*
X80301990Y-45626553D01*
X80400535Y-45774034D01*
X80400538Y-45774038D01*
X80525961Y-45899461D01*
X80525965Y-45899464D01*
X80673446Y-45998009D01*
X80673459Y-45998016D01*
X80796363Y-46048923D01*
X80837334Y-46065894D01*
X80837336Y-46065894D01*
X80837341Y-46065896D01*
X81011304Y-46100499D01*
X81011307Y-46100500D01*
X81011309Y-46100500D01*
X81188693Y-46100500D01*
X81188694Y-46100499D01*
X81246682Y-46088964D01*
X81362658Y-46065896D01*
X81362661Y-46065894D01*
X81362666Y-46065894D01*
X81526547Y-45998013D01*
X81674035Y-45899464D01*
X81799464Y-45774035D01*
X81898013Y-45626547D01*
X81965894Y-45462666D01*
X81981142Y-45386005D01*
X82013524Y-45324098D01*
X82074239Y-45289523D01*
X82144009Y-45293262D01*
X82190439Y-45322518D01*
X82289707Y-45421786D01*
X82289711Y-45421789D01*
X82420814Y-45509390D01*
X82420827Y-45509397D01*
X82560250Y-45567147D01*
X82566503Y-45569737D01*
X82688858Y-45594075D01*
X82721153Y-45600499D01*
X82721156Y-45600500D01*
X82721158Y-45600500D01*
X82878844Y-45600500D01*
X82878845Y-45600499D01*
X83033497Y-45569737D01*
X83179179Y-45509394D01*
X83273459Y-45446398D01*
X83340136Y-45425520D01*
X83342350Y-45425500D01*
X86236016Y-45425500D01*
X86303055Y-45445185D01*
X86348810Y-45497989D01*
X86358754Y-45567147D01*
X86353947Y-45587818D01*
X86303242Y-45743870D01*
X86303242Y-45743873D01*
X86292769Y-45810000D01*
X87186988Y-45810000D01*
X87154075Y-45867007D01*
X87120000Y-45994174D01*
X87120000Y-46125826D01*
X87154075Y-46252993D01*
X87186988Y-46310000D01*
X86292769Y-46310000D01*
X86303242Y-46376126D01*
X86303242Y-46376129D01*
X86368904Y-46578217D01*
X86465379Y-46767557D01*
X86590272Y-46939459D01*
X86590276Y-46939464D01*
X86740535Y-47089723D01*
X86740540Y-47089727D01*
X86912444Y-47214622D01*
X86921495Y-47219234D01*
X86972292Y-47267208D01*
X86989087Y-47335029D01*
X86966550Y-47401164D01*
X86921499Y-47440202D01*
X86912182Y-47444949D01*
X86740213Y-47569890D01*
X86589890Y-47720213D01*
X86464950Y-47892180D01*
X86457503Y-47906797D01*
X86409527Y-47957592D01*
X86347019Y-47974500D01*
X72838389Y-47974500D01*
X72777971Y-47986518D01*
X72717548Y-47998537D01*
X72717543Y-47998538D01*
X72683546Y-48012620D01*
X72670397Y-48018067D01*
X72648169Y-48027274D01*
X72603713Y-48045688D01*
X72593557Y-48052475D01*
X72593449Y-48052547D01*
X72501268Y-48114140D01*
X72477060Y-48138349D01*
X72414142Y-48201267D01*
X72414139Y-48201270D01*
X72341203Y-48274206D01*
X72279879Y-48307690D01*
X72277714Y-48308141D01*
X72166508Y-48330261D01*
X72166498Y-48330264D01*
X72020827Y-48390602D01*
X72020814Y-48390609D01*
X71889711Y-48478210D01*
X71889707Y-48478213D01*
X71778213Y-48589707D01*
X71778210Y-48589711D01*
X71690609Y-48720814D01*
X71690602Y-48720827D01*
X71630264Y-48866498D01*
X71630261Y-48866510D01*
X71599500Y-49021153D01*
X71599500Y-49178846D01*
X71630261Y-49333489D01*
X71630264Y-49333501D01*
X71690602Y-49479172D01*
X71690609Y-49479185D01*
X71778210Y-49610288D01*
X71778213Y-49610292D01*
X71889707Y-49721786D01*
X71889711Y-49721789D01*
X72020814Y-49809390D01*
X72020827Y-49809397D01*
X72122607Y-49851555D01*
X72166503Y-49869737D01*
X72279326Y-49892179D01*
X72321153Y-49900499D01*
X72321156Y-49900500D01*
X72321158Y-49900500D01*
X72478844Y-49900500D01*
X72478845Y-49900499D01*
X72633497Y-49869737D01*
X72779179Y-49809394D01*
X72910289Y-49721789D01*
X73021789Y-49610289D01*
X73109394Y-49479179D01*
X73169737Y-49333497D01*
X73171365Y-49325308D01*
X73203750Y-49263399D01*
X73264465Y-49228824D01*
X73292983Y-49225500D01*
X80612596Y-49225500D01*
X80679635Y-49245185D01*
X80725390Y-49297989D01*
X80735334Y-49367147D01*
X80706309Y-49430703D01*
X80685481Y-49449818D01*
X80520214Y-49569890D01*
X80520209Y-49569894D01*
X80369890Y-49720213D01*
X80244951Y-49892179D01*
X80148444Y-50081585D01*
X80082753Y-50283760D01*
X80049500Y-50493713D01*
X80049500Y-50706287D01*
X80082754Y-50916243D01*
X80106685Y-50989896D01*
X80113927Y-51012182D01*
X80115922Y-51082023D01*
X80079842Y-51141856D01*
X80017141Y-51172684D01*
X79995996Y-51174500D01*
X71990758Y-51174500D01*
X71923719Y-51154815D01*
X71903077Y-51138181D01*
X71754786Y-50989890D01*
X71582820Y-50864951D01*
X71393414Y-50768444D01*
X71393413Y-50768443D01*
X71393412Y-50768443D01*
X71191243Y-50702754D01*
X71191241Y-50702753D01*
X71191240Y-50702753D01*
X71029957Y-50677208D01*
X70981287Y-50669500D01*
X70768713Y-50669500D01*
X70720042Y-50677208D01*
X70558760Y-50702753D01*
X70356585Y-50768444D01*
X70167179Y-50864951D01*
X69995213Y-50989890D01*
X69844890Y-51140213D01*
X69719951Y-51312179D01*
X69623444Y-51501585D01*
X69557753Y-51703760D01*
X69524500Y-51913713D01*
X69100500Y-51913713D01*
X69100500Y-43804427D01*
X69100816Y-43795581D01*
X69114662Y-43601987D01*
X69115130Y-43595436D01*
X69117646Y-43577938D01*
X69159356Y-43386200D01*
X69164335Y-43369242D01*
X69232911Y-43185382D01*
X69240251Y-43169310D01*
X69334294Y-42997083D01*
X69343850Y-42982214D01*
X69461443Y-42825128D01*
X69473017Y-42811771D01*
X69611771Y-42673017D01*
X69625128Y-42661443D01*
X69782214Y-42543850D01*
X69797083Y-42534294D01*
X69969310Y-42440251D01*
X69985382Y-42432911D01*
X70169242Y-42364335D01*
X70186200Y-42359356D01*
X70377938Y-42317646D01*
X70395436Y-42315130D01*
X70595582Y-42300816D01*
X70604428Y-42300500D01*
X70665892Y-42300500D01*
X138834108Y-42300500D01*
X138895572Y-42300500D01*
X138904418Y-42300816D01*
G37*
G04 #@! TD.AperFunction*
G04 #@! TA.AperFunction,Conductor*
G36*
X104241719Y-70893445D02*
G01*
X104280763Y-70938500D01*
X104285377Y-70947555D01*
X104410272Y-71119459D01*
X104410276Y-71119464D01*
X104560535Y-71269723D01*
X104560540Y-71269727D01*
X104732442Y-71394620D01*
X104870597Y-71465015D01*
X104921393Y-71512990D01*
X104938188Y-71580811D01*
X104915650Y-71646946D01*
X104860935Y-71690397D01*
X104814302Y-71699500D01*
X103731696Y-71699500D01*
X103664657Y-71679815D01*
X103628594Y-71644391D01*
X103575884Y-71565505D01*
X103555006Y-71498827D01*
X103573491Y-71431447D01*
X103606102Y-71396295D01*
X103607810Y-71395053D01*
X103607816Y-71395051D01*
X103779792Y-71270104D01*
X103930104Y-71119792D01*
X103930106Y-71119788D01*
X103930109Y-71119786D01*
X104008337Y-71012113D01*
X104055051Y-70947816D01*
X104059793Y-70938508D01*
X104107763Y-70887711D01*
X104175583Y-70870911D01*
X104241719Y-70893445D01*
G37*
G04 #@! TD.AperFunction*
G04 #@! TA.AperFunction,Conductor*
G36*
X109321444Y-70893999D02*
G01*
X109360484Y-70939054D01*
X109361232Y-70940520D01*
X109364951Y-70947820D01*
X109489890Y-71119786D01*
X109640213Y-71270109D01*
X109801134Y-71387023D01*
X109812184Y-71395051D01*
X109930313Y-71455240D01*
X109949496Y-71465015D01*
X110000292Y-71512990D01*
X110017087Y-71580811D01*
X109994550Y-71646946D01*
X109939834Y-71690397D01*
X109893201Y-71699500D01*
X108606799Y-71699500D01*
X108539760Y-71679815D01*
X108494005Y-71627011D01*
X108484061Y-71557853D01*
X108513086Y-71494297D01*
X108550504Y-71465015D01*
X108563681Y-71458300D01*
X108687816Y-71395051D01*
X108788269Y-71322068D01*
X108859786Y-71270109D01*
X108859788Y-71270106D01*
X108859792Y-71270104D01*
X109010104Y-71119792D01*
X109010106Y-71119788D01*
X109010109Y-71119786D01*
X109135048Y-70947820D01*
X109135047Y-70947820D01*
X109135051Y-70947816D01*
X109139514Y-70939054D01*
X109187488Y-70888259D01*
X109255308Y-70871463D01*
X109321444Y-70893999D01*
G37*
G04 #@! TD.AperFunction*
G04 #@! TA.AperFunction,Conductor*
G36*
X114401444Y-70893999D02*
G01*
X114440484Y-70939054D01*
X114441232Y-70940520D01*
X114444951Y-70947820D01*
X114569890Y-71119786D01*
X114720213Y-71270109D01*
X114881134Y-71387023D01*
X114892184Y-71395051D01*
X115010313Y-71455240D01*
X115029496Y-71465015D01*
X115080292Y-71512990D01*
X115097087Y-71580811D01*
X115074550Y-71646946D01*
X115019834Y-71690397D01*
X114973201Y-71699500D01*
X113686799Y-71699500D01*
X113619760Y-71679815D01*
X113574005Y-71627011D01*
X113564061Y-71557853D01*
X113593086Y-71494297D01*
X113630504Y-71465015D01*
X113643681Y-71458300D01*
X113767816Y-71395051D01*
X113868269Y-71322068D01*
X113939786Y-71270109D01*
X113939788Y-71270106D01*
X113939792Y-71270104D01*
X114090104Y-71119792D01*
X114090106Y-71119788D01*
X114090109Y-71119786D01*
X114215048Y-70947820D01*
X114215047Y-70947820D01*
X114215051Y-70947816D01*
X114219514Y-70939054D01*
X114267488Y-70888259D01*
X114335308Y-70871463D01*
X114401444Y-70893999D01*
G37*
G04 #@! TD.AperFunction*
G04 #@! TA.AperFunction,Conductor*
G36*
X83921161Y-70893447D02*
G01*
X83960204Y-70938504D01*
X83964949Y-70947817D01*
X84089890Y-71119786D01*
X84089896Y-71119792D01*
X84240208Y-71270104D01*
X84240215Y-71270109D01*
X84260960Y-71285181D01*
X84303626Y-71340511D01*
X84309605Y-71410124D01*
X84277000Y-71471920D01*
X84216161Y-71506277D01*
X84188075Y-71509500D01*
X83511073Y-71509500D01*
X83444034Y-71489815D01*
X83398279Y-71437011D01*
X83388335Y-71367853D01*
X83417360Y-71304297D01*
X83438189Y-71285181D01*
X83459462Y-71269725D01*
X83609723Y-71119464D01*
X83609727Y-71119459D01*
X83734620Y-70947558D01*
X83739232Y-70938507D01*
X83787205Y-70887709D01*
X83855025Y-70870912D01*
X83921161Y-70893447D01*
G37*
G04 #@! TD.AperFunction*
G04 #@! TA.AperFunction,Conductor*
G36*
X89001444Y-70893999D02*
G01*
X89040484Y-70939054D01*
X89041232Y-70940520D01*
X89044951Y-70947820D01*
X89169890Y-71119786D01*
X89169896Y-71119792D01*
X89320208Y-71270104D01*
X89320215Y-71270109D01*
X89340960Y-71285181D01*
X89383626Y-71340511D01*
X89389605Y-71410124D01*
X89357000Y-71471920D01*
X89296161Y-71506277D01*
X89268075Y-71509500D01*
X88591925Y-71509500D01*
X88524886Y-71489815D01*
X88479131Y-71437011D01*
X88469187Y-71367853D01*
X88498212Y-71304297D01*
X88519040Y-71285181D01*
X88519055Y-71285170D01*
X88539792Y-71270104D01*
X88690104Y-71119792D01*
X88690106Y-71119788D01*
X88690109Y-71119786D01*
X88815048Y-70947820D01*
X88815047Y-70947820D01*
X88815051Y-70947816D01*
X88819514Y-70939054D01*
X88867488Y-70888259D01*
X88935308Y-70871463D01*
X89001444Y-70893999D01*
G37*
G04 #@! TD.AperFunction*
G04 #@! TA.AperFunction,Conductor*
G36*
X94081444Y-70893999D02*
G01*
X94120484Y-70939054D01*
X94121232Y-70940520D01*
X94124951Y-70947820D01*
X94249890Y-71119786D01*
X94249896Y-71119792D01*
X94400208Y-71270104D01*
X94400215Y-71270109D01*
X94420960Y-71285181D01*
X94463626Y-71340511D01*
X94469605Y-71410124D01*
X94437000Y-71471920D01*
X94376161Y-71506277D01*
X94348075Y-71509500D01*
X93671925Y-71509500D01*
X93604886Y-71489815D01*
X93559131Y-71437011D01*
X93549187Y-71367853D01*
X93578212Y-71304297D01*
X93599040Y-71285181D01*
X93599055Y-71285170D01*
X93619792Y-71270104D01*
X93770104Y-71119792D01*
X93770106Y-71119788D01*
X93770109Y-71119786D01*
X93895048Y-70947820D01*
X93895047Y-70947820D01*
X93895051Y-70947816D01*
X93899514Y-70939054D01*
X93947488Y-70888259D01*
X94015308Y-70871463D01*
X94081444Y-70893999D01*
G37*
G04 #@! TD.AperFunction*
G04 #@! TA.AperFunction,Conductor*
G36*
X82830000Y-69806988D02*
G01*
X82772993Y-69774075D01*
X82645826Y-69740000D01*
X82514174Y-69740000D01*
X82387007Y-69774075D01*
X82330000Y-69806988D01*
X82330000Y-68133012D01*
X82387007Y-68165925D01*
X82514174Y-68200000D01*
X82645826Y-68200000D01*
X82772993Y-68165925D01*
X82830000Y-68133012D01*
X82830000Y-69806988D01*
G37*
G04 #@! TD.AperFunction*
G04 #@! TA.AperFunction,Conductor*
G36*
X105690000Y-69806988D02*
G01*
X105632993Y-69774075D01*
X105505826Y-69740000D01*
X105374174Y-69740000D01*
X105247007Y-69774075D01*
X105190000Y-69806988D01*
X105190000Y-68133012D01*
X105247007Y-68165925D01*
X105374174Y-68200000D01*
X105505826Y-68200000D01*
X105632993Y-68165925D01*
X105690000Y-68133012D01*
X105690000Y-69806988D01*
G37*
G04 #@! TD.AperFunction*
G04 #@! TA.AperFunction,Conductor*
G36*
X128550000Y-69806988D02*
G01*
X128492993Y-69774075D01*
X128365826Y-69740000D01*
X128234174Y-69740000D01*
X128107007Y-69774075D01*
X128050000Y-69806988D01*
X128050000Y-68133012D01*
X128107007Y-68165925D01*
X128234174Y-68200000D01*
X128365826Y-68200000D01*
X128492993Y-68165925D01*
X128550000Y-68133012D01*
X128550000Y-69806988D01*
G37*
G04 #@! TD.AperFunction*
G04 #@! TD*
M02*
