G04 #@! TF.GenerationSoftware,KiCad,Pcbnew,10.0.6-10.0.6~ubuntu24.04.1*
G04 #@! TF.CreationDate,2026-09-15T11:46:04-04:00*
G04 #@! TF.ProjectId,TTDB_2_Raspi,54544442-5f32-45f5-9261-7370692e6b69,1.0*
G04 #@! TF.SameCoordinates,Original*
G04 #@! TF.FileFunction,Soldermask,Bot*
G04 #@! TF.FilePolarity,Negative*
%FSLAX46Y46*%
G04 Gerber Fmt 4.6, Leading zero omitted, Abs format (unit mm)*
G04 Created by KiCad (PCBNEW 10.0.6-10.0.6~ubuntu24.04.1) date 2026-09-15 11:46:04*
%MOMM*%
%LPD*%
G01*
G04 APERTURE LIST*
%ADD10R,1.700000X1.700000*%
%ADD11O,1.700000X1.700000*%
%ADD12C,1.700000*%
G04 APERTURE END LIST*
D10*
G04 #@! TO.C,J7*
X138410000Y-57540000D03*
D11*
X135870000Y-57540000D03*
X133330000Y-57540000D03*
X130790000Y-57540000D03*
X128250000Y-57540000D03*
D12*
X125710000Y-57540000D03*
D11*
X138410000Y-60080000D03*
X135870000Y-60080000D03*
X133330000Y-60080000D03*
X130790000Y-60080000D03*
X128250000Y-60080000D03*
X125710000Y-60080000D03*
G04 #@! TD*
D10*
G04 #@! TO.C,J10*
X70875000Y-59640000D03*
D11*
X70875000Y-57100000D03*
X70875000Y-54560000D03*
X70875000Y-52020000D03*
G04 #@! TD*
D10*
G04 #@! TO.C,J3*
X115600000Y-67700000D03*
D11*
X113060000Y-67700000D03*
X110520000Y-67700000D03*
X107980000Y-67700000D03*
X105440000Y-67700000D03*
D12*
X102900000Y-67700000D03*
D11*
X115600000Y-70240000D03*
X113060000Y-70240000D03*
X110520000Y-70240000D03*
X107980000Y-70240000D03*
X105440000Y-70240000D03*
X102900000Y-70240000D03*
G04 #@! TD*
D10*
G04 #@! TO.C,J1*
X135880000Y-46060000D03*
D11*
X135880000Y-48600000D03*
X133340000Y-46060000D03*
X133340000Y-48600000D03*
X130800000Y-46060000D03*
X130800000Y-48600000D03*
X128260000Y-46060000D03*
X128260000Y-48600000D03*
X125720000Y-46060000D03*
X125720000Y-48600000D03*
X123180000Y-46060000D03*
X123180000Y-48600000D03*
X120640000Y-46060000D03*
X120640000Y-48600000D03*
X118100000Y-46060000D03*
X118100000Y-48600000D03*
X115560000Y-46060000D03*
X115560000Y-48600000D03*
X113020000Y-46060000D03*
X113020000Y-48600000D03*
X110480000Y-46060000D03*
X110480000Y-48600000D03*
X107940000Y-46060000D03*
X107940000Y-48600000D03*
X105400000Y-46060000D03*
X105400000Y-48600000D03*
X102860000Y-46060000D03*
X102860000Y-48600000D03*
X100320000Y-46060000D03*
X100320000Y-48600000D03*
X97780000Y-46060000D03*
X97780000Y-48600000D03*
X95240000Y-46060000D03*
X95240000Y-48600000D03*
X92700000Y-46060000D03*
X92700000Y-48600000D03*
X90160000Y-46060000D03*
X90160000Y-48600000D03*
X87620000Y-46060000D03*
X87620000Y-48600000D03*
G04 #@! TD*
D10*
G04 #@! TO.C,J5*
X92690000Y-57540000D03*
D11*
X90150000Y-57540000D03*
X87610000Y-57540000D03*
X85070000Y-57540000D03*
X82530000Y-57540000D03*
D12*
X79990000Y-57540000D03*
D11*
X92690000Y-60080000D03*
X90150000Y-60080000D03*
X87610000Y-60080000D03*
X85070000Y-60080000D03*
X82530000Y-60080000D03*
X79990000Y-60080000D03*
G04 #@! TD*
D10*
G04 #@! TO.C,J6*
X115550000Y-57540000D03*
D11*
X113010000Y-57540000D03*
X110470000Y-57540000D03*
X107930000Y-57540000D03*
X105390000Y-57540000D03*
D12*
X102850000Y-57540000D03*
D11*
X115550000Y-60080000D03*
X113010000Y-60080000D03*
X110470000Y-60080000D03*
X107930000Y-60080000D03*
X105390000Y-60080000D03*
X102850000Y-60080000D03*
G04 #@! TD*
D10*
G04 #@! TO.C,J11*
X81400000Y-53140000D03*
D11*
X81400000Y-50600000D03*
G04 #@! TD*
D10*
G04 #@! TO.C,J8*
X97770000Y-60080000D03*
D11*
X95230000Y-60080000D03*
G04 #@! TD*
D10*
G04 #@! TO.C,J4*
X138460000Y-67700000D03*
D11*
X135920000Y-67700000D03*
X133380000Y-67700000D03*
X130840000Y-67700000D03*
X128300000Y-67700000D03*
D12*
X125760000Y-67700000D03*
D11*
X138460000Y-70240000D03*
X135920000Y-70240000D03*
X133380000Y-70240000D03*
X130840000Y-70240000D03*
X128300000Y-70240000D03*
X125760000Y-70240000D03*
G04 #@! TD*
D10*
G04 #@! TO.C,J2*
X92740000Y-67700000D03*
D11*
X90200000Y-67700000D03*
X87660000Y-67700000D03*
X85120000Y-67700000D03*
X82580000Y-67700000D03*
D12*
X80040000Y-67700000D03*
D11*
X92740000Y-70240000D03*
X90200000Y-70240000D03*
X87660000Y-70240000D03*
X85120000Y-70240000D03*
X82580000Y-70240000D03*
X80040000Y-70240000D03*
G04 #@! TD*
D10*
G04 #@! TO.C,J9*
X97820000Y-70240000D03*
D11*
X95280000Y-70240000D03*
G04 #@! TD*
M02*
