G04 #@! TF.GenerationSoftware,KiCad,Pcbnew,10.0.6-10.0.6~ubuntu24.04.1*
G04 #@! TF.CreationDate,2026-09-15T11:46:03-04:00*
G04 #@! TF.ProjectId,TTDB_2_Raspi,54544442-5f32-45f5-9261-7370692e6b69,1.0*
G04 #@! TF.SameCoordinates,Original*
G04 #@! TF.FileFunction,Copper,L1,Top*
G04 #@! TF.FilePolarity,Positive*
%FSLAX46Y46*%
G04 Gerber Fmt 4.6, Leading zero omitted, Abs format (unit mm)*
G04 Created by KiCad (PCBNEW 10.0.6-10.0.6~ubuntu24.04.1) date 2026-09-15 11:46:03*
%MOMM*%
%LPD*%
G01*
G04 APERTURE LIST*
G04 Aperture macros list*
%AMRoundRect*
0 Rectangle with rounded corners*
0 $1 Rounding radius*
0 $2 $3 $4 $5 $6 $7 $8 $9 X,Y pos of 4 corners*
0 Add a 4 corners polygon primitive as box body*
4,1,4,$2,$3,$4,$5,$6,$7,$8,$9,$2,$3,0*
0 Add four circle primitives for the rounded corners*
1,1,$1+$1,$2,$3*
1,1,$1+$1,$4,$5*
1,1,$1+$1,$6,$7*
1,1,$1+$1,$8,$9*
0 Add four rect primitives between the rounded corners*
20,1,$1+$1,$2,$3,$4,$5,0*
20,1,$1+$1,$4,$5,$6,$7,0*
20,1,$1+$1,$6,$7,$8,$9,0*
20,1,$1+$1,$8,$9,$2,$3,0*%
G04 Aperture macros list end*
G04 #@! TA.AperFunction,ComponentPad*
%ADD10C,0.820000*%
G04 #@! TD*
G04 #@! TA.AperFunction,SMDPad,CuDef*
%ADD11C,1.000000*%
G04 #@! TD*
G04 #@! TA.AperFunction,SMDPad,CuDef*
%ADD12RoundRect,0.250000X-0.250000X-0.475000X0.250000X-0.475000X0.250000X0.475000X-0.250000X0.475000X0*%
G04 #@! TD*
G04 #@! TA.AperFunction,ComponentPad*
%ADD13R,1.700000X1.700000*%
G04 #@! TD*
G04 #@! TA.AperFunction,ComponentPad*
%ADD14O,1.700000X1.700000*%
G04 #@! TD*
G04 #@! TA.AperFunction,ComponentPad*
%ADD15C,1.700000*%
G04 #@! TD*
G04 #@! TA.AperFunction,SMDPad,CuDef*
%ADD16RoundRect,0.200000X0.275000X-0.200000X0.275000X0.200000X-0.275000X0.200000X-0.275000X-0.200000X0*%
G04 #@! TD*
G04 #@! TA.AperFunction,SMDPad,CuDef*
%ADD17RoundRect,0.225000X-0.225000X-0.250000X0.225000X-0.250000X0.225000X0.250000X-0.225000X0.250000X0*%
G04 #@! TD*
G04 #@! TA.AperFunction,SMDPad,CuDef*
%ADD18R,1.400000X1.500000*%
G04 #@! TD*
G04 #@! TA.AperFunction,SMDPad,CuDef*
%ADD19RoundRect,0.225000X0.250000X-0.225000X0.250000X0.225000X-0.250000X0.225000X-0.250000X-0.225000X0*%
G04 #@! TD*
G04 #@! TA.AperFunction,ViaPad*
%ADD20C,0.800000*%
G04 #@! TD*
G04 #@! TA.AperFunction,ViaPad*
%ADD21C,0.600000*%
G04 #@! TD*
G04 #@! TA.AperFunction,Conductor*
%ADD22C,0.250000*%
G04 #@! TD*
G04 #@! TA.AperFunction,Conductor*
%ADD23C,0.300000*%
G04 #@! TD*
G04 #@! TA.AperFunction,Conductor*
%ADD24C,0.400000*%
G04 #@! TD*
G04 #@! TA.AperFunction,Conductor*
%ADD25C,0.200000*%
G04 #@! TD*
G04 APERTURE END LIST*
D10*
G04 #@! TO.P,STITCH23,1*
G04 #@! TO.N,GND*
X126180000Y-42900000D03*
G04 #@! TD*
G04 #@! TO.P,STITCH11,1*
G04 #@! TO.N,GND*
X134700000Y-71600000D03*
G04 #@! TD*
G04 #@! TO.P,STITCH1,1*
G04 #@! TO.N,GND*
X78400000Y-72000000D03*
G04 #@! TD*
G04 #@! TO.P,STITCH16,1*
G04 #@! TO.N,GND*
X90620000Y-42900000D03*
G04 #@! TD*
G04 #@! TO.P,STITCH4,1*
G04 #@! TO.N,GND*
X99600000Y-71400000D03*
G04 #@! TD*
G04 #@! TO.P,STITCH5,1*
G04 #@! TO.N,GND*
X104220000Y-71400000D03*
G04 #@! TD*
G04 #@! TO.P,STITCH31,1*
G04 #@! TO.N,GND*
X84800000Y-49900000D03*
G04 #@! TD*
D11*
G04 #@! TO.P,FID3,*
G04 #@! TO.N,*
X73900000Y-62600000D03*
G04 #@! TD*
D10*
G04 #@! TO.P,STITCH15,1*
G04 #@! TO.N,GND*
X85540000Y-42900000D03*
G04 #@! TD*
D12*
G04 #@! TO.P,C4,1*
G04 #@! TO.N,+3V3*
X103150000Y-65200000D03*
G04 #@! TO.P,C4,2*
G04 #@! TO.N,GND*
X105050000Y-65200000D03*
G04 #@! TD*
D13*
G04 #@! TO.P,J7,1,IO1_1*
G04 #@! TO.N,/P3_1*
X138410000Y-57540000D03*
D14*
G04 #@! TO.P,J7,2,IO2_2*
G04 #@! TO.N,/P3_2*
X135870000Y-57540000D03*
G04 #@! TO.P,J7,3,IO3_3*
G04 #@! TO.N,/P3_3*
X133330000Y-57540000D03*
G04 #@! TO.P,J7,4,IO4_4*
G04 #@! TO.N,/P3_4*
X130790000Y-57540000D03*
G04 #@! TO.P,J7,5,GND_5*
G04 #@! TO.N,GND*
X128250000Y-57540000D03*
D15*
G04 #@! TO.P,J7,6,VCC_6*
G04 #@! TO.N,+3V3*
X125710000Y-57540000D03*
D14*
G04 #@! TO.P,J7,7,IO5_7*
G04 #@! TO.N,/P3_5*
X138410000Y-60080000D03*
G04 #@! TO.P,J7,8,IO6_8*
G04 #@! TO.N,/P3_6*
X135870000Y-60080000D03*
G04 #@! TO.P,J7,9,IO7_9*
G04 #@! TO.N,/P3_7*
X133330000Y-60080000D03*
G04 #@! TO.P,J7,10,IO8_10*
G04 #@! TO.N,/P3_8*
X130790000Y-60080000D03*
G04 #@! TO.P,J7,11,GND_11*
G04 #@! TO.N,GND*
X128250000Y-60080000D03*
G04 #@! TO.P,J7,12,VCC_12*
G04 #@! TO.N,+3V3*
X125710000Y-60080000D03*
G04 #@! TD*
D13*
G04 #@! TO.P,J10,1,Pin_1_1*
G04 #@! TO.N,GND*
X70875000Y-59640000D03*
D14*
G04 #@! TO.P,J10,2,Pin_2_2*
G04 #@! TO.N,+3V3*
X70875000Y-57100000D03*
G04 #@! TO.P,J10,3,Pin_3_3*
G04 #@! TO.N,/USR_IO*
X70875000Y-54560000D03*
G04 #@! TO.P,J10,4,Pin_4_4*
G04 #@! TO.N,/USR_SW*
X70875000Y-52020000D03*
G04 #@! TD*
D13*
G04 #@! TO.P,J3,1,IO1_1*
G04 #@! TO.N,/P2_1*
X115600000Y-67700000D03*
D14*
G04 #@! TO.P,J3,2,IO2_2*
G04 #@! TO.N,/P2_2*
X113060000Y-67700000D03*
G04 #@! TO.P,J3,3,IO3_3*
G04 #@! TO.N,/P2_3*
X110520000Y-67700000D03*
G04 #@! TO.P,J3,4,IO4_4*
G04 #@! TO.N,/P2_4*
X107980000Y-67700000D03*
G04 #@! TO.P,J3,5,GND_5*
G04 #@! TO.N,GND*
X105440000Y-67700000D03*
D15*
G04 #@! TO.P,J3,6,VCC_6*
G04 #@! TO.N,+3V3*
X102900000Y-67700000D03*
D14*
G04 #@! TO.P,J3,7,IO5_7*
G04 #@! TO.N,/P2_5*
X115600000Y-70240000D03*
G04 #@! TO.P,J3,8,IO6_8*
G04 #@! TO.N,/P2_6*
X113060000Y-70240000D03*
G04 #@! TO.P,J3,9,IO7_9*
G04 #@! TO.N,/P2_7*
X110520000Y-70240000D03*
G04 #@! TO.P,J3,10,IO8_10*
G04 #@! TO.N,/P2_8*
X107980000Y-70240000D03*
G04 #@! TO.P,J3,11,GND_11*
G04 #@! TO.N,GND*
X105440000Y-70240000D03*
G04 #@! TO.P,J3,12,VCC_12*
G04 #@! TO.N,+3V3*
X102900000Y-70240000D03*
G04 #@! TD*
D11*
G04 #@! TO.P,FID2,*
G04 #@! TO.N,*
X139400000Y-48600000D03*
G04 #@! TD*
D10*
G04 #@! TO.P,STITCH31,1*
G04 #@! TO.N,GND*
X72900000Y-55600000D03*
G04 #@! TD*
G04 #@! TO.P,STITCH31,1*
G04 #@! TO.N,GND*
X81700000Y-62000000D03*
G04 #@! TD*
G04 #@! TO.P,STITCH19,1*
G04 #@! TO.N,GND*
X105860000Y-42900000D03*
G04 #@! TD*
G04 #@! TO.P,STITCH24,1*
G04 #@! TO.N,GND*
X131260000Y-42900000D03*
G04 #@! TD*
G04 #@! TO.P,STITCH2,1*
G04 #@! TO.N,GND*
X88980000Y-71400000D03*
G04 #@! TD*
D16*
G04 #@! TO.P,R1,1*
G04 #@! TO.N,Net-(C1-Pad2)*
X71400000Y-66425000D03*
G04 #@! TO.P,R1,2*
G04 #@! TO.N,GND*
X71400000Y-64775000D03*
G04 #@! TD*
D10*
G04 #@! TO.P,STITCH30,1*
G04 #@! TO.N,GND*
X120700000Y-66240000D03*
G04 #@! TD*
D13*
G04 #@! TO.P,J1,1,3V3_1*
G04 #@! TO.N,VDD*
X135880000Y-46060000D03*
D14*
G04 #@! TO.P,J1,2,5V_2*
G04 #@! TO.N,Net-(J1-5V-Pad2)*
X135880000Y-48600000D03*
G04 #@! TO.P,J1,3,SDA_I2C1/GPIO02_3*
G04 #@! TO.N,/P3_1*
X133340000Y-46060000D03*
G04 #@! TO.P,J1,4,5V_4*
G04 #@! TO.N,Net-(J1-5V-Pad2)*
X133340000Y-48600000D03*
G04 #@! TO.P,J1,5,SCL_I2C1/GPIO03_5*
G04 #@! TO.N,/P3_5*
X130800000Y-46060000D03*
G04 #@! TO.P,J1,6,GND_6*
G04 #@! TO.N,GND*
X130800000Y-48600000D03*
G04 #@! TO.P,J1,7,GPCLK0/GPIO04_7*
G04 #@! TO.N,/P3_2*
X128260000Y-46060000D03*
G04 #@! TO.P,J1,8,GPIO14/UART_TXD_8*
G04 #@! TO.N,/P3_6*
X128260000Y-48600000D03*
G04 #@! TO.P,J1,9,GND_9*
G04 #@! TO.N,GND*
X125720000Y-46060000D03*
G04 #@! TO.P,J1,10,GPIO15/UART_RXD_10*
G04 #@! TO.N,/P3_3*
X125720000Y-48600000D03*
G04 #@! TO.P,J1,11,GPIO17/SPI1_~{CE1}_11*
G04 #@! TO.N,/P3_7*
X123180000Y-46060000D03*
G04 #@! TO.P,J1,12,GPIO18/SPI1_~{CE0}/PCM_CLK/PWM0_12*
G04 #@! TO.N,/P3_4*
X123180000Y-48600000D03*
G04 #@! TO.P,J1,13,GPIO27/SDIO_DAT3_13*
G04 #@! TO.N,/P3_8*
X120640000Y-46060000D03*
G04 #@! TO.P,J1,14,GND_14*
G04 #@! TO.N,GND*
X120640000Y-48600000D03*
G04 #@! TO.P,J1,15,GPIO22/SDIO_CLK_15*
G04 #@! TO.N,/P2_1*
X118100000Y-46060000D03*
G04 #@! TO.P,J1,16,GPIO23/SDIO_CMD_16*
G04 #@! TO.N,/P2_5*
X118100000Y-48600000D03*
G04 #@! TO.P,J1,17,3V3_17*
G04 #@! TO.N,VDD*
X115560000Y-46060000D03*
G04 #@! TO.P,J1,18,GPIO24/SDIO_DAT0_18*
G04 #@! TO.N,/P2_6*
X115560000Y-48600000D03*
G04 #@! TO.P,J1,19,MOSI_SPI0/GPIO10_19*
G04 #@! TO.N,/P2_2*
X113020000Y-46060000D03*
G04 #@! TO.P,J1,20,GND_20*
G04 #@! TO.N,GND*
X113020000Y-48600000D03*
G04 #@! TO.P,J1,21,MISO_SPI0/GPIO09_21*
G04 #@! TO.N,/P2_7*
X110480000Y-46060000D03*
G04 #@! TO.P,J1,22,GPIO25/SDIO_DAT1_22*
G04 #@! TO.N,/P2_3*
X110480000Y-48600000D03*
G04 #@! TO.P,J1,23,SCLK_SPI0/GPIO11_23*
G04 #@! TO.N,/P2_8*
X107940000Y-46060000D03*
G04 #@! TO.P,J1,24,~{CE0}_SPI0/GPIO08_24*
G04 #@! TO.N,/P2_4*
X107940000Y-48600000D03*
G04 #@! TO.P,J1,25,GND_25*
G04 #@! TO.N,GND*
X105400000Y-46060000D03*
G04 #@! TO.P,J1,26,~{CE1}_SPI0/GPIO07_26*
G04 #@! TO.N,/~{RST}*
X105400000Y-48600000D03*
G04 #@! TO.P,J1,27,ID_SD_I2C0/GPIO00_27*
G04 #@! TO.N,/USR_SW*
X102860000Y-46060000D03*
G04 #@! TO.P,J1,28,ID_SC_I2C0/GPIO01_28*
G04 #@! TO.N,/CLK*
X102860000Y-48600000D03*
G04 #@! TO.P,J1,29,GPCLK1/GPIO05_29*
G04 #@! TO.N,/P1_5*
X100320000Y-46060000D03*
G04 #@! TO.P,J1,30,GND_30*
G04 #@! TO.N,GND*
X100320000Y-48600000D03*
G04 #@! TO.P,J1,31,GPCLK2/GPIO06_31*
G04 #@! TO.N,/P1_6*
X97780000Y-46060000D03*
G04 #@! TO.P,J1,32,GPIO12/PWM0_32*
G04 #@! TO.N,/P1_1*
X97780000Y-48600000D03*
G04 #@! TO.P,J1,33,GPIO13/PWM1_33*
G04 #@! TO.N,/P1_2*
X95240000Y-46060000D03*
G04 #@! TO.P,J1,34,GND_34*
G04 #@! TO.N,GND*
X95240000Y-48600000D03*
G04 #@! TO.P,J1,35,GPIO19/SPI1_MISO/PCM_FS_35*
G04 #@! TO.N,/P1_3*
X92700000Y-46060000D03*
G04 #@! TO.P,J1,36,GPIO16/SPI1_~{CE2}_36*
G04 #@! TO.N,/P1_7*
X92700000Y-48600000D03*
G04 #@! TO.P,J1,37,GPIO26/SDIO_DAT2_37*
G04 #@! TO.N,/P1_4*
X90160000Y-46060000D03*
G04 #@! TO.P,J1,38,GPIO20/SPI1_MOSI/PCM_DIN/PWM1_38*
G04 #@! TO.N,/P1_8*
X90160000Y-48600000D03*
G04 #@! TO.P,J1,39,GND_39*
G04 #@! TO.N,GND*
X87620000Y-46060000D03*
G04 #@! TO.P,J1,40,GPIO21/SPI1_SCLK/PCM_DOUT_40*
G04 #@! TO.N,/USR_IO*
X87620000Y-48600000D03*
G04 #@! TD*
D10*
G04 #@! TO.P,STITCH10,1*
G04 #@! TO.N,GND*
X129620000Y-71600000D03*
G04 #@! TD*
G04 #@! TO.P,STITCH31,1*
G04 #@! TO.N,GND*
X79500000Y-54300000D03*
G04 #@! TD*
D13*
G04 #@! TO.P,J5,1,IO1_1*
G04 #@! TO.N,/P1_1*
X92690000Y-57540000D03*
D14*
G04 #@! TO.P,J5,2,IO2_2*
G04 #@! TO.N,/P1_2*
X90150000Y-57540000D03*
G04 #@! TO.P,J5,3,IO3_3*
G04 #@! TO.N,/P1_3*
X87610000Y-57540000D03*
G04 #@! TO.P,J5,4,IO4_4*
G04 #@! TO.N,/P1_4*
X85070000Y-57540000D03*
G04 #@! TO.P,J5,5,GND_5*
G04 #@! TO.N,GND*
X82530000Y-57540000D03*
D15*
G04 #@! TO.P,J5,6,VCC_6*
G04 #@! TO.N,+3V3*
X79990000Y-57540000D03*
D14*
G04 #@! TO.P,J5,7,IO5_7*
G04 #@! TO.N,/P1_5*
X92690000Y-60080000D03*
G04 #@! TO.P,J5,8,IO6_8*
G04 #@! TO.N,/P1_6*
X90150000Y-60080000D03*
G04 #@! TO.P,J5,9,IO7_9*
G04 #@! TO.N,/P1_7*
X87610000Y-60080000D03*
G04 #@! TO.P,J5,10,IO8_10*
G04 #@! TO.N,/P1_8*
X85070000Y-60080000D03*
G04 #@! TO.P,J5,11,GND_11*
G04 #@! TO.N,GND*
X82530000Y-60080000D03*
G04 #@! TO.P,J5,12,VCC_12*
G04 #@! TO.N,+3V3*
X79990000Y-60080000D03*
G04 #@! TD*
D10*
G04 #@! TO.P,STITCH27,1*
G04 #@! TO.N,GND*
X139800000Y-55360000D03*
G04 #@! TD*
G04 #@! TO.P,STITCH31,1*
G04 #@! TO.N,GND*
X100000000Y-50800000D03*
G04 #@! TD*
G04 #@! TO.P,STITCH6,1*
G04 #@! TO.N,GND*
X109300000Y-71400000D03*
G04 #@! TD*
D17*
G04 #@! TO.P,C3,1*
G04 #@! TO.N,+3V3*
X80375000Y-63400000D03*
G04 #@! TO.P,C3,2*
G04 #@! TO.N,GND*
X81925000Y-63400000D03*
G04 #@! TD*
D10*
G04 #@! TO.P,STITCH12,1*
G04 #@! TO.N,GND*
X139780000Y-71600000D03*
G04 #@! TD*
G04 #@! TO.P,STITCH31,1*
G04 #@! TO.N,GND*
X99900000Y-54000000D03*
G04 #@! TD*
G04 #@! TO.P,STITCH31,1*
G04 #@! TO.N,GND*
X72900000Y-59700000D03*
G04 #@! TD*
D13*
G04 #@! TO.P,J6,1,IO1_1*
G04 #@! TO.N,/P2_1*
X115550000Y-57540000D03*
D14*
G04 #@! TO.P,J6,2,IO2_2*
G04 #@! TO.N,/P2_2*
X113010000Y-57540000D03*
G04 #@! TO.P,J6,3,IO3_3*
G04 #@! TO.N,/P2_3*
X110470000Y-57540000D03*
G04 #@! TO.P,J6,4,IO4_4*
G04 #@! TO.N,/P2_4*
X107930000Y-57540000D03*
G04 #@! TO.P,J6,5,GND_5*
G04 #@! TO.N,GND*
X105390000Y-57540000D03*
D15*
G04 #@! TO.P,J6,6,VCC_6*
G04 #@! TO.N,+3V3*
X102850000Y-57540000D03*
D14*
G04 #@! TO.P,J6,7,IO5_7*
G04 #@! TO.N,/P2_5*
X115550000Y-60080000D03*
G04 #@! TO.P,J6,8,IO6_8*
G04 #@! TO.N,/P2_6*
X113010000Y-60080000D03*
G04 #@! TO.P,J6,9,IO7_9*
G04 #@! TO.N,/P2_7*
X110470000Y-60080000D03*
G04 #@! TO.P,J6,10,IO8_10*
G04 #@! TO.N,/P2_8*
X107930000Y-60080000D03*
G04 #@! TO.P,J6,11,GND_11*
G04 #@! TO.N,GND*
X105390000Y-60080000D03*
G04 #@! TO.P,J6,12,VCC_12*
G04 #@! TO.N,+3V3*
X102850000Y-60080000D03*
G04 #@! TD*
D10*
G04 #@! TO.P,STITCH31,1*
G04 #@! TO.N,GND*
X96500000Y-62400000D03*
G04 #@! TD*
G04 #@! TO.P,STITCH17,1*
G04 #@! TO.N,GND*
X95700000Y-42900000D03*
G04 #@! TD*
D13*
G04 #@! TO.P,J11,1,Pin_1_1*
G04 #@! TO.N,+3V3*
X81400000Y-53140000D03*
D14*
G04 #@! TO.P,J11,2,Pin_2_2*
G04 #@! TO.N,VDD*
X81400000Y-50600000D03*
G04 #@! TD*
D10*
G04 #@! TO.P,STITCH31,1*
G04 #@! TO.N,GND*
X97300000Y-58000000D03*
G04 #@! TD*
G04 #@! TO.P,STITCH31,1*
G04 #@! TO.N,GND*
X100300000Y-68300000D03*
G04 #@! TD*
G04 #@! TO.P,STITCH21,1*
G04 #@! TO.N,GND*
X139800000Y-45200000D03*
G04 #@! TD*
D12*
G04 #@! TO.P,C2,1*
G04 #@! TO.N,+3V3*
X80400000Y-65200000D03*
G04 #@! TO.P,C2,2*
G04 #@! TO.N,GND*
X82300000Y-65200000D03*
G04 #@! TD*
D10*
G04 #@! TO.P,STITCH31,1*
G04 #@! TO.N,GND*
X94700000Y-50900000D03*
G04 #@! TD*
G04 #@! TO.P,STITCH27,1*
G04 #@! TO.N,GND*
X120700000Y-51000000D03*
G04 #@! TD*
G04 #@! TO.P,STITCH1,1*
G04 #@! TO.N,GND*
X71500000Y-72000000D03*
G04 #@! TD*
D18*
G04 #@! TO.P,SW1,1,1_1*
G04 #@! TO.N,Net-(C1-Pad2)*
X74900000Y-65350000D03*
G04 #@! TO.P,SW1,2,2_2*
G04 #@! TO.N,+3V3*
X74900000Y-71850000D03*
G04 #@! TD*
D10*
G04 #@! TO.P,STITCH27,1*
G04 #@! TO.N,GND*
X112900000Y-51800000D03*
G04 #@! TD*
D17*
G04 #@! TO.P,C5,1*
G04 #@! TO.N,+3V3*
X103075000Y-63400000D03*
G04 #@! TO.P,C5,2*
G04 #@! TO.N,GND*
X104625000Y-63400000D03*
G04 #@! TD*
D12*
G04 #@! TO.P,C6,1*
G04 #@! TO.N,+3V3*
X126350000Y-65200000D03*
G04 #@! TO.P,C6,2*
G04 #@! TO.N,GND*
X128250000Y-65200000D03*
G04 #@! TD*
D10*
G04 #@! TO.P,STITCH7,1*
G04 #@! TO.N,GND*
X114380000Y-71400000D03*
G04 #@! TD*
G04 #@! TO.P,STITCH8,1*
G04 #@! TO.N,GND*
X119460000Y-71400000D03*
G04 #@! TD*
D17*
G04 #@! TO.P,C7,1*
G04 #@! TO.N,+3V3*
X126325000Y-63400000D03*
G04 #@! TO.P,C7,2*
G04 #@! TO.N,GND*
X127875000Y-63400000D03*
G04 #@! TD*
D13*
G04 #@! TO.P,J8,1,Pin_1_1*
G04 #@! TO.N,/~{RST}*
X97770000Y-60080000D03*
D14*
G04 #@! TO.P,J8,2,Pin_2_2*
G04 #@! TO.N,/CLK*
X95230000Y-60080000D03*
G04 #@! TD*
D10*
G04 #@! TO.P,STITCH31,1*
G04 #@! TO.N,GND*
X96500000Y-68200000D03*
G04 #@! TD*
G04 #@! TO.P,STITCH12,1*
G04 #@! TO.N,GND*
X70300000Y-42900000D03*
G04 #@! TD*
D16*
G04 #@! TO.P,R2,1*
G04 #@! TO.N,Net-(C1-Pad2)*
X69900000Y-66425000D03*
G04 #@! TO.P,R2,2*
G04 #@! TO.N,/USR_SW*
X69900000Y-64775000D03*
G04 #@! TD*
D10*
G04 #@! TO.P,STITCH25,1*
G04 #@! TO.N,GND*
X136340000Y-42900000D03*
G04 #@! TD*
G04 #@! TO.P,STITCH13,1*
G04 #@! TO.N,GND*
X75380000Y-42900000D03*
G04 #@! TD*
G04 #@! TO.P,STITCH31,1*
G04 #@! TO.N,GND*
X103700000Y-51000000D03*
G04 #@! TD*
G04 #@! TO.P,STITCH1,1*
G04 #@! TO.N,GND*
X69800000Y-69600000D03*
G04 #@! TD*
D11*
G04 #@! TO.P,FID1,*
G04 #@! TO.N,*
X121400000Y-70600000D03*
G04 #@! TD*
D10*
G04 #@! TO.P,STITCH31,1*
G04 #@! TO.N,GND*
X100300000Y-58000000D03*
G04 #@! TD*
G04 #@! TO.P,STITCH31,1*
G04 #@! TO.N,GND*
X84800000Y-46600000D03*
G04 #@! TD*
G04 #@! TO.P,STITCH20,1*
G04 #@! TO.N,GND*
X110940000Y-42900000D03*
G04 #@! TD*
G04 #@! TO.P,STITCH26,1*
G04 #@! TO.N,GND*
X139800000Y-50280000D03*
G04 #@! TD*
G04 #@! TO.P,STITCH31,1*
G04 #@! TO.N,GND*
X81500000Y-66200000D03*
G04 #@! TD*
G04 #@! TO.P,STITCH31,1*
G04 #@! TO.N,GND*
X100300000Y-62400000D03*
G04 #@! TD*
G04 #@! TO.P,STITCH29,1*
G04 #@! TO.N,GND*
X120700000Y-61160000D03*
G04 #@! TD*
G04 #@! TO.P,STITCH1,1*
G04 #@! TO.N,GND*
X69800000Y-47300000D03*
G04 #@! TD*
D13*
G04 #@! TO.P,J4,1,IO1_1*
G04 #@! TO.N,/P3_1*
X138460000Y-67700000D03*
D14*
G04 #@! TO.P,J4,2,IO2_2*
G04 #@! TO.N,/P3_2*
X135920000Y-67700000D03*
G04 #@! TO.P,J4,3,IO3_3*
G04 #@! TO.N,/P3_3*
X133380000Y-67700000D03*
G04 #@! TO.P,J4,4,IO4_4*
G04 #@! TO.N,/P3_4*
X130840000Y-67700000D03*
G04 #@! TO.P,J4,5,GND_5*
G04 #@! TO.N,GND*
X128300000Y-67700000D03*
D15*
G04 #@! TO.P,J4,6,VCC_6*
G04 #@! TO.N,+3V3*
X125760000Y-67700000D03*
D14*
G04 #@! TO.P,J4,7,IO5_7*
G04 #@! TO.N,/P3_5*
X138460000Y-70240000D03*
G04 #@! TO.P,J4,8,IO6_8*
G04 #@! TO.N,/P3_6*
X135920000Y-70240000D03*
G04 #@! TO.P,J4,9,IO7_9*
G04 #@! TO.N,/P3_7*
X133380000Y-70240000D03*
G04 #@! TO.P,J4,10,IO8_10*
G04 #@! TO.N,/P3_8*
X130840000Y-70240000D03*
G04 #@! TO.P,J4,11,GND_11*
G04 #@! TO.N,GND*
X128300000Y-70240000D03*
G04 #@! TO.P,J4,12,VCC_12*
G04 #@! TO.N,+3V3*
X125760000Y-70240000D03*
G04 #@! TD*
D10*
G04 #@! TO.P,STITCH31,1*
G04 #@! TO.N,GND*
X82600000Y-55300000D03*
G04 #@! TD*
G04 #@! TO.P,STITCH9,1*
G04 #@! TO.N,GND*
X123800000Y-71400000D03*
G04 #@! TD*
G04 #@! TO.P,STITCH14,1*
G04 #@! TO.N,GND*
X80460000Y-42900000D03*
G04 #@! TD*
D19*
G04 #@! TO.P,C1,1*
G04 #@! TO.N,+3V3*
X71400000Y-69375000D03*
G04 #@! TO.P,C1,2*
G04 #@! TO.N,Net-(C1-Pad2)*
X71400000Y-67825000D03*
G04 #@! TD*
D10*
G04 #@! TO.P,STITCH28,1*
G04 #@! TO.N,GND*
X120700000Y-56080000D03*
G04 #@! TD*
G04 #@! TO.P,STITCH22,1*
G04 #@! TO.N,GND*
X121100000Y-42900000D03*
G04 #@! TD*
G04 #@! TO.P,STITCH31,1*
G04 #@! TO.N,GND*
X79500000Y-46600000D03*
G04 #@! TD*
G04 #@! TO.P,STITCH3,1*
G04 #@! TO.N,GND*
X94060000Y-71400000D03*
G04 #@! TD*
D13*
G04 #@! TO.P,J2,1,IO1_1*
G04 #@! TO.N,/P1_1*
X92740000Y-67700000D03*
D14*
G04 #@! TO.P,J2,2,IO2_2*
G04 #@! TO.N,/P1_2*
X90200000Y-67700000D03*
G04 #@! TO.P,J2,3,IO3_3*
G04 #@! TO.N,/P1_3*
X87660000Y-67700000D03*
G04 #@! TO.P,J2,4,IO4_4*
G04 #@! TO.N,/P1_4*
X85120000Y-67700000D03*
G04 #@! TO.P,J2,5,GND_5*
G04 #@! TO.N,GND*
X82580000Y-67700000D03*
D15*
G04 #@! TO.P,J2,6,VCC_6*
G04 #@! TO.N,+3V3*
X80040000Y-67700000D03*
D14*
G04 #@! TO.P,J2,7,IO5_7*
G04 #@! TO.N,/P1_5*
X92740000Y-70240000D03*
G04 #@! TO.P,J2,8,IO6_8*
G04 #@! TO.N,/P1_6*
X90200000Y-70240000D03*
G04 #@! TO.P,J2,9,IO7_9*
G04 #@! TO.N,/P1_7*
X87660000Y-70240000D03*
G04 #@! TO.P,J2,10,IO8_10*
G04 #@! TO.N,/P1_8*
X85120000Y-70240000D03*
G04 #@! TO.P,J2,11,GND_11*
G04 #@! TO.N,GND*
X82580000Y-70240000D03*
G04 #@! TO.P,J2,12,VCC_12*
G04 #@! TO.N,+3V3*
X80040000Y-70240000D03*
G04 #@! TD*
D10*
G04 #@! TO.P,STITCH31,1*
G04 #@! TO.N,GND*
X73500000Y-49800000D03*
G04 #@! TD*
G04 #@! TO.P,STITCH18,1*
G04 #@! TO.N,GND*
X100780000Y-42900000D03*
G04 #@! TD*
G04 #@! TO.P,STITCH1,1*
G04 #@! TO.N,GND*
X83900000Y-71400000D03*
G04 #@! TD*
D13*
G04 #@! TO.P,J9,1,Pin_1_1*
G04 #@! TO.N,/~{RST}*
X97820000Y-70240000D03*
D14*
G04 #@! TO.P,J9,2,Pin_2_2*
G04 #@! TO.N,/CLK*
X95280000Y-70240000D03*
G04 #@! TD*
D20*
G04 #@! TO.N,GND*
X128900000Y-63600000D03*
X105900000Y-65000000D03*
D21*
G04 #@! TO.N,/~{RST}*
X99900000Y-55500000D03*
X105500000Y-55300000D03*
D20*
G04 #@! TO.N,+3V3*
X72500000Y-70000000D03*
X101700000Y-72200000D03*
X74900000Y-70240000D03*
X124700000Y-72100000D03*
X125700000Y-72000000D03*
X102850000Y-72100000D03*
D21*
G04 #@! TO.N,/USR_IO*
X72400000Y-49100000D03*
G04 #@! TO.N,/USR_SW*
X82800000Y-51700000D03*
X82800000Y-44800000D03*
D20*
G04 #@! TO.N,VDD*
X81100000Y-45200000D03*
X81900000Y-44400000D03*
X116700000Y-43800000D03*
X115700000Y-43800000D03*
G04 #@! TD*
G04 #@! TO.N,/P3_1*
D22*
X138410000Y-57540000D02*
X139585000Y-58715000D01*
X138410000Y-54510000D02*
X138410000Y-57540000D01*
X134705000Y-50805000D02*
X138410000Y-54510000D01*
X139585000Y-66575000D02*
X138460000Y-67700000D01*
X134705000Y-47425000D02*
X134705000Y-50805000D01*
X133340000Y-46060000D02*
X134705000Y-47425000D01*
X139585000Y-58715000D02*
X139585000Y-66575000D01*
G04 #@! TO.N,GND*
D23*
X128700000Y-62000000D02*
X128500000Y-62000000D01*
X127875000Y-63400000D02*
X128700000Y-63400000D01*
X105050000Y-65200000D02*
X105250000Y-65000000D01*
X105440000Y-65590000D02*
X105050000Y-65200000D01*
X128250000Y-61750000D02*
X128250000Y-60080000D01*
X128250000Y-65200000D02*
X128250000Y-63775000D01*
X128900000Y-63600000D02*
X128900000Y-62200000D01*
X105250000Y-65000000D02*
X105900000Y-65000000D01*
X104825000Y-63200000D02*
X104625000Y-63400000D01*
X82300000Y-65200000D02*
X82300000Y-63775000D01*
X105900000Y-63200000D02*
X104825000Y-63200000D01*
X81500000Y-66000000D02*
X82300000Y-65200000D01*
X128700000Y-63400000D02*
X128900000Y-63600000D01*
X82300000Y-63775000D02*
X81925000Y-63400000D01*
X128250000Y-63775000D02*
X127875000Y-63400000D01*
X81500000Y-66200000D02*
X81500000Y-66000000D01*
X128500000Y-62000000D02*
X128250000Y-61750000D01*
X128900000Y-62200000D02*
X128700000Y-62000000D01*
X105440000Y-67700000D02*
X105440000Y-65590000D01*
X105900000Y-65000000D02*
X105900000Y-63200000D01*
G04 #@! TO.N,/P2_2*
D22*
X113010000Y-53290000D02*
X113010000Y-57540000D01*
X113010000Y-57540000D02*
X113010000Y-58418299D01*
X114300000Y-47340000D02*
X114300000Y-52000000D01*
X111700000Y-63000000D02*
X113060000Y-64360000D01*
X114300000Y-52000000D02*
X113010000Y-53290000D01*
X113010000Y-58418299D02*
X111700000Y-59728299D01*
X113060000Y-64360000D02*
X113060000Y-67700000D01*
X111700000Y-59728299D02*
X111700000Y-63000000D01*
X113020000Y-46060000D02*
X114300000Y-47340000D01*
G04 #@! TO.N,/P3_4*
X130840000Y-63260000D02*
X130840000Y-67700000D01*
X132100000Y-59728299D02*
X132100000Y-62000000D01*
X123180000Y-49480000D02*
X130790000Y-57090000D01*
X130790000Y-57540000D02*
X130790000Y-58418299D01*
X130790000Y-57090000D02*
X130790000Y-57540000D01*
X132100000Y-62000000D02*
X130840000Y-63260000D01*
X130790000Y-58418299D02*
X132100000Y-59728299D01*
X123180000Y-48600000D02*
X123180000Y-49480000D01*
G04 #@! TO.N,/P1_7*
X92700000Y-48600000D02*
X92700000Y-51000000D01*
X87610000Y-60080000D02*
X87610000Y-64110000D01*
X89025000Y-65525000D02*
X89025000Y-68875000D01*
X92700000Y-51000000D02*
X88900000Y-54800000D01*
X89025000Y-68875000D02*
X87660000Y-70240000D01*
X88900000Y-54800000D02*
X88900000Y-58790000D01*
X88900000Y-58790000D02*
X87610000Y-60080000D01*
X87610000Y-64110000D02*
X89025000Y-65525000D01*
G04 #@! TO.N,/P2_3*
X109295000Y-64595000D02*
X110520000Y-65820000D01*
X110470000Y-58418299D02*
X109295000Y-59593299D01*
X109295000Y-59593299D02*
X109295000Y-64595000D01*
X110480000Y-57530000D02*
X110470000Y-57540000D01*
X110520000Y-65820000D02*
X110520000Y-67700000D01*
X110480000Y-48600000D02*
X110480000Y-57530000D01*
X110470000Y-57540000D02*
X110470000Y-58418299D01*
G04 #@! TO.N,/P2_6*
X113010000Y-60080000D02*
X113010000Y-61910000D01*
X115560000Y-48600000D02*
X115560000Y-53640000D01*
X114235000Y-69065000D02*
X113060000Y-70240000D01*
X113010000Y-61910000D02*
X114235000Y-63135000D01*
X114375000Y-58715000D02*
X113010000Y-60080000D01*
X115560000Y-53640000D02*
X114375000Y-54825000D01*
X114375000Y-54825000D02*
X114375000Y-58715000D01*
X114235000Y-63135000D02*
X114235000Y-69065000D01*
G04 #@! TO.N,/P1_1*
X91515000Y-62015000D02*
X92740000Y-63240000D01*
X97780000Y-48600000D02*
X97780000Y-50720000D01*
X92740000Y-63240000D02*
X92740000Y-67700000D01*
X92690000Y-57540000D02*
X92690000Y-58418299D01*
X92690000Y-55810000D02*
X92690000Y-57540000D01*
X97780000Y-50720000D02*
X92690000Y-55810000D01*
X91515000Y-59593299D02*
X91515000Y-62015000D01*
X92690000Y-58418299D02*
X91515000Y-59593299D01*
G04 #@! TO.N,/P1_2*
X93900000Y-51600000D02*
X90150000Y-55350000D01*
X93900000Y-47400000D02*
X93900000Y-51600000D01*
X90150000Y-55350000D02*
X90150000Y-57540000D01*
X95240000Y-46060000D02*
X93900000Y-47400000D01*
X90150000Y-58418299D02*
X88900000Y-59668299D01*
X88900000Y-63400000D02*
X90200000Y-64700000D01*
X88900000Y-59668299D02*
X88900000Y-63400000D01*
X90200000Y-64700000D02*
X90200000Y-67700000D01*
X90150000Y-57540000D02*
X90150000Y-58418299D01*
G04 #@! TO.N,/P3_3*
X133330000Y-56830000D02*
X133330000Y-57540000D01*
X133380000Y-64520000D02*
X133380000Y-67700000D01*
X125720000Y-48600000D02*
X125720000Y-49220000D01*
X134505000Y-59593299D02*
X134505000Y-63395000D01*
X125720000Y-49220000D02*
X133330000Y-56830000D01*
X134505000Y-63395000D02*
X133380000Y-64520000D01*
X133330000Y-58418299D02*
X134505000Y-59593299D01*
X133330000Y-57540000D02*
X133330000Y-58418299D01*
G04 #@! TO.N,/P2_8*
X109155000Y-66255000D02*
X109155000Y-69065000D01*
X107930000Y-60080000D02*
X107930000Y-65030000D01*
X109155000Y-69065000D02*
X107980000Y-70240000D01*
X107930000Y-65030000D02*
X109155000Y-66255000D01*
X109200000Y-58810000D02*
X107930000Y-60080000D01*
X109200000Y-47320000D02*
X109200000Y-58810000D01*
X107940000Y-46060000D02*
X109200000Y-47320000D01*
G04 #@! TO.N,/P2_7*
X110470000Y-60080000D02*
X110470000Y-63770000D01*
X111695000Y-69065000D02*
X110520000Y-70240000D01*
X111800000Y-58750000D02*
X110470000Y-60080000D01*
X111695000Y-64995000D02*
X111695000Y-69065000D01*
X110470000Y-63770000D02*
X111695000Y-64995000D01*
X110480000Y-46060000D02*
X111800000Y-47380000D01*
X111800000Y-47380000D02*
X111800000Y-58750000D01*
G04 #@! TO.N,/CLK*
D23*
X95900000Y-56200000D02*
X102860000Y-49240000D01*
X95230000Y-60080000D02*
X95900000Y-59410000D01*
X102860000Y-49240000D02*
X102860000Y-48600000D01*
X95900000Y-59410000D02*
X95900000Y-56200000D01*
X95230000Y-60080000D02*
X95230000Y-70190000D01*
X95230000Y-70190000D02*
X95280000Y-70240000D01*
G04 #@! TO.N,/P1_8*
D22*
X85070000Y-60080000D02*
X85070000Y-65746396D01*
X86295000Y-66971396D02*
X86295000Y-69065000D01*
X90160000Y-48600000D02*
X90160000Y-49940000D01*
X90160000Y-49940000D02*
X86400000Y-53700000D01*
X86400000Y-58750000D02*
X85070000Y-60080000D01*
X85070000Y-65746396D02*
X86295000Y-66971396D01*
X86400000Y-53700000D02*
X86400000Y-58750000D01*
X86295000Y-69065000D02*
X85120000Y-70240000D01*
G04 #@! TO.N,/P1_4*
X88900000Y-47320000D02*
X88900000Y-49700000D01*
X85070000Y-53530000D02*
X85070000Y-57540000D01*
X83895000Y-66475000D02*
X85120000Y-67700000D01*
X90160000Y-46060000D02*
X88900000Y-47320000D01*
X88900000Y-49700000D02*
X85070000Y-53530000D01*
X85070000Y-57540000D02*
X83895000Y-58715000D01*
X83895000Y-58715000D02*
X83895000Y-66475000D01*
G04 #@! TO.N,/~{RST}*
X98700000Y-59150000D02*
X98700000Y-56700000D01*
X97770000Y-60080000D02*
X97770000Y-70190000D01*
X98700000Y-56700000D02*
X99900000Y-55500000D01*
X97770000Y-70190000D02*
X97820000Y-70240000D01*
X97770000Y-60080000D02*
X98700000Y-59150000D01*
X105400000Y-55200000D02*
X105500000Y-55300000D01*
X105400000Y-48600000D02*
X105400000Y-55200000D01*
G04 #@! TO.N,/P3_2*
X136050000Y-67570000D02*
X135920000Y-67700000D01*
X135870000Y-56170000D02*
X135870000Y-57540000D01*
X135870000Y-57540000D02*
X135870000Y-58418299D01*
X137045000Y-64255000D02*
X136050000Y-65250000D01*
X129500000Y-47300000D02*
X129500000Y-49800000D01*
X128260000Y-46060000D02*
X129500000Y-47300000D01*
X137045000Y-59593299D02*
X137045000Y-64255000D01*
X136050000Y-65250000D02*
X136050000Y-67570000D01*
X135870000Y-58418299D02*
X137045000Y-59593299D01*
X129500000Y-49800000D02*
X135870000Y-56170000D01*
G04 #@! TO.N,/P2_4*
X107940000Y-48600000D02*
X107940000Y-57530000D01*
X107930000Y-57540000D02*
X106755000Y-58715000D01*
X106755000Y-66475000D02*
X107980000Y-67700000D01*
X107940000Y-57530000D02*
X107930000Y-57540000D01*
X106755000Y-58715000D02*
X106755000Y-66475000D01*
G04 #@! TO.N,Net-(C1-Pad2)*
D23*
X73825000Y-66425000D02*
X74900000Y-65350000D01*
X69900000Y-66425000D02*
X71400000Y-66425000D01*
X71400000Y-66425000D02*
X73825000Y-66425000D01*
X71400000Y-67825000D02*
X71400000Y-66425000D01*
G04 #@! TO.N,/P1_6*
D22*
X91375000Y-69065000D02*
X90200000Y-70240000D01*
X91400000Y-55500000D02*
X91400000Y-58830000D01*
X96500000Y-47340000D02*
X96500000Y-50400000D01*
X91400000Y-58830000D02*
X90150000Y-60080000D01*
X96500000Y-50400000D02*
X91400000Y-55500000D01*
X90150000Y-60080000D02*
X90150000Y-62450000D01*
X91375000Y-63675000D02*
X91375000Y-69065000D01*
X90150000Y-62450000D02*
X91375000Y-63675000D01*
X97780000Y-46060000D02*
X96500000Y-47340000D01*
G04 #@! TO.N,/P3_5*
X132100000Y-47360000D02*
X132100000Y-50400000D01*
X137235000Y-55535000D02*
X137235000Y-58905000D01*
X137285000Y-66215000D02*
X137285000Y-69065000D01*
X137285000Y-69065000D02*
X138460000Y-70240000D01*
X130800000Y-46060000D02*
X132100000Y-47360000D01*
X138410000Y-60080000D02*
X138100000Y-60390000D01*
X132100000Y-50400000D02*
X137235000Y-55535000D01*
X137235000Y-58905000D02*
X138410000Y-60080000D01*
X138100000Y-60390000D02*
X138100000Y-65400000D01*
X138100000Y-65400000D02*
X137285000Y-66215000D01*
G04 #@! TO.N,/P2_1*
X115600000Y-62500000D02*
X115600000Y-67700000D01*
X116800000Y-55500000D02*
X115550000Y-56750000D01*
X115550000Y-56750000D02*
X115550000Y-57540000D01*
X116800000Y-47360000D02*
X116800000Y-55500000D01*
X114300000Y-61200000D02*
X115600000Y-62500000D01*
X114300000Y-59668299D02*
X114300000Y-61200000D01*
X115550000Y-58418299D02*
X114300000Y-59668299D01*
X118100000Y-46060000D02*
X116800000Y-47360000D01*
X115550000Y-57540000D02*
X115550000Y-58418299D01*
G04 #@! TO.N,/P1_3*
X87610000Y-58418299D02*
X86435000Y-59593299D01*
X92700000Y-46060000D02*
X91400000Y-47360000D01*
X87660000Y-66360000D02*
X87660000Y-67700000D01*
X91400000Y-47360000D02*
X91400000Y-50300000D01*
X86435000Y-59593299D02*
X86435000Y-65135000D01*
X86435000Y-65135000D02*
X87660000Y-66360000D01*
X87610000Y-54090000D02*
X87610000Y-57540000D01*
X87610000Y-57540000D02*
X87610000Y-58418299D01*
X91400000Y-50300000D02*
X87610000Y-54090000D01*
G04 #@! TO.N,+3V3*
D24*
X102850000Y-72100000D02*
X102750000Y-72200000D01*
D25*
X80190000Y-63400000D02*
X79990000Y-63200000D01*
D24*
X125600000Y-72100000D02*
X125700000Y-72000000D01*
X125760000Y-70240000D02*
X125700000Y-70300000D01*
X102750000Y-72200000D02*
X101700000Y-72200000D01*
D25*
X103150000Y-65200000D02*
X102950000Y-65000000D01*
D24*
X125760000Y-67700000D02*
X125710000Y-67650000D01*
D23*
X102850000Y-72100000D02*
X102850000Y-65000000D01*
D24*
X72025000Y-70000000D02*
X71400000Y-69375000D01*
X81100000Y-56430000D02*
X81100000Y-53440000D01*
X125700000Y-70300000D02*
X125700000Y-72000000D01*
X72500000Y-70000000D02*
X72025000Y-70000000D01*
D25*
X80400000Y-65200000D02*
X80390000Y-65200000D01*
D23*
X74900000Y-71850000D02*
X74900000Y-70240000D01*
D24*
X79990000Y-60080000D02*
X79990000Y-63200000D01*
X79990000Y-67650000D02*
X80040000Y-67700000D01*
X125760000Y-70240000D02*
X125760000Y-67700000D01*
D25*
X126325000Y-63400000D02*
X125710000Y-63400000D01*
X126350000Y-65200000D02*
X125710000Y-65200000D01*
D24*
X79990000Y-57540000D02*
X79990000Y-60080000D01*
X124700000Y-72100000D02*
X125600000Y-72100000D01*
D23*
X102850000Y-63400000D02*
X102850000Y-65000000D01*
D24*
X125710000Y-65200000D02*
X125710000Y-63400000D01*
X81100000Y-53440000D02*
X81400000Y-53140000D01*
D23*
X102850000Y-57540000D02*
X102850000Y-63400000D01*
D24*
X79990000Y-63200000D02*
X79990000Y-64800000D01*
X79990000Y-64800000D02*
X79990000Y-67650000D01*
X125710000Y-67650000D02*
X125710000Y-65200000D01*
D25*
X103075000Y-63400000D02*
X102850000Y-63400000D01*
D24*
X80040000Y-67700000D02*
X80040000Y-70240000D01*
X125710000Y-63400000D02*
X125710000Y-60080000D01*
X125710000Y-60080000D02*
X125710000Y-57540000D01*
D25*
X80375000Y-63400000D02*
X80190000Y-63400000D01*
X102950000Y-65000000D02*
X102850000Y-65000000D01*
X80390000Y-65200000D02*
X79990000Y-64800000D01*
D24*
X81100000Y-56430000D02*
X79990000Y-57540000D01*
G04 #@! TO.N,/P3_6*
D22*
X135870000Y-60080000D02*
X135600000Y-60350000D01*
X134700000Y-69020000D02*
X135920000Y-70240000D01*
X135600000Y-63900000D02*
X134700000Y-64800000D01*
X135600000Y-60350000D02*
X135600000Y-63900000D01*
X128260000Y-50160000D02*
X134505000Y-56405000D01*
X134505000Y-56405000D02*
X134505000Y-58715000D01*
X134700000Y-64800000D02*
X134700000Y-69020000D01*
X134505000Y-58715000D02*
X135870000Y-60080000D01*
X128260000Y-48600000D02*
X128260000Y-50160000D01*
G04 #@! TO.N,/P2_5*
X118100000Y-57530000D02*
X115550000Y-60080000D01*
X118100000Y-48600000D02*
X118100000Y-57530000D01*
X116775000Y-61305000D02*
X116775000Y-69065000D01*
X116775000Y-69065000D02*
X115600000Y-70240000D01*
X115550000Y-60080000D02*
X116775000Y-61305000D01*
G04 #@! TO.N,/P3_8*
X121900000Y-49500000D02*
X129615000Y-57215000D01*
X130790000Y-60080000D02*
X129665000Y-61205000D01*
X129615000Y-58905000D02*
X130790000Y-60080000D01*
X129615000Y-57215000D02*
X129615000Y-58905000D01*
X120640000Y-46060000D02*
X121900000Y-47320000D01*
X121900000Y-47320000D02*
X121900000Y-49500000D01*
X129665000Y-69065000D02*
X130840000Y-70240000D01*
X129665000Y-61205000D02*
X129665000Y-69065000D01*
G04 #@! TO.N,/P3_7*
X132100000Y-68960000D02*
X133380000Y-70240000D01*
X124400000Y-47280000D02*
X124400000Y-49300000D01*
X132100000Y-64000000D02*
X132100000Y-68960000D01*
X133330000Y-62770000D02*
X132100000Y-64000000D01*
X132155000Y-57055000D02*
X132155000Y-58905000D01*
X123180000Y-46060000D02*
X124400000Y-47280000D01*
X132155000Y-58905000D02*
X133330000Y-60080000D01*
X124400000Y-49300000D02*
X132155000Y-57055000D01*
X133330000Y-60080000D02*
X133330000Y-62770000D01*
G04 #@! TO.N,/P1_5*
X94300000Y-56100000D02*
X94300000Y-58470000D01*
X93915000Y-69065000D02*
X92740000Y-70240000D01*
X93915000Y-61415000D02*
X93915000Y-69065000D01*
X92690000Y-60190000D02*
X93915000Y-61415000D01*
X99000000Y-51400000D02*
X94300000Y-56100000D01*
X94300000Y-58470000D02*
X92690000Y-60080000D01*
X100320000Y-46060000D02*
X99000000Y-47380000D01*
X92690000Y-60080000D02*
X92690000Y-60190000D01*
X99000000Y-47380000D02*
X99000000Y-51400000D01*
G04 #@! TO.N,/USR_IO*
X72400000Y-53035000D02*
X72400000Y-49100000D01*
X70875000Y-54560000D02*
X72400000Y-53035000D01*
G04 #@! TO.N,/USR_SW*
X69700000Y-64575000D02*
X69900000Y-64775000D01*
X70875000Y-52020000D02*
X69700000Y-53195000D01*
X69700000Y-53195000D02*
X69700000Y-64575000D01*
X82800000Y-44800000D02*
X82800000Y-51700000D01*
G04 #@! TO.N,VDD*
D24*
X115560000Y-43940000D02*
X115700000Y-43800000D01*
X81100000Y-45200000D02*
X81100000Y-50300000D01*
X115560000Y-46060000D02*
X115560000Y-43940000D01*
X116700000Y-43800000D02*
X115700000Y-43800000D01*
X81100000Y-45200000D02*
X81900000Y-44400000D01*
X81100000Y-50300000D02*
X81400000Y-50600000D01*
G04 #@! TD*
G04 #@! TA.AperFunction,Conductor*
G04 #@! TO.N,GND*
G36*
X138904418Y-42300816D02*
G01*
X139104561Y-42315130D01*
X139122063Y-42317647D01*
X139313795Y-42359355D01*
X139330760Y-42364336D01*
X139514611Y-42432909D01*
X139530694Y-42440253D01*
X139647495Y-42504032D01*
X139702908Y-42534290D01*
X139717791Y-42543855D01*
X139874864Y-42661438D01*
X139888235Y-42673024D01*
X140026975Y-42811764D01*
X140038561Y-42825135D01*
X140156144Y-42982208D01*
X140165709Y-42997091D01*
X140259743Y-43169300D01*
X140267093Y-43185394D01*
X140335661Y-43369234D01*
X140340645Y-43386209D01*
X140382351Y-43577931D01*
X140384869Y-43595442D01*
X140399184Y-43795580D01*
X140399500Y-43804427D01*
X140399500Y-47886608D01*
X140379815Y-47953647D01*
X140327011Y-47999402D01*
X140257853Y-48009346D01*
X140194297Y-47980321D01*
X140179648Y-47965275D01*
X140177134Y-47962212D01*
X140037785Y-47822863D01*
X140037781Y-47822860D01*
X139873920Y-47713371D01*
X139873907Y-47713364D01*
X139691839Y-47637950D01*
X139691829Y-47637947D01*
X139498543Y-47599500D01*
X139498541Y-47599500D01*
X139301459Y-47599500D01*
X139301457Y-47599500D01*
X139108170Y-47637947D01*
X139108160Y-47637950D01*
X138926092Y-47713364D01*
X138926079Y-47713371D01*
X138762218Y-47822860D01*
X138762214Y-47822863D01*
X138622863Y-47962214D01*
X138622860Y-47962218D01*
X138513371Y-48126079D01*
X138513364Y-48126092D01*
X138437950Y-48308160D01*
X138437947Y-48308170D01*
X138399500Y-48501456D01*
X138399500Y-48501459D01*
X138399500Y-48698541D01*
X138399500Y-48698543D01*
X138399499Y-48698543D01*
X138437947Y-48891829D01*
X138437950Y-48891839D01*
X138513364Y-49073907D01*
X138513371Y-49073920D01*
X138622860Y-49237781D01*
X138622863Y-49237785D01*
X138762214Y-49377136D01*
X138762218Y-49377139D01*
X138926079Y-49486628D01*
X138926092Y-49486635D01*
X139057123Y-49540909D01*
X139108165Y-49562051D01*
X139108169Y-49562051D01*
X139108170Y-49562052D01*
X139301456Y-49600500D01*
X139301459Y-49600500D01*
X139498543Y-49600500D01*
X139634484Y-49573459D01*
X139691835Y-49562051D01*
X139873914Y-49486632D01*
X140037782Y-49377139D01*
X140177139Y-49237782D01*
X140177145Y-49237772D01*
X140179643Y-49234730D01*
X140181365Y-49233556D01*
X140181447Y-49233475D01*
X140181462Y-49233490D01*
X140237387Y-49195393D01*
X140307232Y-49193520D01*
X140367002Y-49229704D01*
X140397721Y-49292459D01*
X140399500Y-49313391D01*
X140399500Y-58423476D01*
X140379815Y-58490515D01*
X140327011Y-58536270D01*
X140257853Y-58546214D01*
X140194297Y-58517189D01*
X140160940Y-58470932D01*
X140153809Y-58453715D01*
X140139312Y-58418715D01*
X140139311Y-58418713D01*
X140139310Y-58418711D01*
X140139309Y-58418709D01*
X140089485Y-58344144D01*
X140089485Y-58344143D01*
X140089482Y-58344141D01*
X140070858Y-58316267D01*
X140070857Y-58316265D01*
X139980637Y-58226045D01*
X139980606Y-58226016D01*
X139796818Y-58042228D01*
X139763333Y-57980905D01*
X139760499Y-57954547D01*
X139760499Y-56642129D01*
X139760498Y-56642123D01*
X139760097Y-56638394D01*
X139754091Y-56582517D01*
X139753743Y-56581585D01*
X139703797Y-56447671D01*
X139703793Y-56447664D01*
X139617547Y-56332455D01*
X139617544Y-56332452D01*
X139502335Y-56246206D01*
X139502328Y-56246202D01*
X139367482Y-56195908D01*
X139367483Y-56195908D01*
X139307883Y-56189501D01*
X139307881Y-56189500D01*
X139307873Y-56189500D01*
X139307865Y-56189500D01*
X139159500Y-56189500D01*
X139092461Y-56169815D01*
X139046706Y-56117011D01*
X139035500Y-56065500D01*
X139035500Y-54448390D01*
X139032597Y-54433799D01*
X139032595Y-54433792D01*
X139031098Y-54426268D01*
X139023146Y-54386286D01*
X139011463Y-54327548D01*
X138972024Y-54232335D01*
X138964312Y-54213716D01*
X138964307Y-54213707D01*
X138895858Y-54111267D01*
X138895855Y-54111263D01*
X138805637Y-54021045D01*
X138805606Y-54021016D01*
X135366819Y-50582229D01*
X135333334Y-50520906D01*
X135330500Y-50494548D01*
X135330500Y-50012127D01*
X135350185Y-49945088D01*
X135402989Y-49899333D01*
X135472147Y-49889389D01*
X135492813Y-49894194D01*
X135563757Y-49917246D01*
X135773713Y-49950500D01*
X135773714Y-49950500D01*
X135986286Y-49950500D01*
X135986287Y-49950500D01*
X136196243Y-49917246D01*
X136398412Y-49851557D01*
X136587816Y-49755051D01*
X136654175Y-49706839D01*
X136759786Y-49630109D01*
X136759788Y-49630106D01*
X136759792Y-49630104D01*
X136910104Y-49479792D01*
X136910106Y-49479788D01*
X136910109Y-49479786D01*
X137026907Y-49319025D01*
X137035051Y-49307816D01*
X137131557Y-49118412D01*
X137197246Y-48916243D01*
X137230500Y-48706287D01*
X137230500Y-48493713D01*
X137197246Y-48283757D01*
X137131557Y-48081588D01*
X137035051Y-47892184D01*
X137035049Y-47892181D01*
X137035048Y-47892179D01*
X136910109Y-47720213D01*
X136796569Y-47606673D01*
X136763084Y-47545350D01*
X136768068Y-47475658D01*
X136809940Y-47419725D01*
X136840915Y-47402810D01*
X136972331Y-47353796D01*
X137087546Y-47267546D01*
X137173796Y-47152331D01*
X137224091Y-47017483D01*
X137230500Y-46957873D01*
X137230499Y-45162128D01*
X137224091Y-45102517D01*
X137222810Y-45099083D01*
X137173797Y-44967671D01*
X137173793Y-44967664D01*
X137087547Y-44852455D01*
X137087544Y-44852452D01*
X136972335Y-44766206D01*
X136972328Y-44766202D01*
X136837482Y-44715908D01*
X136837483Y-44715908D01*
X136777883Y-44709501D01*
X136777881Y-44709500D01*
X136777873Y-44709500D01*
X136777864Y-44709500D01*
X134982129Y-44709500D01*
X134982123Y-44709501D01*
X134922516Y-44715908D01*
X134787671Y-44766202D01*
X134787664Y-44766206D01*
X134672455Y-44852452D01*
X134672452Y-44852455D01*
X134586206Y-44967664D01*
X134586203Y-44967669D01*
X134537189Y-45099083D01*
X134495317Y-45155016D01*
X134429853Y-45179433D01*
X134361580Y-45164581D01*
X134333326Y-45143430D01*
X134219786Y-45029890D01*
X134047820Y-44904951D01*
X133858414Y-44808444D01*
X133858413Y-44808443D01*
X133858412Y-44808443D01*
X133656243Y-44742754D01*
X133656241Y-44742753D01*
X133656240Y-44742753D01*
X133494957Y-44717208D01*
X133446287Y-44709500D01*
X133233713Y-44709500D01*
X133185042Y-44717208D01*
X133023760Y-44742753D01*
X132821585Y-44808444D01*
X132632179Y-44904951D01*
X132460213Y-45029890D01*
X132309890Y-45180213D01*
X132184949Y-45352182D01*
X132180484Y-45360946D01*
X132132509Y-45411742D01*
X132064688Y-45428536D01*
X131998553Y-45405998D01*
X131959516Y-45360946D01*
X131955050Y-45352182D01*
X131830109Y-45180213D01*
X131679786Y-45029890D01*
X131507820Y-44904951D01*
X131318414Y-44808444D01*
X131318413Y-44808443D01*
X131318412Y-44808443D01*
X131116243Y-44742754D01*
X131116241Y-44742753D01*
X131116240Y-44742753D01*
X130954957Y-44717208D01*
X130906287Y-44709500D01*
X130693713Y-44709500D01*
X130645042Y-44717208D01*
X130483760Y-44742753D01*
X130281585Y-44808444D01*
X130092179Y-44904951D01*
X129920213Y-45029890D01*
X129769890Y-45180213D01*
X129644949Y-45352182D01*
X129640484Y-45360946D01*
X129592509Y-45411742D01*
X129524688Y-45428536D01*
X129458553Y-45405998D01*
X129419516Y-45360946D01*
X129415050Y-45352182D01*
X129290109Y-45180213D01*
X129139786Y-45029890D01*
X128967820Y-44904951D01*
X128778414Y-44808444D01*
X128778413Y-44808443D01*
X128778412Y-44808443D01*
X128576243Y-44742754D01*
X128576241Y-44742753D01*
X128576240Y-44742753D01*
X128414957Y-44717208D01*
X128366287Y-44709500D01*
X128153713Y-44709500D01*
X128105042Y-44717208D01*
X127943760Y-44742753D01*
X127741585Y-44808444D01*
X127552179Y-44904951D01*
X127380213Y-45029890D01*
X127229890Y-45180213D01*
X127104949Y-45352182D01*
X127100202Y-45361499D01*
X127052227Y-45412293D01*
X126984405Y-45429087D01*
X126918271Y-45406548D01*
X126879234Y-45361495D01*
X126874622Y-45352444D01*
X126749727Y-45180540D01*
X126749723Y-45180535D01*
X126599464Y-45030276D01*
X126599459Y-45030272D01*
X126427557Y-44905379D01*
X126238215Y-44808903D01*
X126036124Y-44743241D01*
X125970000Y-44732768D01*
X125970000Y-45626988D01*
X125912993Y-45594075D01*
X125785826Y-45560000D01*
X125654174Y-45560000D01*
X125527007Y-45594075D01*
X125470000Y-45626988D01*
X125470000Y-44732768D01*
X125469999Y-44732768D01*
X125403875Y-44743241D01*
X125201784Y-44808903D01*
X125012442Y-44905379D01*
X124840540Y-45030272D01*
X124840535Y-45030276D01*
X124690276Y-45180535D01*
X124690272Y-45180540D01*
X124565378Y-45352443D01*
X124560762Y-45361502D01*
X124512784Y-45412295D01*
X124444963Y-45429087D01*
X124378829Y-45406546D01*
X124339794Y-45361493D01*
X124335051Y-45352184D01*
X124335049Y-45352181D01*
X124335048Y-45352179D01*
X124210109Y-45180213D01*
X124059786Y-45029890D01*
X123887820Y-44904951D01*
X123698414Y-44808444D01*
X123698413Y-44808443D01*
X123698412Y-44808443D01*
X123496243Y-44742754D01*
X123496241Y-44742753D01*
X123496240Y-44742753D01*
X123334957Y-44717208D01*
X123286287Y-44709500D01*
X123073713Y-44709500D01*
X123025042Y-44717208D01*
X122863760Y-44742753D01*
X122661585Y-44808444D01*
X122472179Y-44904951D01*
X122300213Y-45029890D01*
X122149890Y-45180213D01*
X122024949Y-45352182D01*
X122020484Y-45360946D01*
X121972509Y-45411742D01*
X121904688Y-45428536D01*
X121838553Y-45405998D01*
X121799516Y-45360946D01*
X121795050Y-45352182D01*
X121670109Y-45180213D01*
X121519786Y-45029890D01*
X121347820Y-44904951D01*
X121158414Y-44808444D01*
X121158413Y-44808443D01*
X121158412Y-44808443D01*
X120956243Y-44742754D01*
X120956241Y-44742753D01*
X120956240Y-44742753D01*
X120794957Y-44717208D01*
X120746287Y-44709500D01*
X120533713Y-44709500D01*
X120485042Y-44717208D01*
X120323760Y-44742753D01*
X120121585Y-44808444D01*
X119932179Y-44904951D01*
X119760213Y-45029890D01*
X119609890Y-45180213D01*
X119484949Y-45352182D01*
X119480484Y-45360946D01*
X119432509Y-45411742D01*
X119364688Y-45428536D01*
X119298553Y-45405998D01*
X119259516Y-45360946D01*
X119255050Y-45352182D01*
X119130109Y-45180213D01*
X118979786Y-45029890D01*
X118807820Y-44904951D01*
X118618414Y-44808444D01*
X118618413Y-44808443D01*
X118618412Y-44808443D01*
X118416243Y-44742754D01*
X118416241Y-44742753D01*
X118416240Y-44742753D01*
X118254957Y-44717208D01*
X118206287Y-44709500D01*
X117993713Y-44709500D01*
X117945042Y-44717208D01*
X117783760Y-44742753D01*
X117581585Y-44808444D01*
X117392179Y-44904951D01*
X117220213Y-45029890D01*
X117069890Y-45180213D01*
X116944949Y-45352182D01*
X116940484Y-45360946D01*
X116892509Y-45411742D01*
X116824688Y-45428536D01*
X116758553Y-45405998D01*
X116719516Y-45360946D01*
X116715050Y-45352182D01*
X116590109Y-45180213D01*
X116439786Y-45029890D01*
X116311615Y-44936770D01*
X116268949Y-44881441D01*
X116260500Y-44836452D01*
X116260500Y-44778225D01*
X116280185Y-44711186D01*
X116332989Y-44665431D01*
X116402147Y-44655487D01*
X116431951Y-44663664D01*
X116437334Y-44665894D01*
X116437336Y-44665894D01*
X116437341Y-44665896D01*
X116611304Y-44700499D01*
X116611307Y-44700500D01*
X116611309Y-44700500D01*
X116788693Y-44700500D01*
X116788694Y-44700499D01*
X116846682Y-44688964D01*
X116962658Y-44665896D01*
X116962661Y-44665894D01*
X116962666Y-44665894D01*
X117126547Y-44598013D01*
X117274035Y-44499464D01*
X117399464Y-44374035D01*
X117498013Y-44226547D01*
X117565894Y-44062666D01*
X117572340Y-44030263D01*
X117600499Y-43888695D01*
X117600500Y-43888693D01*
X117600500Y-43711306D01*
X117600499Y-43711304D01*
X117565896Y-43537341D01*
X117565893Y-43537332D01*
X117498016Y-43373459D01*
X117498009Y-43373446D01*
X117399464Y-43225965D01*
X117399461Y-43225961D01*
X117274038Y-43100538D01*
X117274034Y-43100535D01*
X117126553Y-43001990D01*
X117126540Y-43001983D01*
X116962667Y-42934106D01*
X116962658Y-42934103D01*
X116788694Y-42899500D01*
X116788691Y-42899500D01*
X116611309Y-42899500D01*
X116611306Y-42899500D01*
X116437341Y-42934103D01*
X116437332Y-42934106D01*
X116273459Y-43001983D01*
X116273446Y-43001990D01*
X116268887Y-43005037D01*
X116202208Y-43025912D01*
X116134829Y-43007425D01*
X116131113Y-43005037D01*
X116126553Y-43001990D01*
X116126540Y-43001983D01*
X115962667Y-42934106D01*
X115962658Y-42934103D01*
X115788694Y-42899500D01*
X115788691Y-42899500D01*
X115611309Y-42899500D01*
X115611306Y-42899500D01*
X115437341Y-42934103D01*
X115437332Y-42934106D01*
X115273459Y-43001983D01*
X115273446Y-43001990D01*
X115125965Y-43100535D01*
X115125961Y-43100538D01*
X115000538Y-43225961D01*
X115000535Y-43225965D01*
X114901990Y-43373446D01*
X114901983Y-43373459D01*
X114834106Y-43537332D01*
X114834103Y-43537341D01*
X114799500Y-43711304D01*
X114799500Y-43888695D01*
X114834104Y-44062658D01*
X114834106Y-44062666D01*
X114845680Y-44090609D01*
X114850061Y-44101184D01*
X114859500Y-44148637D01*
X114859500Y-44836452D01*
X114839815Y-44903491D01*
X114808385Y-44936770D01*
X114680213Y-45029890D01*
X114529890Y-45180213D01*
X114404949Y-45352182D01*
X114400484Y-45360946D01*
X114352509Y-45411742D01*
X114284688Y-45428536D01*
X114218553Y-45405998D01*
X114179516Y-45360946D01*
X114175050Y-45352182D01*
X114050109Y-45180213D01*
X113899786Y-45029890D01*
X113727820Y-44904951D01*
X113538414Y-44808444D01*
X113538413Y-44808443D01*
X113538412Y-44808443D01*
X113336243Y-44742754D01*
X113336241Y-44742753D01*
X113336240Y-44742753D01*
X113174957Y-44717208D01*
X113126287Y-44709500D01*
X112913713Y-44709500D01*
X112865042Y-44717208D01*
X112703760Y-44742753D01*
X112501585Y-44808444D01*
X112312179Y-44904951D01*
X112140213Y-45029890D01*
X111989890Y-45180213D01*
X111864949Y-45352182D01*
X111860484Y-45360946D01*
X111812509Y-45411742D01*
X111744688Y-45428536D01*
X111678553Y-45405998D01*
X111639516Y-45360946D01*
X111635050Y-45352182D01*
X111510109Y-45180213D01*
X111359786Y-45029890D01*
X111187820Y-44904951D01*
X110998414Y-44808444D01*
X110998413Y-44808443D01*
X110998412Y-44808443D01*
X110796243Y-44742754D01*
X110796241Y-44742753D01*
X110796240Y-44742753D01*
X110634957Y-44717208D01*
X110586287Y-44709500D01*
X110373713Y-44709500D01*
X110325042Y-44717208D01*
X110163760Y-44742753D01*
X109961585Y-44808444D01*
X109772179Y-44904951D01*
X109600213Y-45029890D01*
X109449890Y-45180213D01*
X109324949Y-45352182D01*
X109320484Y-45360946D01*
X109272509Y-45411742D01*
X109204688Y-45428536D01*
X109138553Y-45405998D01*
X109099516Y-45360946D01*
X109095050Y-45352182D01*
X108970109Y-45180213D01*
X108819786Y-45029890D01*
X108647820Y-44904951D01*
X108458414Y-44808444D01*
X108458413Y-44808443D01*
X108458412Y-44808443D01*
X108256243Y-44742754D01*
X108256241Y-44742753D01*
X108256240Y-44742753D01*
X108094957Y-44717208D01*
X108046287Y-44709500D01*
X107833713Y-44709500D01*
X107785042Y-44717208D01*
X107623760Y-44742753D01*
X107421585Y-44808444D01*
X107232179Y-44904951D01*
X107060213Y-45029890D01*
X106909890Y-45180213D01*
X106784949Y-45352182D01*
X106780202Y-45361499D01*
X106732227Y-45412293D01*
X106664405Y-45429087D01*
X106598271Y-45406548D01*
X106559234Y-45361495D01*
X106554622Y-45352444D01*
X106429727Y-45180540D01*
X106429723Y-45180535D01*
X106279464Y-45030276D01*
X106279459Y-45030272D01*
X106107557Y-44905379D01*
X105918215Y-44808903D01*
X105716124Y-44743241D01*
X105650000Y-44732768D01*
X105650000Y-45626988D01*
X105592993Y-45594075D01*
X105465826Y-45560000D01*
X105334174Y-45560000D01*
X105207007Y-45594075D01*
X105150000Y-45626988D01*
X105150000Y-44732768D01*
X105149999Y-44732768D01*
X105083875Y-44743241D01*
X104881784Y-44808903D01*
X104692442Y-44905379D01*
X104520540Y-45030272D01*
X104520535Y-45030276D01*
X104370276Y-45180535D01*
X104370272Y-45180540D01*
X104245378Y-45352443D01*
X104240762Y-45361502D01*
X104192784Y-45412295D01*
X104124963Y-45429087D01*
X104058829Y-45406546D01*
X104019794Y-45361493D01*
X104015051Y-45352184D01*
X104015049Y-45352181D01*
X104015048Y-45352179D01*
X103890109Y-45180213D01*
X103739786Y-45029890D01*
X103567820Y-44904951D01*
X103378414Y-44808444D01*
X103378413Y-44808443D01*
X103378412Y-44808443D01*
X103176243Y-44742754D01*
X103176241Y-44742753D01*
X103176240Y-44742753D01*
X103014957Y-44717208D01*
X102966287Y-44709500D01*
X102753713Y-44709500D01*
X102705042Y-44717208D01*
X102543760Y-44742753D01*
X102341585Y-44808444D01*
X102152179Y-44904951D01*
X101980213Y-45029890D01*
X101829890Y-45180213D01*
X101704949Y-45352182D01*
X101700484Y-45360946D01*
X101652509Y-45411742D01*
X101584688Y-45428536D01*
X101518553Y-45405998D01*
X101479516Y-45360946D01*
X101475050Y-45352182D01*
X101350109Y-45180213D01*
X101199786Y-45029890D01*
X101027820Y-44904951D01*
X100838414Y-44808444D01*
X100838413Y-44808443D01*
X100838412Y-44808443D01*
X100636243Y-44742754D01*
X100636241Y-44742753D01*
X100636240Y-44742753D01*
X100474957Y-44717208D01*
X100426287Y-44709500D01*
X100213713Y-44709500D01*
X100165042Y-44717208D01*
X100003760Y-44742753D01*
X99801585Y-44808444D01*
X99612179Y-44904951D01*
X99440213Y-45029890D01*
X99289890Y-45180213D01*
X99164949Y-45352182D01*
X99160484Y-45360946D01*
X99112509Y-45411742D01*
X99044688Y-45428536D01*
X98978553Y-45405998D01*
X98939516Y-45360946D01*
X98935050Y-45352182D01*
X98810109Y-45180213D01*
X98659786Y-45029890D01*
X98487820Y-44904951D01*
X98298414Y-44808444D01*
X98298413Y-44808443D01*
X98298412Y-44808443D01*
X98096243Y-44742754D01*
X98096241Y-44742753D01*
X98096240Y-44742753D01*
X97934957Y-44717208D01*
X97886287Y-44709500D01*
X97673713Y-44709500D01*
X97625042Y-44717208D01*
X97463760Y-44742753D01*
X97261585Y-44808444D01*
X97072179Y-44904951D01*
X96900213Y-45029890D01*
X96749890Y-45180213D01*
X96624949Y-45352182D01*
X96620484Y-45360946D01*
X96572509Y-45411742D01*
X96504688Y-45428536D01*
X96438553Y-45405998D01*
X96399516Y-45360946D01*
X96395050Y-45352182D01*
X96270109Y-45180213D01*
X96119786Y-45029890D01*
X95947820Y-44904951D01*
X95758414Y-44808444D01*
X95758413Y-44808443D01*
X95758412Y-44808443D01*
X95556243Y-44742754D01*
X95556241Y-44742753D01*
X95556240Y-44742753D01*
X95394957Y-44717208D01*
X95346287Y-44709500D01*
X95133713Y-44709500D01*
X95085042Y-44717208D01*
X94923760Y-44742753D01*
X94721585Y-44808444D01*
X94532179Y-44904951D01*
X94360213Y-45029890D01*
X94209890Y-45180213D01*
X94084949Y-45352182D01*
X94080484Y-45360946D01*
X94032509Y-45411742D01*
X93964688Y-45428536D01*
X93898553Y-45405998D01*
X93859516Y-45360946D01*
X93855050Y-45352182D01*
X93730109Y-45180213D01*
X93579786Y-45029890D01*
X93407820Y-44904951D01*
X93218414Y-44808444D01*
X93218413Y-44808443D01*
X93218412Y-44808443D01*
X93016243Y-44742754D01*
X93016241Y-44742753D01*
X93016240Y-44742753D01*
X92854957Y-44717208D01*
X92806287Y-44709500D01*
X92593713Y-44709500D01*
X92545042Y-44717208D01*
X92383760Y-44742753D01*
X92181585Y-44808444D01*
X91992179Y-44904951D01*
X91820213Y-45029890D01*
X91669890Y-45180213D01*
X91544949Y-45352182D01*
X91540484Y-45360946D01*
X91492509Y-45411742D01*
X91424688Y-45428536D01*
X91358553Y-45405998D01*
X91319516Y-45360946D01*
X91315050Y-45352182D01*
X91190109Y-45180213D01*
X91039786Y-45029890D01*
X90867820Y-44904951D01*
X90678414Y-44808444D01*
X90678413Y-44808443D01*
X90678412Y-44808443D01*
X90476243Y-44742754D01*
X90476241Y-44742753D01*
X90476240Y-44742753D01*
X90314957Y-44717208D01*
X90266287Y-44709500D01*
X90053713Y-44709500D01*
X90005042Y-44717208D01*
X89843760Y-44742753D01*
X89641585Y-44808444D01*
X89452179Y-44904951D01*
X89280213Y-45029890D01*
X89129890Y-45180213D01*
X89004949Y-45352182D01*
X89000202Y-45361499D01*
X88952227Y-45412293D01*
X88884405Y-45429087D01*
X88818271Y-45406548D01*
X88779234Y-45361495D01*
X88774622Y-45352444D01*
X88649727Y-45180540D01*
X88649723Y-45180535D01*
X88499464Y-45030276D01*
X88499459Y-45030272D01*
X88327557Y-44905379D01*
X88138215Y-44808903D01*
X87936124Y-44743241D01*
X87870000Y-44732768D01*
X87870000Y-45626988D01*
X87812993Y-45594075D01*
X87685826Y-45560000D01*
X87554174Y-45560000D01*
X87427007Y-45594075D01*
X87370000Y-45626988D01*
X87370000Y-44732768D01*
X87369999Y-44732768D01*
X87303875Y-44743241D01*
X87101784Y-44808903D01*
X86912442Y-44905379D01*
X86740540Y-45030272D01*
X86740535Y-45030276D01*
X86590276Y-45180535D01*
X86590272Y-45180540D01*
X86465379Y-45352442D01*
X86368904Y-45541782D01*
X86303242Y-45743870D01*
X86303242Y-45743873D01*
X86292769Y-45810000D01*
X87186988Y-45810000D01*
X87154075Y-45867007D01*
X87120000Y-45994174D01*
X87120000Y-46125826D01*
X87154075Y-46252993D01*
X87186988Y-46310000D01*
X86292769Y-46310000D01*
X86303242Y-46376126D01*
X86303242Y-46376129D01*
X86368904Y-46578217D01*
X86465379Y-46767557D01*
X86590272Y-46939459D01*
X86590276Y-46939464D01*
X86740535Y-47089723D01*
X86740540Y-47089727D01*
X86912444Y-47214622D01*
X86921495Y-47219234D01*
X86972292Y-47267208D01*
X86989087Y-47335029D01*
X86966550Y-47401164D01*
X86921499Y-47440202D01*
X86912182Y-47444949D01*
X86740213Y-47569890D01*
X86589890Y-47720213D01*
X86464951Y-47892179D01*
X86368444Y-48081585D01*
X86302753Y-48283760D01*
X86285830Y-48390609D01*
X86269500Y-48493713D01*
X86269500Y-48706287D01*
X86279534Y-48769644D01*
X86298888Y-48891839D01*
X86302754Y-48916243D01*
X86353982Y-49073907D01*
X86368444Y-49118414D01*
X86464951Y-49307820D01*
X86589890Y-49479786D01*
X86740213Y-49630109D01*
X86912179Y-49755048D01*
X86912181Y-49755049D01*
X86912184Y-49755051D01*
X87101588Y-49851557D01*
X87303757Y-49917246D01*
X87490196Y-49946775D01*
X87553331Y-49976704D01*
X87590262Y-50036016D01*
X87589264Y-50105878D01*
X87558479Y-50156929D01*
X84671270Y-53044139D01*
X84584144Y-53131264D01*
X84584138Y-53131272D01*
X84515690Y-53233708D01*
X84515689Y-53233710D01*
X84487706Y-53301269D01*
X84472807Y-53337240D01*
X84472807Y-53337241D01*
X84468538Y-53347547D01*
X84468536Y-53347552D01*
X84445278Y-53464486D01*
X84445274Y-53464503D01*
X84444500Y-53468388D01*
X84444500Y-56267019D01*
X84424815Y-56334058D01*
X84376797Y-56377503D01*
X84362180Y-56384950D01*
X84190213Y-56509890D01*
X84039890Y-56660213D01*
X83914949Y-56832182D01*
X83910202Y-56841499D01*
X83862227Y-56892293D01*
X83794405Y-56909087D01*
X83728271Y-56886548D01*
X83689234Y-56841495D01*
X83684622Y-56832444D01*
X83559727Y-56660540D01*
X83559723Y-56660535D01*
X83409464Y-56510276D01*
X83409459Y-56510272D01*
X83237557Y-56385379D01*
X83048215Y-56288903D01*
X82846124Y-56223241D01*
X82780000Y-56212768D01*
X82780000Y-57106988D01*
X82722993Y-57074075D01*
X82595826Y-57040000D01*
X82464174Y-57040000D01*
X82337007Y-57074075D01*
X82280000Y-57106988D01*
X82280000Y-56212768D01*
X82279999Y-56212768D01*
X82213875Y-56223241D01*
X82011783Y-56288903D01*
X82011779Y-56288905D01*
X81980794Y-56304693D01*
X81912124Y-56317589D01*
X81847384Y-56291312D01*
X81807128Y-56234205D01*
X81800500Y-56194208D01*
X81800500Y-54614499D01*
X81820185Y-54547460D01*
X81872989Y-54501705D01*
X81924500Y-54490499D01*
X82297871Y-54490499D01*
X82297872Y-54490499D01*
X82357483Y-54484091D01*
X82492331Y-54433796D01*
X82492333Y-54433794D01*
X82492338Y-54433792D01*
X82605483Y-54349090D01*
X82607546Y-54347546D01*
X82693796Y-54232331D01*
X82744091Y-54097483D01*
X82750500Y-54037873D01*
X82750499Y-52624499D01*
X82770184Y-52557461D01*
X82822987Y-52511706D01*
X82874499Y-52500500D01*
X82878844Y-52500500D01*
X82878845Y-52500499D01*
X83033497Y-52469737D01*
X83179179Y-52409394D01*
X83310289Y-52321789D01*
X83421789Y-52210289D01*
X83509394Y-52079179D01*
X83569737Y-51933497D01*
X83600500Y-51778842D01*
X83600500Y-51621158D01*
X83600500Y-51621155D01*
X83600499Y-51621153D01*
X83569738Y-51466510D01*
X83569737Y-51466503D01*
X83509394Y-51320821D01*
X83446397Y-51226539D01*
X83425520Y-51159863D01*
X83425500Y-51157650D01*
X83425500Y-45342350D01*
X83445185Y-45275311D01*
X83446398Y-45273459D01*
X83449797Y-45268372D01*
X83509394Y-45179179D01*
X83569737Y-45033497D01*
X83600500Y-44878842D01*
X83600500Y-44721158D01*
X83600500Y-44721155D01*
X83600499Y-44721153D01*
X83596391Y-44700499D01*
X83569737Y-44566503D01*
X83542413Y-44500536D01*
X83509397Y-44420827D01*
X83509390Y-44420814D01*
X83421789Y-44289711D01*
X83421786Y-44289707D01*
X83310292Y-44178213D01*
X83310288Y-44178210D01*
X83179185Y-44090609D01*
X83179172Y-44090602D01*
X83033501Y-44030264D01*
X83033489Y-44030261D01*
X82878845Y-43999500D01*
X82878842Y-43999500D01*
X82781697Y-43999500D01*
X82714658Y-43979815D01*
X82678595Y-43944391D01*
X82599464Y-43825965D01*
X82599461Y-43825961D01*
X82474038Y-43700538D01*
X82474034Y-43700535D01*
X82326553Y-43601990D01*
X82326540Y-43601983D01*
X82162667Y-43534106D01*
X82162658Y-43534103D01*
X81988694Y-43499500D01*
X81988691Y-43499500D01*
X81811309Y-43499500D01*
X81811306Y-43499500D01*
X81637341Y-43534103D01*
X81637332Y-43534106D01*
X81473459Y-43601983D01*
X81473446Y-43601990D01*
X81325965Y-43700535D01*
X81325961Y-43700538D01*
X81200538Y-43825961D01*
X81200535Y-43825965D01*
X81101990Y-43973446D01*
X81101983Y-43973459D01*
X81034106Y-44137332D01*
X81034104Y-44137338D01*
X81017622Y-44220198D01*
X80985236Y-44282108D01*
X80924520Y-44316682D01*
X80920198Y-44317622D01*
X80837338Y-44334104D01*
X80837332Y-44334106D01*
X80673459Y-44401983D01*
X80673446Y-44401990D01*
X80525965Y-44500535D01*
X80525961Y-44500538D01*
X80400538Y-44625961D01*
X80400535Y-44625965D01*
X80301990Y-44773446D01*
X80301983Y-44773459D01*
X80234106Y-44937332D01*
X80234103Y-44937341D01*
X80199500Y-45111304D01*
X80199500Y-45288695D01*
X80234103Y-45462658D01*
X80234106Y-45462667D01*
X80301984Y-45626542D01*
X80301985Y-45626543D01*
X80301987Y-45626547D01*
X80324274Y-45659901D01*
X80378602Y-45741208D01*
X80399480Y-45807885D01*
X80399500Y-45810099D01*
X80399500Y-49639800D01*
X80379815Y-49706839D01*
X80370506Y-49719365D01*
X80244951Y-49892179D01*
X80148444Y-50081585D01*
X80082753Y-50283760D01*
X80054585Y-50461606D01*
X80049500Y-50493713D01*
X80049500Y-50706287D01*
X80050651Y-50713553D01*
X80077941Y-50885859D01*
X80082754Y-50916243D01*
X80142878Y-51101286D01*
X80148444Y-51118414D01*
X80244951Y-51307820D01*
X80369890Y-51479786D01*
X80483430Y-51593326D01*
X80516915Y-51654649D01*
X80511931Y-51724341D01*
X80470059Y-51780274D01*
X80439083Y-51797189D01*
X80307669Y-51846203D01*
X80307664Y-51846206D01*
X80192455Y-51932452D01*
X80192452Y-51932455D01*
X80106206Y-52047664D01*
X80106202Y-52047671D01*
X80055908Y-52182517D01*
X80049501Y-52242116D01*
X80049500Y-52242135D01*
X80049500Y-54037870D01*
X80049501Y-54037876D01*
X80055908Y-54097483D01*
X80106202Y-54232328D01*
X80106206Y-54232335D01*
X80192452Y-54347544D01*
X80192455Y-54347547D01*
X80307665Y-54433794D01*
X80307667Y-54433794D01*
X80307669Y-54433796D01*
X80318830Y-54437958D01*
X80374764Y-54479826D01*
X80399184Y-54545289D01*
X80399500Y-54554141D01*
X80399500Y-56088479D01*
X80379815Y-56155518D01*
X80363168Y-56176173D01*
X80359835Y-56179505D01*
X80298507Y-56212981D01*
X80252769Y-56214284D01*
X80126012Y-56194208D01*
X80096287Y-56189500D01*
X79883713Y-56189500D01*
X79835042Y-56197208D01*
X79673760Y-56222753D01*
X79471585Y-56288444D01*
X79282179Y-56384951D01*
X79110213Y-56509890D01*
X78959890Y-56660213D01*
X78834951Y-56832179D01*
X78738444Y-57021585D01*
X78672753Y-57223760D01*
X78653233Y-57347007D01*
X78639500Y-57433713D01*
X78639500Y-57646287D01*
X78672754Y-57856243D01*
X78733184Y-58042228D01*
X78738444Y-58058414D01*
X78834951Y-58247820D01*
X78959890Y-58419786D01*
X79110211Y-58570107D01*
X79178633Y-58619817D01*
X79238385Y-58663229D01*
X79281051Y-58718558D01*
X79289500Y-58763547D01*
X79289500Y-58856452D01*
X79269815Y-58923491D01*
X79238385Y-58956770D01*
X79110213Y-59049890D01*
X78959890Y-59200213D01*
X78834951Y-59372179D01*
X78738444Y-59561585D01*
X78672753Y-59763760D01*
X78671291Y-59772993D01*
X78639500Y-59973713D01*
X78639500Y-60186287D01*
X78672754Y-60396243D01*
X78738107Y-60597379D01*
X78738444Y-60598414D01*
X78834951Y-60787820D01*
X78959890Y-60959786D01*
X79110211Y-61110107D01*
X79127345Y-61122555D01*
X79238385Y-61203229D01*
X79281051Y-61258558D01*
X79289500Y-61303547D01*
X79289500Y-66512779D01*
X79269815Y-66579818D01*
X79238385Y-66613097D01*
X79160211Y-66669893D01*
X79160205Y-66669898D01*
X79009890Y-66820213D01*
X78884951Y-66992179D01*
X78788444Y-67181585D01*
X78722753Y-67383760D01*
X78703233Y-67507007D01*
X78689500Y-67593713D01*
X78689500Y-67806287D01*
X78722754Y-68016243D01*
X78781716Y-68197710D01*
X78788444Y-68218414D01*
X78884951Y-68407820D01*
X79009890Y-68579786D01*
X79160211Y-68730107D01*
X79231200Y-68781682D01*
X79288385Y-68823229D01*
X79331051Y-68878558D01*
X79339500Y-68923547D01*
X79339500Y-69016452D01*
X79319815Y-69083491D01*
X79288385Y-69116770D01*
X79160213Y-69209890D01*
X79009890Y-69360213D01*
X78884951Y-69532179D01*
X78788444Y-69721585D01*
X78722753Y-69923760D01*
X78689500Y-70133713D01*
X78689500Y-70346286D01*
X78721504Y-70548355D01*
X78722754Y-70556243D01*
X78783258Y-70742455D01*
X78788444Y-70758414D01*
X78884951Y-70947820D01*
X79009890Y-71119786D01*
X79160213Y-71270109D01*
X79332179Y-71395048D01*
X79332181Y-71395049D01*
X79332184Y-71395051D01*
X79521588Y-71491557D01*
X79723757Y-71557246D01*
X79933713Y-71590500D01*
X79933714Y-71590500D01*
X80146286Y-71590500D01*
X80146287Y-71590500D01*
X80356243Y-71557246D01*
X80558412Y-71491557D01*
X80747816Y-71395051D01*
X80784352Y-71368506D01*
X80919786Y-71270109D01*
X80919788Y-71270106D01*
X80919792Y-71270104D01*
X81070104Y-71119792D01*
X81070106Y-71119788D01*
X81070109Y-71119786D01*
X81195048Y-70947820D01*
X81195051Y-70947816D01*
X81199793Y-70938508D01*
X81247763Y-70887711D01*
X81315583Y-70870911D01*
X81381719Y-70893445D01*
X81420763Y-70938500D01*
X81425377Y-70947555D01*
X81550272Y-71119459D01*
X81550276Y-71119464D01*
X81700535Y-71269723D01*
X81700540Y-71269727D01*
X81872442Y-71394620D01*
X82061782Y-71491095D01*
X82263871Y-71556757D01*
X82330000Y-71567231D01*
X82330000Y-70673012D01*
X82387007Y-70705925D01*
X82514174Y-70740000D01*
X82645826Y-70740000D01*
X82772993Y-70705925D01*
X82830000Y-70673012D01*
X82830000Y-71567230D01*
X82896126Y-71556757D01*
X82896129Y-71556757D01*
X83098217Y-71491095D01*
X83287557Y-71394620D01*
X83459459Y-71269727D01*
X83459464Y-71269723D01*
X83609723Y-71119464D01*
X83609727Y-71119459D01*
X83734620Y-70947558D01*
X83739232Y-70938507D01*
X83787205Y-70887709D01*
X83855025Y-70870912D01*
X83921161Y-70893447D01*
X83960204Y-70938504D01*
X83964949Y-70947817D01*
X84089890Y-71119786D01*
X84240213Y-71270109D01*
X84412179Y-71395048D01*
X84412181Y-71395049D01*
X84412184Y-71395051D01*
X84601588Y-71491557D01*
X84803757Y-71557246D01*
X85013713Y-71590500D01*
X85013714Y-71590500D01*
X85226286Y-71590500D01*
X85226287Y-71590500D01*
X85436243Y-71557246D01*
X85638412Y-71491557D01*
X85827816Y-71395051D01*
X85864352Y-71368506D01*
X85999786Y-71270109D01*
X85999788Y-71270106D01*
X85999792Y-71270104D01*
X86150104Y-71119792D01*
X86150106Y-71119788D01*
X86150109Y-71119786D01*
X86275048Y-70947820D01*
X86275047Y-70947820D01*
X86275051Y-70947816D01*
X86279514Y-70939054D01*
X86327488Y-70888259D01*
X86395308Y-70871463D01*
X86461444Y-70893999D01*
X86500486Y-70939056D01*
X86504951Y-70947820D01*
X86629890Y-71119786D01*
X86780213Y-71270109D01*
X86952179Y-71395048D01*
X86952181Y-71395049D01*
X86952184Y-71395051D01*
X87141588Y-71491557D01*
X87343757Y-71557246D01*
X87553713Y-71590500D01*
X87553714Y-71590500D01*
X87766286Y-71590500D01*
X87766287Y-71590500D01*
X87976243Y-71557246D01*
X88178412Y-71491557D01*
X88367816Y-71395051D01*
X88404352Y-71368506D01*
X88539786Y-71270109D01*
X88539788Y-71270106D01*
X88539792Y-71270104D01*
X88690104Y-71119792D01*
X88690106Y-71119788D01*
X88690109Y-71119786D01*
X88815048Y-70947820D01*
X88815047Y-70947820D01*
X88815051Y-70947816D01*
X88819514Y-70939054D01*
X88867488Y-70888259D01*
X88935308Y-70871463D01*
X89001444Y-70893999D01*
X89040486Y-70939056D01*
X89044951Y-70947820D01*
X89169890Y-71119786D01*
X89320213Y-71270109D01*
X89492179Y-71395048D01*
X89492181Y-71395049D01*
X89492184Y-71395051D01*
X89681588Y-71491557D01*
X89883757Y-71557246D01*
X90093713Y-71590500D01*
X90093714Y-71590500D01*
X90306286Y-71590500D01*
X90306287Y-71590500D01*
X90516243Y-71557246D01*
X90718412Y-71491557D01*
X90907816Y-71395051D01*
X90944352Y-71368506D01*
X91079786Y-71270109D01*
X91079788Y-71270106D01*
X91079792Y-71270104D01*
X91230104Y-71119792D01*
X91230106Y-71119788D01*
X91230109Y-71119786D01*
X91355048Y-70947820D01*
X91355047Y-70947820D01*
X91355051Y-70947816D01*
X91359514Y-70939054D01*
X91407488Y-70888259D01*
X91475308Y-70871463D01*
X91541444Y-70893999D01*
X91580486Y-70939056D01*
X91584951Y-70947820D01*
X91709890Y-71119786D01*
X91860213Y-71270109D01*
X92032179Y-71395048D01*
X92032181Y-71395049D01*
X92032184Y-71395051D01*
X92221588Y-71491557D01*
X92423757Y-71557246D01*
X92633713Y-71590500D01*
X92633714Y-71590500D01*
X92846286Y-71590500D01*
X92846287Y-71590500D01*
X93056243Y-71557246D01*
X93258412Y-71491557D01*
X93447816Y-71395051D01*
X93484352Y-71368506D01*
X93619786Y-71270109D01*
X93619788Y-71270106D01*
X93619792Y-71270104D01*
X93770104Y-71119792D01*
X93770106Y-71119788D01*
X93770109Y-71119786D01*
X93895048Y-70947820D01*
X93895047Y-70947820D01*
X93895051Y-70947816D01*
X93899514Y-70939054D01*
X93947488Y-70888259D01*
X94015308Y-70871463D01*
X94081444Y-70893999D01*
X94120486Y-70939056D01*
X94124951Y-70947820D01*
X94249890Y-71119786D01*
X94400213Y-71270109D01*
X94572179Y-71395048D01*
X94572181Y-71395049D01*
X94572184Y-71395051D01*
X94761588Y-71491557D01*
X94963757Y-71557246D01*
X95173713Y-71590500D01*
X95173714Y-71590500D01*
X95386286Y-71590500D01*
X95386287Y-71590500D01*
X95596243Y-71557246D01*
X95798412Y-71491557D01*
X95987816Y-71395051D01*
X96112373Y-71304556D01*
X96159784Y-71270110D01*
X96159784Y-71270109D01*
X96159792Y-71270104D01*
X96273329Y-71156566D01*
X96334648Y-71123084D01*
X96404340Y-71128068D01*
X96460274Y-71169939D01*
X96477189Y-71200917D01*
X96526202Y-71332328D01*
X96526206Y-71332335D01*
X96612452Y-71447544D01*
X96612455Y-71447547D01*
X96727664Y-71533793D01*
X96727671Y-71533797D01*
X96862517Y-71584091D01*
X96862516Y-71584091D01*
X96869444Y-71584835D01*
X96922127Y-71590500D01*
X98717872Y-71590499D01*
X98777483Y-71584091D01*
X98912331Y-71533796D01*
X99027546Y-71447546D01*
X99113796Y-71332331D01*
X99164091Y-71197483D01*
X99170500Y-71137873D01*
X99170499Y-69342128D01*
X99164091Y-69282517D01*
X99162810Y-69279083D01*
X99113797Y-69147671D01*
X99113793Y-69147664D01*
X99027547Y-69032455D01*
X99027544Y-69032452D01*
X98912335Y-68946206D01*
X98912328Y-68946202D01*
X98777482Y-68895908D01*
X98777483Y-68895908D01*
X98717883Y-68889501D01*
X98717881Y-68889500D01*
X98717873Y-68889500D01*
X98717865Y-68889500D01*
X98519500Y-68889500D01*
X98452461Y-68869815D01*
X98406706Y-68817011D01*
X98395500Y-68765500D01*
X98395500Y-61554499D01*
X98415185Y-61487460D01*
X98467989Y-61441705D01*
X98519500Y-61430499D01*
X98667871Y-61430499D01*
X98667872Y-61430499D01*
X98727483Y-61424091D01*
X98862331Y-61373796D01*
X98977546Y-61287546D01*
X99063796Y-61172331D01*
X99114091Y-61037483D01*
X99120500Y-60977873D01*
X99120499Y-59665452D01*
X99140184Y-59598414D01*
X99156812Y-59577778D01*
X99185858Y-59548733D01*
X99254312Y-59446285D01*
X99293588Y-59351463D01*
X99301463Y-59332452D01*
X99312720Y-59275858D01*
X99325501Y-59211606D01*
X99325501Y-59088393D01*
X99325501Y-59083283D01*
X99325500Y-59083257D01*
X99325500Y-57010451D01*
X99345185Y-56943412D01*
X99361815Y-56922774D01*
X99958797Y-56325791D01*
X100020118Y-56292308D01*
X100022128Y-56291889D01*
X100133497Y-56269737D01*
X100267716Y-56214142D01*
X100279172Y-56209397D01*
X100279172Y-56209396D01*
X100279179Y-56209394D01*
X100410289Y-56121789D01*
X100521789Y-56010289D01*
X100609394Y-55879179D01*
X100669737Y-55733497D01*
X100700500Y-55578842D01*
X100700500Y-55421158D01*
X100700500Y-55421155D01*
X100700499Y-55421153D01*
X100699197Y-55414606D01*
X100669737Y-55266503D01*
X100650955Y-55221158D01*
X100609397Y-55120827D01*
X100609390Y-55120814D01*
X100521789Y-54989711D01*
X100521786Y-54989707D01*
X100410292Y-54878213D01*
X100410288Y-54878210D01*
X100279185Y-54790609D01*
X100279172Y-54790602D01*
X100133501Y-54730264D01*
X100133489Y-54730261D01*
X99978845Y-54699500D01*
X99978842Y-54699500D01*
X99821158Y-54699500D01*
X99821155Y-54699500D01*
X99666510Y-54730261D01*
X99666498Y-54730264D01*
X99520827Y-54790602D01*
X99520814Y-54790609D01*
X99389711Y-54878210D01*
X99389707Y-54878213D01*
X99278213Y-54989707D01*
X99278210Y-54989711D01*
X99190609Y-55120814D01*
X99190602Y-55120827D01*
X99130264Y-55266498D01*
X99130261Y-55266508D01*
X99108141Y-55377714D01*
X99075756Y-55439625D01*
X99074205Y-55441203D01*
X98685409Y-55830000D01*
X98301270Y-56214139D01*
X98301267Y-56214142D01*
X98269207Y-56246202D01*
X98214142Y-56301266D01*
X98185993Y-56343395D01*
X98185992Y-56343396D01*
X98145690Y-56403709D01*
X98145685Y-56403718D01*
X98124955Y-56453768D01*
X98112347Y-56484207D01*
X98106823Y-56497543D01*
X98098537Y-56517545D01*
X98098535Y-56517553D01*
X98074500Y-56638389D01*
X98074500Y-58605500D01*
X98054815Y-58672539D01*
X98002011Y-58718294D01*
X97950500Y-58729500D01*
X96872129Y-58729500D01*
X96872123Y-58729501D01*
X96812515Y-58735909D01*
X96717832Y-58771223D01*
X96648141Y-58776207D01*
X96586818Y-58742721D01*
X96553334Y-58681398D01*
X96550500Y-58655041D01*
X96550500Y-56520807D01*
X96570185Y-56453768D01*
X96586814Y-56433131D01*
X103060371Y-49959573D01*
X103121692Y-49926090D01*
X103128612Y-49924789D01*
X103176243Y-49917246D01*
X103378412Y-49851557D01*
X103567816Y-49755051D01*
X103634175Y-49706839D01*
X103739786Y-49630109D01*
X103739788Y-49630106D01*
X103739792Y-49630104D01*
X103890104Y-49479792D01*
X103890106Y-49479788D01*
X103890109Y-49479786D01*
X104006907Y-49319025D01*
X104015051Y-49307816D01*
X104019514Y-49299054D01*
X104067488Y-49248259D01*
X104135308Y-49231463D01*
X104201444Y-49253999D01*
X104240486Y-49299056D01*
X104244951Y-49307820D01*
X104369890Y-49479786D01*
X104520213Y-49630109D01*
X104692181Y-49755050D01*
X104703897Y-49761019D01*
X104705498Y-49761835D01*
X104706792Y-49762494D01*
X104757589Y-49810467D01*
X104774500Y-49872980D01*
X104774500Y-54935040D01*
X104765061Y-54982492D01*
X104730263Y-55066501D01*
X104730260Y-55066511D01*
X104699500Y-55221153D01*
X104699500Y-55378846D01*
X104730261Y-55533489D01*
X104730264Y-55533501D01*
X104790602Y-55679172D01*
X104790609Y-55679185D01*
X104878210Y-55810288D01*
X104878213Y-55810292D01*
X104989710Y-55921789D01*
X105108227Y-56000979D01*
X105153032Y-56054591D01*
X105161739Y-56123916D01*
X105131585Y-56186943D01*
X105077655Y-56222012D01*
X104871781Y-56288905D01*
X104682442Y-56385379D01*
X104510540Y-56510272D01*
X104510535Y-56510276D01*
X104360276Y-56660535D01*
X104360272Y-56660540D01*
X104235378Y-56832443D01*
X104230762Y-56841502D01*
X104182784Y-56892295D01*
X104114963Y-56909087D01*
X104048829Y-56886546D01*
X104009794Y-56841493D01*
X104005051Y-56832184D01*
X104005049Y-56832181D01*
X104005048Y-56832179D01*
X103880109Y-56660213D01*
X103729786Y-56509890D01*
X103557820Y-56384951D01*
X103368414Y-56288444D01*
X103368413Y-56288443D01*
X103368412Y-56288443D01*
X103166243Y-56222754D01*
X103166241Y-56222753D01*
X103166240Y-56222753D01*
X103004957Y-56197208D01*
X102956287Y-56189500D01*
X102743713Y-56189500D01*
X102695042Y-56197208D01*
X102533760Y-56222753D01*
X102331585Y-56288444D01*
X102142179Y-56384951D01*
X101970213Y-56509890D01*
X101819890Y-56660213D01*
X101694951Y-56832179D01*
X101598444Y-57021585D01*
X101532753Y-57223760D01*
X101513233Y-57347007D01*
X101499500Y-57433713D01*
X101499500Y-57646287D01*
X101532754Y-57856243D01*
X101593184Y-58042228D01*
X101598444Y-58058414D01*
X101694951Y-58247820D01*
X101819890Y-58419786D01*
X101819896Y-58419792D01*
X101970208Y-58570104D01*
X102142184Y-58695051D01*
X102142188Y-58695053D01*
X102146126Y-58697914D01*
X102145146Y-58699262D01*
X102187160Y-58745690D01*
X102199500Y-58799617D01*
X102199500Y-58820382D01*
X102179815Y-58887421D01*
X102145408Y-58921099D01*
X102146125Y-58922085D01*
X101970213Y-59049890D01*
X101819890Y-59200213D01*
X101694951Y-59372179D01*
X101598444Y-59561585D01*
X101532753Y-59763760D01*
X101531291Y-59772993D01*
X101499500Y-59973713D01*
X101499500Y-60186287D01*
X101532754Y-60396243D01*
X101598107Y-60597379D01*
X101598444Y-60598414D01*
X101694951Y-60787820D01*
X101819890Y-60959786D01*
X101819896Y-60959792D01*
X101970208Y-61110104D01*
X102142184Y-61235051D01*
X102142188Y-61235053D01*
X102146126Y-61237914D01*
X102145146Y-61239262D01*
X102187160Y-61285690D01*
X102199500Y-61339617D01*
X102199500Y-62789143D01*
X102189512Y-62834196D01*
X102190268Y-62834447D01*
X102134651Y-63002288D01*
X102124500Y-63101647D01*
X102124500Y-63698337D01*
X102124501Y-63698355D01*
X102134650Y-63797707D01*
X102134651Y-63797710D01*
X102166405Y-63893538D01*
X102181269Y-63938394D01*
X102190269Y-63965552D01*
X102189512Y-63965802D01*
X102199500Y-64010855D01*
X102199500Y-64432993D01*
X102193206Y-64471997D01*
X102160001Y-64572203D01*
X102160000Y-64572204D01*
X102149500Y-64674983D01*
X102149500Y-65725001D01*
X102149501Y-65725019D01*
X102160000Y-65827796D01*
X102193206Y-65928001D01*
X102199500Y-65967006D01*
X102199500Y-66476452D01*
X102179815Y-66543491D01*
X102148385Y-66576770D01*
X102020213Y-66669890D01*
X101869890Y-66820213D01*
X101744951Y-66992179D01*
X101648444Y-67181585D01*
X101582753Y-67383760D01*
X101563233Y-67507007D01*
X101549500Y-67593713D01*
X101549500Y-67806287D01*
X101582754Y-68016243D01*
X101641716Y-68197710D01*
X101648444Y-68218414D01*
X101744951Y-68407820D01*
X101869890Y-68579786D01*
X102020211Y-68730107D01*
X102091200Y-68781682D01*
X102148385Y-68823229D01*
X102191051Y-68878558D01*
X102199500Y-68923547D01*
X102199500Y-69016452D01*
X102179815Y-69083491D01*
X102148385Y-69116770D01*
X102020213Y-69209890D01*
X101869890Y-69360213D01*
X101744951Y-69532179D01*
X101648444Y-69721585D01*
X101582753Y-69923760D01*
X101549500Y-70133713D01*
X101549500Y-70346286D01*
X101581504Y-70548355D01*
X101582754Y-70556243D01*
X101643258Y-70742455D01*
X101648444Y-70758414D01*
X101744948Y-70947815D01*
X101857416Y-71102615D01*
X101880895Y-71168422D01*
X101865069Y-71236475D01*
X101814963Y-71285170D01*
X101757097Y-71299500D01*
X101611306Y-71299500D01*
X101437341Y-71334103D01*
X101437332Y-71334106D01*
X101273459Y-71401983D01*
X101273446Y-71401990D01*
X101125965Y-71500535D01*
X101125961Y-71500538D01*
X101000538Y-71625961D01*
X101000535Y-71625965D01*
X100901990Y-71773446D01*
X100901983Y-71773459D01*
X100834106Y-71937332D01*
X100834103Y-71937341D01*
X100799500Y-72111304D01*
X100799500Y-72288695D01*
X100831846Y-72451309D01*
X100825619Y-72520900D01*
X100782756Y-72576078D01*
X100716866Y-72599322D01*
X100710229Y-72599500D01*
X76224500Y-72599500D01*
X76157461Y-72579815D01*
X76111706Y-72527011D01*
X76100500Y-72475500D01*
X76100499Y-71052129D01*
X76100498Y-71052123D01*
X76100497Y-71052116D01*
X76094091Y-70992517D01*
X76077419Y-70947818D01*
X76043797Y-70857671D01*
X76043793Y-70857664D01*
X75957547Y-70742455D01*
X75957544Y-70742452D01*
X75842335Y-70656206D01*
X75842332Y-70656205D01*
X75842331Y-70656204D01*
X75840957Y-70655691D01*
X75839783Y-70654812D01*
X75834551Y-70651956D01*
X75834961Y-70651203D01*
X75785027Y-70613820D01*
X75760612Y-70548355D01*
X75765055Y-70508710D01*
X75764706Y-70508641D01*
X75765524Y-70504524D01*
X75765639Y-70503506D01*
X75765890Y-70502673D01*
X75765894Y-70502666D01*
X75800500Y-70328691D01*
X75800500Y-70151309D01*
X75800500Y-70151306D01*
X75800499Y-70151304D01*
X75765896Y-69977341D01*
X75765893Y-69977332D01*
X75698016Y-69813459D01*
X75698009Y-69813446D01*
X75599464Y-69665965D01*
X75599461Y-69665961D01*
X75474038Y-69540538D01*
X75474034Y-69540535D01*
X75326553Y-69441990D01*
X75326540Y-69441983D01*
X75162667Y-69374106D01*
X75162658Y-69374103D01*
X74988694Y-69339500D01*
X74988691Y-69339500D01*
X74811309Y-69339500D01*
X74811306Y-69339500D01*
X74637341Y-69374103D01*
X74637332Y-69374106D01*
X74473459Y-69441983D01*
X74473446Y-69441990D01*
X74325965Y-69540535D01*
X74325961Y-69540538D01*
X74200538Y-69665961D01*
X74200535Y-69665965D01*
X74101990Y-69813446D01*
X74101983Y-69813459D01*
X74034106Y-69977332D01*
X74034103Y-69977341D01*
X73999500Y-70151304D01*
X73999500Y-70328695D01*
X74034105Y-70502666D01*
X74034365Y-70503522D01*
X74034369Y-70503991D01*
X74035294Y-70508641D01*
X74034412Y-70508816D01*
X74034986Y-70573389D01*
X73997734Y-70632500D01*
X73965407Y-70651876D01*
X73965451Y-70651955D01*
X73963488Y-70653026D01*
X73959041Y-70655692D01*
X73958589Y-70655860D01*
X73957667Y-70656204D01*
X73957663Y-70656207D01*
X73842455Y-70742452D01*
X73842452Y-70742455D01*
X73756206Y-70857664D01*
X73756202Y-70857671D01*
X73705908Y-70992517D01*
X73701437Y-71034108D01*
X73699500Y-71052127D01*
X73699500Y-71773459D01*
X73699501Y-72475500D01*
X73679816Y-72542539D01*
X73627013Y-72588294D01*
X73575501Y-72599500D01*
X70604428Y-72599500D01*
X70595582Y-72599184D01*
X70573622Y-72597613D01*
X70395442Y-72584869D01*
X70377931Y-72582351D01*
X70186209Y-72540645D01*
X70169234Y-72535661D01*
X69985394Y-72467093D01*
X69969300Y-72459743D01*
X69797091Y-72365709D01*
X69782208Y-72356144D01*
X69625135Y-72238561D01*
X69611764Y-72226975D01*
X69473024Y-72088235D01*
X69461438Y-72074864D01*
X69343855Y-71917791D01*
X69334290Y-71902908D01*
X69302815Y-71845266D01*
X69240253Y-71730694D01*
X69232909Y-71714611D01*
X69164336Y-71530760D01*
X69159354Y-71513790D01*
X69156471Y-71500538D01*
X69117647Y-71322063D01*
X69115130Y-71304556D01*
X69114946Y-71301990D01*
X69100816Y-71104418D01*
X69100500Y-71095572D01*
X69100500Y-67346336D01*
X69120185Y-67279297D01*
X69172989Y-67233542D01*
X69242147Y-67223598D01*
X69288648Y-67240218D01*
X69335394Y-67268478D01*
X69497804Y-67319086D01*
X69568384Y-67325500D01*
X69568387Y-67325500D01*
X70231611Y-67325500D01*
X70231616Y-67325500D01*
X70299755Y-67319307D01*
X70368297Y-67332843D01*
X70418644Y-67381289D01*
X70434806Y-67449263D01*
X70434333Y-67455400D01*
X70424500Y-67551645D01*
X70424500Y-68098337D01*
X70424501Y-68098355D01*
X70434650Y-68197707D01*
X70434651Y-68197710D01*
X70487996Y-68358694D01*
X70488001Y-68358705D01*
X70577029Y-68503040D01*
X70577032Y-68503044D01*
X70586307Y-68512319D01*
X70619792Y-68573642D01*
X70614808Y-68643334D01*
X70586307Y-68687681D01*
X70577032Y-68696955D01*
X70577029Y-68696959D01*
X70488001Y-68841294D01*
X70487996Y-68841305D01*
X70434651Y-69002290D01*
X70424500Y-69101647D01*
X70424500Y-69648337D01*
X70424501Y-69648355D01*
X70434650Y-69747707D01*
X70434651Y-69747710D01*
X70487996Y-69908694D01*
X70488001Y-69908705D01*
X70577029Y-70053040D01*
X70577032Y-70053044D01*
X70696955Y-70172967D01*
X70696959Y-70172970D01*
X70841294Y-70261998D01*
X70841297Y-70261999D01*
X70841303Y-70262003D01*
X71002292Y-70315349D01*
X71101655Y-70325500D01*
X71308480Y-70325499D01*
X71375520Y-70345183D01*
X71396162Y-70361818D01*
X71480886Y-70446542D01*
X71535800Y-70501456D01*
X71578459Y-70544115D01*
X71693182Y-70620771D01*
X71693186Y-70620773D01*
X71693189Y-70620775D01*
X71767866Y-70651707D01*
X71767867Y-70651707D01*
X71767869Y-70651709D01*
X71814481Y-70671016D01*
X71820671Y-70673580D01*
X71832124Y-70675858D01*
X71891248Y-70687618D01*
X71935944Y-70706132D01*
X71990305Y-70742455D01*
X72073453Y-70798013D01*
X72073455Y-70798014D01*
X72073459Y-70798016D01*
X72196363Y-70848923D01*
X72237334Y-70865894D01*
X72237336Y-70865894D01*
X72237341Y-70865896D01*
X72411304Y-70900499D01*
X72411307Y-70900500D01*
X72411309Y-70900500D01*
X72588693Y-70900500D01*
X72588694Y-70900499D01*
X72652995Y-70887709D01*
X72762658Y-70865896D01*
X72762661Y-70865894D01*
X72762666Y-70865894D01*
X72926547Y-70798013D01*
X73074035Y-70699464D01*
X73199464Y-70574035D01*
X73298013Y-70426547D01*
X73365894Y-70262666D01*
X73400500Y-70088691D01*
X73400500Y-69911309D01*
X73400500Y-69911306D01*
X73400499Y-69911304D01*
X73365896Y-69737341D01*
X73365893Y-69737332D01*
X73298016Y-69573459D01*
X73298009Y-69573446D01*
X73199464Y-69425965D01*
X73199461Y-69425961D01*
X73074038Y-69300538D01*
X73074034Y-69300535D01*
X72926553Y-69201990D01*
X72926540Y-69201983D01*
X72762667Y-69134106D01*
X72762658Y-69134103D01*
X72588694Y-69099500D01*
X72588691Y-69099500D01*
X72486423Y-69099500D01*
X72419384Y-69079815D01*
X72373629Y-69027011D01*
X72367564Y-69008690D01*
X72367479Y-69008719D01*
X72339256Y-68923547D01*
X72312003Y-68841303D01*
X72311999Y-68841297D01*
X72311998Y-68841294D01*
X72222970Y-68696959D01*
X72222967Y-68696955D01*
X72213693Y-68687681D01*
X72180208Y-68626358D01*
X72185192Y-68556666D01*
X72213693Y-68512319D01*
X72222968Y-68503044D01*
X72312003Y-68358697D01*
X72365349Y-68197708D01*
X72375500Y-68098345D01*
X72375499Y-67551656D01*
X72365349Y-67452292D01*
X72312003Y-67291303D01*
X72295529Y-67264595D01*
X72277090Y-67197205D01*
X72298012Y-67130541D01*
X72351654Y-67085771D01*
X72401069Y-67075500D01*
X73889071Y-67075500D01*
X73973615Y-67058682D01*
X74014744Y-67050501D01*
X74133127Y-67001465D01*
X74170610Y-66976420D01*
X74239669Y-66930277D01*
X74533128Y-66636816D01*
X74594449Y-66603333D01*
X74620808Y-66600499D01*
X75647871Y-66600499D01*
X75647872Y-66600499D01*
X75707483Y-66594091D01*
X75842331Y-66543796D01*
X75957546Y-66457546D01*
X76043796Y-66342331D01*
X76094091Y-66207483D01*
X76100500Y-66147873D01*
X76100499Y-64552128D01*
X76094091Y-64492517D01*
X76079353Y-64453003D01*
X76043797Y-64357671D01*
X76043793Y-64357664D01*
X75957547Y-64242455D01*
X75957544Y-64242452D01*
X75842335Y-64156206D01*
X75842328Y-64156202D01*
X75707482Y-64105908D01*
X75707483Y-64105908D01*
X75647883Y-64099501D01*
X75647881Y-64099500D01*
X75647873Y-64099500D01*
X75647864Y-64099500D01*
X74152129Y-64099500D01*
X74152123Y-64099501D01*
X74092516Y-64105908D01*
X73957671Y-64156202D01*
X73957664Y-64156206D01*
X73842455Y-64242452D01*
X73842452Y-64242455D01*
X73756206Y-64357664D01*
X73756202Y-64357671D01*
X73705908Y-64492517D01*
X73701514Y-64533393D01*
X73699501Y-64552123D01*
X73699500Y-64552135D01*
X73699500Y-65579190D01*
X73679815Y-65646229D01*
X73663182Y-65666871D01*
X73591873Y-65738181D01*
X73530550Y-65771666D01*
X73504191Y-65774500D01*
X72266519Y-65774500D01*
X72199480Y-65754815D01*
X72178837Y-65738180D01*
X72127983Y-65687325D01*
X72094499Y-65626002D01*
X72099484Y-65556310D01*
X72127985Y-65511963D01*
X72230071Y-65409878D01*
X72230072Y-65409877D01*
X72318019Y-65264395D01*
X72368590Y-65102106D01*
X72375000Y-65031572D01*
X72375000Y-65025000D01*
X71524000Y-65025000D01*
X71456961Y-65005315D01*
X71411206Y-64952511D01*
X71400000Y-64901000D01*
X71400000Y-64775000D01*
X71274000Y-64775000D01*
X71206961Y-64755315D01*
X71161206Y-64702511D01*
X71150000Y-64651000D01*
X71150000Y-64525000D01*
X71650000Y-64525000D01*
X72374999Y-64525000D01*
X72374999Y-64518417D01*
X72368591Y-64447897D01*
X72368590Y-64447892D01*
X72318018Y-64285603D01*
X72230072Y-64140122D01*
X72109877Y-64019927D01*
X71964395Y-63931980D01*
X71964396Y-63931980D01*
X71802105Y-63881409D01*
X71802106Y-63881409D01*
X71731572Y-63875000D01*
X71650000Y-63875000D01*
X71650000Y-64525000D01*
X71150000Y-64525000D01*
X71150000Y-63875000D01*
X71149999Y-63874999D01*
X71068417Y-63875000D01*
X70997897Y-63881408D01*
X70997892Y-63881409D01*
X70835601Y-63931981D01*
X70835599Y-63931982D01*
X70714632Y-64005109D01*
X70647077Y-64022945D01*
X70586333Y-64005109D01*
X70572486Y-63996738D01*
X70464606Y-63931522D01*
X70464604Y-63931521D01*
X70464602Y-63931520D01*
X70464603Y-63931520D01*
X70412610Y-63915319D01*
X70354462Y-63876582D01*
X70326488Y-63812557D01*
X70325500Y-63796934D01*
X70325500Y-62698543D01*
X72899499Y-62698543D01*
X72937947Y-62891829D01*
X72937950Y-62891839D01*
X73013364Y-63073907D01*
X73013371Y-63073920D01*
X73122860Y-63237781D01*
X73122863Y-63237785D01*
X73262214Y-63377136D01*
X73262218Y-63377139D01*
X73426079Y-63486628D01*
X73426092Y-63486635D01*
X73608160Y-63562049D01*
X73608165Y-63562051D01*
X73608169Y-63562051D01*
X73608170Y-63562052D01*
X73801456Y-63600500D01*
X73801459Y-63600500D01*
X73998543Y-63600500D01*
X74128582Y-63574632D01*
X74191835Y-63562051D01*
X74332655Y-63503721D01*
X74373907Y-63486635D01*
X74373907Y-63486634D01*
X74373914Y-63486632D01*
X74537782Y-63377139D01*
X74677139Y-63237782D01*
X74786632Y-63073914D01*
X74862051Y-62891835D01*
X74885462Y-62774142D01*
X74900500Y-62698543D01*
X74900500Y-62501456D01*
X74862052Y-62308170D01*
X74862051Y-62308169D01*
X74862051Y-62308165D01*
X74815804Y-62196513D01*
X74786635Y-62126092D01*
X74786628Y-62126079D01*
X74677139Y-61962218D01*
X74677136Y-61962214D01*
X74537785Y-61822863D01*
X74537781Y-61822860D01*
X74373920Y-61713371D01*
X74373907Y-61713364D01*
X74191839Y-61637950D01*
X74191829Y-61637947D01*
X73998543Y-61599500D01*
X73998541Y-61599500D01*
X73801459Y-61599500D01*
X73801457Y-61599500D01*
X73608170Y-61637947D01*
X73608160Y-61637950D01*
X73426092Y-61713364D01*
X73426079Y-61713371D01*
X73262218Y-61822860D01*
X73262214Y-61822863D01*
X73122863Y-61962214D01*
X73122860Y-61962218D01*
X73013371Y-62126079D01*
X73013364Y-62126092D01*
X72937950Y-62308160D01*
X72937947Y-62308170D01*
X72899500Y-62501456D01*
X72899500Y-62501459D01*
X72899500Y-62698541D01*
X72899500Y-62698543D01*
X72899499Y-62698543D01*
X70325500Y-62698543D01*
X70325500Y-61114000D01*
X70345185Y-61046961D01*
X70397989Y-61001206D01*
X70449500Y-60990000D01*
X70625000Y-60990000D01*
X70625000Y-60073012D01*
X70682007Y-60105925D01*
X70809174Y-60140000D01*
X70940826Y-60140000D01*
X71067993Y-60105925D01*
X71125000Y-60073012D01*
X71125000Y-60990000D01*
X71772828Y-60990000D01*
X71772844Y-60989999D01*
X71832372Y-60983598D01*
X71832379Y-60983596D01*
X71967086Y-60933354D01*
X71967093Y-60933350D01*
X72082187Y-60847190D01*
X72082190Y-60847187D01*
X72168350Y-60732093D01*
X72168354Y-60732086D01*
X72218596Y-60597379D01*
X72218598Y-60597372D01*
X72225000Y-60537837D01*
X72225000Y-59890000D01*
X71308012Y-59890000D01*
X71340925Y-59832993D01*
X71375000Y-59705826D01*
X71375000Y-59574174D01*
X71340925Y-59447007D01*
X71308012Y-59390000D01*
X72225000Y-59390000D01*
X72225000Y-58742172D01*
X72224999Y-58742155D01*
X72218598Y-58682627D01*
X72218596Y-58682620D01*
X72168354Y-58547913D01*
X72168350Y-58547906D01*
X72082190Y-58432812D01*
X72082187Y-58432809D01*
X71967093Y-58346649D01*
X71967088Y-58346646D01*
X71835528Y-58297577D01*
X71779595Y-58255705D01*
X71755178Y-58190241D01*
X71770030Y-58121968D01*
X71791175Y-58093720D01*
X71905104Y-57979792D01*
X71923446Y-57954547D01*
X72030048Y-57807820D01*
X72030047Y-57807820D01*
X72030051Y-57807816D01*
X72126557Y-57618412D01*
X72192246Y-57416243D01*
X72225500Y-57206287D01*
X72225500Y-56993713D01*
X72192246Y-56783757D01*
X72126557Y-56581588D01*
X72030051Y-56392184D01*
X72030049Y-56392181D01*
X72030048Y-56392179D01*
X71905109Y-56220213D01*
X71754786Y-56069890D01*
X71582820Y-55944951D01*
X71582115Y-55944591D01*
X71574054Y-55940485D01*
X71523259Y-55892512D01*
X71506463Y-55824692D01*
X71528999Y-55758556D01*
X71574054Y-55719515D01*
X71582816Y-55715051D01*
X71632200Y-55679172D01*
X71754786Y-55590109D01*
X71754788Y-55590106D01*
X71754792Y-55590104D01*
X71905104Y-55439792D01*
X71905106Y-55439788D01*
X71905109Y-55439786D01*
X72030048Y-55267820D01*
X72030047Y-55267820D01*
X72030051Y-55267816D01*
X72126557Y-55078412D01*
X72192246Y-54876243D01*
X72225500Y-54666287D01*
X72225500Y-54453713D01*
X72192246Y-54243757D01*
X72187178Y-54228159D01*
X72185183Y-54158318D01*
X72217426Y-54102163D01*
X72885858Y-53433733D01*
X72954312Y-53331285D01*
X72991598Y-53241267D01*
X73001463Y-53217452D01*
X73014056Y-53154143D01*
X73025501Y-53096608D01*
X73025501Y-52968283D01*
X73025500Y-52968257D01*
X73025500Y-49642350D01*
X73045185Y-49575311D01*
X73046398Y-49573459D01*
X73068147Y-49540909D01*
X73109394Y-49479179D01*
X73169737Y-49333497D01*
X73200500Y-49178842D01*
X73200500Y-49021158D01*
X73200500Y-49021155D01*
X73200499Y-49021153D01*
X73177794Y-48907007D01*
X73169737Y-48866503D01*
X73169735Y-48866498D01*
X73109397Y-48720827D01*
X73109390Y-48720814D01*
X73021789Y-48589711D01*
X73021786Y-48589707D01*
X72910292Y-48478213D01*
X72910288Y-48478210D01*
X72779185Y-48390609D01*
X72779172Y-48390602D01*
X72633501Y-48330264D01*
X72633489Y-48330261D01*
X72478845Y-48299500D01*
X72478842Y-48299500D01*
X72321158Y-48299500D01*
X72321155Y-48299500D01*
X72166510Y-48330261D01*
X72166498Y-48330264D01*
X72020827Y-48390602D01*
X72020814Y-48390609D01*
X71889711Y-48478210D01*
X71889707Y-48478213D01*
X71778213Y-48589707D01*
X71778210Y-48589711D01*
X71690609Y-48720814D01*
X71690602Y-48720827D01*
X71630264Y-48866498D01*
X71630261Y-48866510D01*
X71599500Y-49021153D01*
X71599500Y-49178846D01*
X71630261Y-49333489D01*
X71630264Y-49333501D01*
X71690602Y-49479172D01*
X71690609Y-49479184D01*
X71753602Y-49573459D01*
X71774480Y-49640136D01*
X71774500Y-49642350D01*
X71774500Y-50760994D01*
X71754815Y-50828033D01*
X71702011Y-50873788D01*
X71632853Y-50883732D01*
X71585721Y-50866728D01*
X71582824Y-50864953D01*
X71393414Y-50768444D01*
X71393413Y-50768443D01*
X71393412Y-50768443D01*
X71191243Y-50702754D01*
X71191241Y-50702753D01*
X71191240Y-50702753D01*
X71029957Y-50677208D01*
X70981287Y-50669500D01*
X70768713Y-50669500D01*
X70720042Y-50677208D01*
X70558760Y-50702753D01*
X70356585Y-50768444D01*
X70167179Y-50864951D01*
X69995213Y-50989890D01*
X69995209Y-50989894D01*
X69844896Y-51140208D01*
X69844894Y-51140210D01*
X69719951Y-51312179D01*
X69623444Y-51501585D01*
X69557753Y-51703760D01*
X69524500Y-51913713D01*
X69524500Y-52126286D01*
X69557753Y-52336241D01*
X69562821Y-52351837D01*
X69564816Y-52421678D01*
X69532571Y-52477837D01*
X69312181Y-52698228D01*
X69250858Y-52731713D01*
X69181167Y-52726729D01*
X69125233Y-52684858D01*
X69100816Y-52619393D01*
X69100500Y-52610547D01*
X69100500Y-43804427D01*
X69100816Y-43795581D01*
X69106843Y-43711309D01*
X69115130Y-43595436D01*
X69117646Y-43577938D01*
X69159356Y-43386200D01*
X69164335Y-43369242D01*
X69232911Y-43185382D01*
X69240251Y-43169310D01*
X69334294Y-42997083D01*
X69343850Y-42982214D01*
X69461443Y-42825128D01*
X69473017Y-42811771D01*
X69611771Y-42673017D01*
X69625128Y-42661443D01*
X69782214Y-42543850D01*
X69797083Y-42534294D01*
X69969310Y-42440251D01*
X69985382Y-42432911D01*
X70169242Y-42364335D01*
X70186200Y-42359356D01*
X70377938Y-42317646D01*
X70395436Y-42315130D01*
X70595582Y-42300816D01*
X70604428Y-42300500D01*
X70665892Y-42300500D01*
X138834108Y-42300500D01*
X138895572Y-42300500D01*
X138904418Y-42300816D01*
G37*
G04 #@! TD.AperFunction*
G04 #@! TA.AperFunction,Conductor*
G36*
X120890000Y-49927231D02*
G01*
X120956126Y-49916757D01*
X120956129Y-49916757D01*
X121158216Y-49851094D01*
X121227213Y-49815938D01*
X121295882Y-49803041D01*
X121360623Y-49829316D01*
X121386611Y-49857529D01*
X121414142Y-49898733D01*
X121501267Y-49985858D01*
X121501268Y-49985858D01*
X121508335Y-49992925D01*
X121508334Y-49992925D01*
X121508338Y-49992928D01*
X127659149Y-56143739D01*
X127692634Y-56205062D01*
X127687650Y-56274754D01*
X127645778Y-56330687D01*
X127627764Y-56341904D01*
X127542444Y-56385377D01*
X127370540Y-56510272D01*
X127370535Y-56510276D01*
X127220276Y-56660535D01*
X127220272Y-56660540D01*
X127095378Y-56832443D01*
X127090762Y-56841502D01*
X127042784Y-56892295D01*
X126974963Y-56909087D01*
X126908829Y-56886546D01*
X126869794Y-56841493D01*
X126865051Y-56832184D01*
X126865049Y-56832181D01*
X126865048Y-56832179D01*
X126740109Y-56660213D01*
X126589786Y-56509890D01*
X126417820Y-56384951D01*
X126228414Y-56288444D01*
X126228413Y-56288443D01*
X126228412Y-56288443D01*
X126026243Y-56222754D01*
X126026241Y-56222753D01*
X126026240Y-56222753D01*
X125864957Y-56197208D01*
X125816287Y-56189500D01*
X125603713Y-56189500D01*
X125555042Y-56197208D01*
X125393760Y-56222753D01*
X125191585Y-56288444D01*
X125002179Y-56384951D01*
X124830213Y-56509890D01*
X124679890Y-56660213D01*
X124554951Y-56832179D01*
X124458444Y-57021585D01*
X124392753Y-57223760D01*
X124373233Y-57347007D01*
X124359500Y-57433713D01*
X124359500Y-57646287D01*
X124392754Y-57856243D01*
X124453184Y-58042228D01*
X124458444Y-58058414D01*
X124554951Y-58247820D01*
X124679890Y-58419786D01*
X124830211Y-58570107D01*
X124898633Y-58619817D01*
X124958385Y-58663229D01*
X125001051Y-58718558D01*
X125009500Y-58763547D01*
X125009500Y-58856452D01*
X124989815Y-58923491D01*
X124958385Y-58956770D01*
X124830213Y-59049890D01*
X124679890Y-59200213D01*
X124554951Y-59372179D01*
X124458444Y-59561585D01*
X124392753Y-59763760D01*
X124391291Y-59772993D01*
X124359500Y-59973713D01*
X124359500Y-60186287D01*
X124392754Y-60396243D01*
X124458107Y-60597379D01*
X124458444Y-60598414D01*
X124554951Y-60787820D01*
X124679890Y-60959786D01*
X124830211Y-61110107D01*
X124847345Y-61122555D01*
X124958385Y-61203229D01*
X125001051Y-61258558D01*
X125009500Y-61303547D01*
X125009500Y-66512779D01*
X124989815Y-66579818D01*
X124958385Y-66613097D01*
X124880211Y-66669893D01*
X124880205Y-66669898D01*
X124729890Y-66820213D01*
X124604951Y-66992179D01*
X124508444Y-67181585D01*
X124442753Y-67383760D01*
X124423233Y-67507007D01*
X124409500Y-67593713D01*
X124409500Y-67806287D01*
X124442754Y-68016243D01*
X124501716Y-68197710D01*
X124508444Y-68218414D01*
X124604951Y-68407820D01*
X124729890Y-68579786D01*
X124880211Y-68730107D01*
X124951200Y-68781682D01*
X125008385Y-68823229D01*
X125051051Y-68878558D01*
X125059500Y-68923547D01*
X125059500Y-69016452D01*
X125039815Y-69083491D01*
X125008385Y-69116770D01*
X124880213Y-69209890D01*
X124729890Y-69360213D01*
X124604951Y-69532179D01*
X124508444Y-69721585D01*
X124442753Y-69923760D01*
X124409500Y-70133713D01*
X124409500Y-70346286D01*
X124441504Y-70548355D01*
X124442754Y-70556243D01*
X124503258Y-70742455D01*
X124508444Y-70758414D01*
X124604948Y-70947815D01*
X124651663Y-71012113D01*
X124675142Y-71077920D01*
X124659316Y-71145974D01*
X124609210Y-71194668D01*
X124575536Y-71206615D01*
X124437340Y-71234104D01*
X124437332Y-71234106D01*
X124273459Y-71301983D01*
X124273446Y-71301990D01*
X124125965Y-71400535D01*
X124125961Y-71400538D01*
X124000538Y-71525961D01*
X124000535Y-71525965D01*
X123901990Y-71673446D01*
X123901983Y-71673459D01*
X123834106Y-71837332D01*
X123834103Y-71837341D01*
X123799500Y-72011304D01*
X123799500Y-72188695D01*
X123834103Y-72362658D01*
X123834106Y-72362667D01*
X123861188Y-72428048D01*
X123868657Y-72497517D01*
X123837382Y-72559996D01*
X123777293Y-72595648D01*
X123746627Y-72599500D01*
X103803373Y-72599500D01*
X103736334Y-72579815D01*
X103690579Y-72527011D01*
X103680635Y-72457853D01*
X103688812Y-72428048D01*
X103702100Y-72395968D01*
X103715894Y-72362666D01*
X103717192Y-72356144D01*
X103750499Y-72188695D01*
X103750500Y-72188693D01*
X103750500Y-72011306D01*
X103750499Y-72011304D01*
X103715896Y-71837341D01*
X103715893Y-71837332D01*
X103648016Y-71673459D01*
X103648009Y-71673446D01*
X103575885Y-71565505D01*
X103555007Y-71498827D01*
X103573492Y-71431447D01*
X103606102Y-71396295D01*
X103607810Y-71395054D01*
X103607816Y-71395051D01*
X103779792Y-71270104D01*
X103930104Y-71119792D01*
X103930106Y-71119788D01*
X103930109Y-71119786D01*
X104055048Y-70947820D01*
X104055051Y-70947816D01*
X104059793Y-70938508D01*
X104107763Y-70887711D01*
X104175583Y-70870911D01*
X104241719Y-70893445D01*
X104280763Y-70938500D01*
X104285377Y-70947555D01*
X104410272Y-71119459D01*
X104410276Y-71119464D01*
X104560535Y-71269723D01*
X104560540Y-71269727D01*
X104732442Y-71394620D01*
X104921782Y-71491095D01*
X105123871Y-71556757D01*
X105190000Y-71567231D01*
X105190000Y-70673012D01*
X105247007Y-70705925D01*
X105374174Y-70740000D01*
X105505826Y-70740000D01*
X105632993Y-70705925D01*
X105690000Y-70673012D01*
X105690000Y-71567231D01*
X105756126Y-71556757D01*
X105756129Y-71556757D01*
X105958217Y-71491095D01*
X106147557Y-71394620D01*
X106319459Y-71269727D01*
X106319464Y-71269723D01*
X106469723Y-71119464D01*
X106469727Y-71119459D01*
X106594620Y-70947558D01*
X106599232Y-70938507D01*
X106647205Y-70887709D01*
X106715025Y-70870912D01*
X106781161Y-70893447D01*
X106820204Y-70938504D01*
X106824949Y-70947817D01*
X106949890Y-71119786D01*
X107100213Y-71270109D01*
X107272179Y-71395048D01*
X107272181Y-71395049D01*
X107272184Y-71395051D01*
X107461588Y-71491557D01*
X107663757Y-71557246D01*
X107873713Y-71590500D01*
X107873714Y-71590500D01*
X108086286Y-71590500D01*
X108086287Y-71590500D01*
X108296243Y-71557246D01*
X108498412Y-71491557D01*
X108687816Y-71395051D01*
X108724352Y-71368506D01*
X108859786Y-71270109D01*
X108859788Y-71270106D01*
X108859792Y-71270104D01*
X109010104Y-71119792D01*
X109010106Y-71119788D01*
X109010109Y-71119786D01*
X109135048Y-70947820D01*
X109135047Y-70947820D01*
X109135051Y-70947816D01*
X109139514Y-70939054D01*
X109187488Y-70888259D01*
X109255308Y-70871463D01*
X109321444Y-70893999D01*
X109360486Y-70939056D01*
X109364951Y-70947820D01*
X109489890Y-71119786D01*
X109640213Y-71270109D01*
X109812179Y-71395048D01*
X109812181Y-71395049D01*
X109812184Y-71395051D01*
X110001588Y-71491557D01*
X110203757Y-71557246D01*
X110413713Y-71590500D01*
X110413714Y-71590500D01*
X110626286Y-71590500D01*
X110626287Y-71590500D01*
X110836243Y-71557246D01*
X111038412Y-71491557D01*
X111227816Y-71395051D01*
X111264352Y-71368506D01*
X111399786Y-71270109D01*
X111399788Y-71270106D01*
X111399792Y-71270104D01*
X111550104Y-71119792D01*
X111550106Y-71119788D01*
X111550109Y-71119786D01*
X111675048Y-70947820D01*
X111675047Y-70947820D01*
X111675051Y-70947816D01*
X111679514Y-70939054D01*
X111727488Y-70888259D01*
X111795308Y-70871463D01*
X111861444Y-70893999D01*
X111900486Y-70939056D01*
X111904951Y-70947820D01*
X112029890Y-71119786D01*
X112180213Y-71270109D01*
X112352179Y-71395048D01*
X112352181Y-71395049D01*
X112352184Y-71395051D01*
X112541588Y-71491557D01*
X112743757Y-71557246D01*
X112953713Y-71590500D01*
X112953714Y-71590500D01*
X113166286Y-71590500D01*
X113166287Y-71590500D01*
X113376243Y-71557246D01*
X113578412Y-71491557D01*
X113767816Y-71395051D01*
X113804352Y-71368506D01*
X113939786Y-71270109D01*
X113939788Y-71270106D01*
X113939792Y-71270104D01*
X114090104Y-71119792D01*
X114090106Y-71119788D01*
X114090109Y-71119786D01*
X114215048Y-70947820D01*
X114215047Y-70947820D01*
X114215051Y-70947816D01*
X114219514Y-70939054D01*
X114267488Y-70888259D01*
X114335308Y-70871463D01*
X114401444Y-70893999D01*
X114440486Y-70939056D01*
X114444951Y-70947820D01*
X114569890Y-71119786D01*
X114720213Y-71270109D01*
X114892179Y-71395048D01*
X114892181Y-71395049D01*
X114892184Y-71395051D01*
X115081588Y-71491557D01*
X115283757Y-71557246D01*
X115493713Y-71590500D01*
X115493714Y-71590500D01*
X115706286Y-71590500D01*
X115706287Y-71590500D01*
X115916243Y-71557246D01*
X116118412Y-71491557D01*
X116307816Y-71395051D01*
X116344352Y-71368506D01*
X116479786Y-71270109D01*
X116479788Y-71270106D01*
X116479792Y-71270104D01*
X116630104Y-71119792D01*
X116630106Y-71119788D01*
X116630109Y-71119786D01*
X116755048Y-70947820D01*
X116755047Y-70947820D01*
X116755051Y-70947816D01*
X116851557Y-70758412D01*
X116871010Y-70698543D01*
X120399499Y-70698543D01*
X120437947Y-70891829D01*
X120437950Y-70891839D01*
X120513364Y-71073907D01*
X120513371Y-71073920D01*
X120622860Y-71237781D01*
X120622863Y-71237785D01*
X120762214Y-71377136D01*
X120762218Y-71377139D01*
X120926079Y-71486628D01*
X120926092Y-71486635D01*
X121108160Y-71562049D01*
X121108165Y-71562051D01*
X121108169Y-71562051D01*
X121108170Y-71562052D01*
X121301456Y-71600500D01*
X121301459Y-71600500D01*
X121498543Y-71600500D01*
X121634514Y-71573453D01*
X121691835Y-71562051D01*
X121840349Y-71500535D01*
X121873907Y-71486635D01*
X121873907Y-71486634D01*
X121873914Y-71486632D01*
X122037782Y-71377139D01*
X122177139Y-71237782D01*
X122286632Y-71073914D01*
X122362051Y-70891835D01*
X122380714Y-70798009D01*
X122400500Y-70698543D01*
X122400500Y-70501456D01*
X122362052Y-70308170D01*
X122362051Y-70308169D01*
X122362051Y-70308165D01*
X122297080Y-70151309D01*
X122286635Y-70126092D01*
X122286628Y-70126079D01*
X122177139Y-69962218D01*
X122177136Y-69962214D01*
X122037785Y-69822863D01*
X122037781Y-69822860D01*
X121873920Y-69713371D01*
X121873907Y-69713364D01*
X121691839Y-69637950D01*
X121691829Y-69637947D01*
X121498543Y-69599500D01*
X121498541Y-69599500D01*
X121301459Y-69599500D01*
X121301457Y-69599500D01*
X121108170Y-69637947D01*
X121108160Y-69637950D01*
X120926092Y-69713364D01*
X120926079Y-69713371D01*
X120762218Y-69822860D01*
X120762214Y-69822863D01*
X120622863Y-69962214D01*
X120622860Y-69962218D01*
X120513371Y-70126079D01*
X120513364Y-70126092D01*
X120437950Y-70308160D01*
X120437947Y-70308170D01*
X120399500Y-70501456D01*
X120399500Y-70501459D01*
X120399500Y-70698541D01*
X120399500Y-70698543D01*
X120399499Y-70698543D01*
X116871010Y-70698543D01*
X116917246Y-70556243D01*
X116918496Y-70548355D01*
X116929960Y-70475970D01*
X116929960Y-70475969D01*
X116950500Y-70346286D01*
X116950500Y-70133713D01*
X116937723Y-70053044D01*
X116917246Y-69923757D01*
X116913201Y-69911309D01*
X116912179Y-69908162D01*
X116910182Y-69838321D01*
X116942426Y-69782162D01*
X117173729Y-69550860D01*
X117173733Y-69550858D01*
X117260858Y-69463733D01*
X117329311Y-69361286D01*
X117329312Y-69361285D01*
X117361938Y-69282517D01*
X117376463Y-69247452D01*
X117385507Y-69201983D01*
X117391735Y-69170675D01*
X117391735Y-69170672D01*
X117400500Y-69126607D01*
X117400500Y-69003393D01*
X117400500Y-61372741D01*
X117400501Y-61372720D01*
X117400501Y-61243391D01*
X117376464Y-61122555D01*
X117376463Y-61122549D01*
X117329312Y-61008715D01*
X117260858Y-60906267D01*
X117260855Y-60906263D01*
X116892428Y-60537837D01*
X116858943Y-60476514D01*
X116862178Y-60411837D01*
X116867246Y-60396243D01*
X116900500Y-60186287D01*
X116900500Y-59973713D01*
X116867246Y-59763757D01*
X116862178Y-59748159D01*
X116860183Y-59678318D01*
X116892426Y-59622163D01*
X118585858Y-57928733D01*
X118654312Y-57826285D01*
X118701463Y-57712451D01*
X118717222Y-57633228D01*
X118725501Y-57591608D01*
X118725501Y-57463283D01*
X118725500Y-57463257D01*
X118725500Y-49872980D01*
X118745185Y-49805941D01*
X118793208Y-49762494D01*
X118794502Y-49761835D01*
X118807816Y-49755051D01*
X118807815Y-49755051D01*
X118807818Y-49755050D01*
X118979786Y-49630109D01*
X118979788Y-49630106D01*
X118979792Y-49630104D01*
X119130104Y-49479792D01*
X119130106Y-49479788D01*
X119130109Y-49479786D01*
X119204687Y-49377136D01*
X119255051Y-49307816D01*
X119259793Y-49298508D01*
X119307763Y-49247711D01*
X119375583Y-49230911D01*
X119441719Y-49253445D01*
X119480763Y-49298500D01*
X119485377Y-49307555D01*
X119610272Y-49479459D01*
X119610276Y-49479464D01*
X119760535Y-49629723D01*
X119760540Y-49629727D01*
X119932442Y-49754620D01*
X120121782Y-49851095D01*
X120323871Y-49916757D01*
X120390000Y-49927231D01*
X120390000Y-49033012D01*
X120447007Y-49065925D01*
X120574174Y-49100000D01*
X120705826Y-49100000D01*
X120832993Y-49065925D01*
X120890000Y-49033012D01*
X120890000Y-49927231D01*
G37*
G04 #@! TD.AperFunction*
G04 #@! TA.AperFunction,Conductor*
G36*
X140338773Y-66759882D02*
G01*
X140386384Y-66811019D01*
X140399500Y-66866524D01*
X140399500Y-71095572D01*
X140399184Y-71104419D01*
X140384869Y-71304557D01*
X140382351Y-71322068D01*
X140340645Y-71513790D01*
X140335661Y-71530765D01*
X140267093Y-71714605D01*
X140259743Y-71730699D01*
X140165709Y-71902908D01*
X140156144Y-71917791D01*
X140038561Y-72074864D01*
X140026975Y-72088235D01*
X139888235Y-72226975D01*
X139874864Y-72238561D01*
X139717791Y-72356144D01*
X139702908Y-72365709D01*
X139530699Y-72459743D01*
X139514605Y-72467093D01*
X139330765Y-72535661D01*
X139313790Y-72540645D01*
X139122068Y-72582351D01*
X139104557Y-72584869D01*
X138923779Y-72597799D01*
X138904417Y-72599184D01*
X138895572Y-72599500D01*
X126611953Y-72599500D01*
X126544914Y-72579815D01*
X126499159Y-72527011D01*
X126489215Y-72457853D01*
X126497392Y-72428048D01*
X126535346Y-72336415D01*
X126565894Y-72262666D01*
X126572994Y-72226975D01*
X126600499Y-72088695D01*
X126600500Y-72088693D01*
X126600500Y-71911306D01*
X126600499Y-71911304D01*
X126565896Y-71737341D01*
X126565893Y-71737332D01*
X126559921Y-71722915D01*
X126505073Y-71590498D01*
X126498015Y-71573457D01*
X126498013Y-71573454D01*
X126498013Y-71573453D01*
X126474133Y-71537715D01*
X126453255Y-71471040D01*
X126471739Y-71403660D01*
X126504348Y-71368508D01*
X126639792Y-71270104D01*
X126790104Y-71119792D01*
X126790106Y-71119788D01*
X126790109Y-71119786D01*
X126915048Y-70947820D01*
X126915051Y-70947816D01*
X126919793Y-70938508D01*
X126967763Y-70887711D01*
X127035583Y-70870911D01*
X127101719Y-70893445D01*
X127140763Y-70938500D01*
X127145377Y-70947555D01*
X127270272Y-71119459D01*
X127270276Y-71119464D01*
X127420535Y-71269723D01*
X127420540Y-71269727D01*
X127592442Y-71394620D01*
X127781782Y-71491095D01*
X127983871Y-71556757D01*
X128050000Y-71567231D01*
X128050000Y-70673012D01*
X128107007Y-70705925D01*
X128234174Y-70740000D01*
X128365826Y-70740000D01*
X128492993Y-70705925D01*
X128550000Y-70673012D01*
X128550000Y-71567231D01*
X128616126Y-71556757D01*
X128616129Y-71556757D01*
X128818217Y-71491095D01*
X129007557Y-71394620D01*
X129179459Y-71269727D01*
X129179464Y-71269723D01*
X129329723Y-71119464D01*
X129329727Y-71119459D01*
X129454620Y-70947558D01*
X129459232Y-70938507D01*
X129507205Y-70887709D01*
X129575025Y-70870912D01*
X129641161Y-70893447D01*
X129680204Y-70938504D01*
X129684949Y-70947817D01*
X129809890Y-71119786D01*
X129960213Y-71270109D01*
X130132179Y-71395048D01*
X130132181Y-71395049D01*
X130132184Y-71395051D01*
X130321588Y-71491557D01*
X130523757Y-71557246D01*
X130733713Y-71590500D01*
X130733714Y-71590500D01*
X130946286Y-71590500D01*
X130946287Y-71590500D01*
X131156243Y-71557246D01*
X131358412Y-71491557D01*
X131547816Y-71395051D01*
X131584352Y-71368506D01*
X131719786Y-71270109D01*
X131719788Y-71270106D01*
X131719792Y-71270104D01*
X131870104Y-71119792D01*
X131870106Y-71119788D01*
X131870109Y-71119786D01*
X131995048Y-70947820D01*
X131995047Y-70947820D01*
X131995051Y-70947816D01*
X131999514Y-70939054D01*
X132047488Y-70888259D01*
X132115308Y-70871463D01*
X132181444Y-70893999D01*
X132220486Y-70939056D01*
X132224951Y-70947820D01*
X132349890Y-71119786D01*
X132500213Y-71270109D01*
X132672179Y-71395048D01*
X132672181Y-71395049D01*
X132672184Y-71395051D01*
X132861588Y-71491557D01*
X133063757Y-71557246D01*
X133273713Y-71590500D01*
X133273714Y-71590500D01*
X133486286Y-71590500D01*
X133486287Y-71590500D01*
X133696243Y-71557246D01*
X133898412Y-71491557D01*
X134087816Y-71395051D01*
X134124352Y-71368506D01*
X134259786Y-71270109D01*
X134259788Y-71270106D01*
X134259792Y-71270104D01*
X134410104Y-71119792D01*
X134410106Y-71119788D01*
X134410109Y-71119786D01*
X134535048Y-70947820D01*
X134535047Y-70947820D01*
X134535051Y-70947816D01*
X134539514Y-70939054D01*
X134587488Y-70888259D01*
X134655308Y-70871463D01*
X134721444Y-70893999D01*
X134760486Y-70939056D01*
X134764951Y-70947820D01*
X134889890Y-71119786D01*
X135040213Y-71270109D01*
X135212179Y-71395048D01*
X135212181Y-71395049D01*
X135212184Y-71395051D01*
X135401588Y-71491557D01*
X135603757Y-71557246D01*
X135813713Y-71590500D01*
X135813714Y-71590500D01*
X136026286Y-71590500D01*
X136026287Y-71590500D01*
X136236243Y-71557246D01*
X136438412Y-71491557D01*
X136627816Y-71395051D01*
X136664352Y-71368506D01*
X136799786Y-71270109D01*
X136799788Y-71270106D01*
X136799792Y-71270104D01*
X136950104Y-71119792D01*
X136950106Y-71119788D01*
X136950109Y-71119786D01*
X137075048Y-70947820D01*
X137075047Y-70947820D01*
X137075051Y-70947816D01*
X137079514Y-70939054D01*
X137127488Y-70888259D01*
X137195308Y-70871463D01*
X137261444Y-70893999D01*
X137300486Y-70939056D01*
X137304951Y-70947820D01*
X137429890Y-71119786D01*
X137580213Y-71270109D01*
X137752179Y-71395048D01*
X137752181Y-71395049D01*
X137752184Y-71395051D01*
X137941588Y-71491557D01*
X138143757Y-71557246D01*
X138353713Y-71590500D01*
X138353714Y-71590500D01*
X138566286Y-71590500D01*
X138566287Y-71590500D01*
X138776243Y-71557246D01*
X138978412Y-71491557D01*
X139167816Y-71395051D01*
X139204352Y-71368506D01*
X139339786Y-71270109D01*
X139339788Y-71270106D01*
X139339792Y-71270104D01*
X139490104Y-71119792D01*
X139490106Y-71119788D01*
X139490109Y-71119786D01*
X139615048Y-70947820D01*
X139615047Y-70947820D01*
X139615051Y-70947816D01*
X139711557Y-70758412D01*
X139777246Y-70556243D01*
X139810500Y-70346287D01*
X139810500Y-70133713D01*
X139777246Y-69923757D01*
X139711557Y-69721588D01*
X139615051Y-69532184D01*
X139615049Y-69532181D01*
X139615048Y-69532179D01*
X139490109Y-69360213D01*
X139376569Y-69246673D01*
X139343084Y-69185350D01*
X139348068Y-69115658D01*
X139389940Y-69059725D01*
X139420915Y-69042810D01*
X139552331Y-68993796D01*
X139667546Y-68907546D01*
X139753796Y-68792331D01*
X139804091Y-68657483D01*
X139810500Y-68597873D01*
X139810499Y-67285450D01*
X139830184Y-67218412D01*
X139846813Y-67197775D01*
X139983729Y-67060860D01*
X139983733Y-67060858D01*
X140070858Y-66973733D01*
X140139311Y-66871286D01*
X140160939Y-66819072D01*
X140204779Y-66764668D01*
X140271074Y-66742603D01*
X140338773Y-66759882D01*
G37*
G04 #@! TD.AperFunction*
G04 #@! TA.AperFunction,Conductor*
G36*
X82830000Y-69806988D02*
G01*
X82772993Y-69774075D01*
X82645826Y-69740000D01*
X82514174Y-69740000D01*
X82387007Y-69774075D01*
X82330000Y-69806988D01*
X82330000Y-68133012D01*
X82387007Y-68165925D01*
X82514174Y-68200000D01*
X82645826Y-68200000D01*
X82772993Y-68165925D01*
X82830000Y-68133012D01*
X82830000Y-69806988D01*
G37*
G04 #@! TD.AperFunction*
G04 #@! TA.AperFunction,Conductor*
G36*
X105690000Y-69806988D02*
G01*
X105632993Y-69774075D01*
X105505826Y-69740000D01*
X105374174Y-69740000D01*
X105247007Y-69774075D01*
X105190000Y-69806988D01*
X105190000Y-68133012D01*
X105247007Y-68165925D01*
X105374174Y-68200000D01*
X105505826Y-68200000D01*
X105632993Y-68165925D01*
X105690000Y-68133012D01*
X105690000Y-69806988D01*
G37*
G04 #@! TD.AperFunction*
G04 #@! TA.AperFunction,Conductor*
G36*
X128550000Y-69806988D02*
G01*
X128492993Y-69774075D01*
X128365826Y-69740000D01*
X128234174Y-69740000D01*
X128107007Y-69774075D01*
X128050000Y-69806988D01*
X128050000Y-68133012D01*
X128107007Y-68165925D01*
X128234174Y-68200000D01*
X128365826Y-68200000D01*
X128492993Y-68165925D01*
X128550000Y-68133012D01*
X128550000Y-69806988D01*
G37*
G04 #@! TD.AperFunction*
G04 #@! TA.AperFunction,Conductor*
G36*
X96354340Y-60968068D02*
G01*
X96410274Y-61009939D01*
X96427189Y-61040917D01*
X96476202Y-61172328D01*
X96476206Y-61172335D01*
X96562452Y-61287544D01*
X96562455Y-61287547D01*
X96677664Y-61373793D01*
X96677671Y-61373797D01*
X96700877Y-61382452D01*
X96812517Y-61424091D01*
X96872127Y-61430500D01*
X97020500Y-61430499D01*
X97087539Y-61450183D01*
X97133294Y-61502987D01*
X97144500Y-61554499D01*
X97144500Y-68765500D01*
X97124815Y-68832539D01*
X97072011Y-68878294D01*
X97020501Y-68889500D01*
X96922130Y-68889500D01*
X96922123Y-68889501D01*
X96862516Y-68895908D01*
X96727671Y-68946202D01*
X96727664Y-68946206D01*
X96612455Y-69032452D01*
X96612452Y-69032455D01*
X96526206Y-69147664D01*
X96526203Y-69147669D01*
X96477189Y-69279083D01*
X96435317Y-69335016D01*
X96369853Y-69359433D01*
X96301580Y-69344581D01*
X96273326Y-69323430D01*
X96159786Y-69209890D01*
X95987815Y-69084948D01*
X95987814Y-69084947D01*
X95948205Y-69064765D01*
X95897409Y-69016791D01*
X95880500Y-68954281D01*
X95880500Y-61339617D01*
X95900185Y-61272578D01*
X95934592Y-61238902D01*
X95933874Y-61237914D01*
X95937811Y-61235053D01*
X95937816Y-61235051D01*
X96109792Y-61110104D01*
X96223329Y-60996566D01*
X96284648Y-60963084D01*
X96354340Y-60968068D01*
G37*
G04 #@! TD.AperFunction*
G04 #@! TA.AperFunction,Conductor*
G36*
X128443039Y-65219685D02*
G01*
X128488794Y-65272489D01*
X128500000Y-65324000D01*
X128500000Y-66220000D01*
X128513681Y-66233681D01*
X128547166Y-66295004D01*
X128550000Y-66321362D01*
X128550000Y-67266988D01*
X128492993Y-67234075D01*
X128365826Y-67200000D01*
X128234174Y-67200000D01*
X128107007Y-67234075D01*
X128050000Y-67266988D01*
X128050000Y-66555000D01*
X128036319Y-66541319D01*
X128002834Y-66479996D01*
X128000000Y-66453638D01*
X128000000Y-65324000D01*
X128019685Y-65256961D01*
X128072489Y-65211206D01*
X128124000Y-65200000D01*
X128376000Y-65200000D01*
X128443039Y-65219685D01*
G37*
G04 #@! TD.AperFunction*
G04 #@! TA.AperFunction,Conductor*
G36*
X81429740Y-66110234D02*
G01*
X81455829Y-66140339D01*
X81457681Y-66143341D01*
X81457683Y-66143344D01*
X81581654Y-66267315D01*
X81730875Y-66359356D01*
X81730880Y-66359358D01*
X81774580Y-66373839D01*
X81832025Y-66413612D01*
X81858848Y-66478128D01*
X81846533Y-66546903D01*
X81808462Y-66591863D01*
X81700535Y-66670276D01*
X81550276Y-66820535D01*
X81550272Y-66820540D01*
X81425378Y-66992443D01*
X81420762Y-67001502D01*
X81372784Y-67052295D01*
X81304963Y-67069087D01*
X81238829Y-67046546D01*
X81199794Y-67001493D01*
X81195051Y-66992184D01*
X81195049Y-66992181D01*
X81195048Y-66992179D01*
X81070109Y-66820213D01*
X80919786Y-66669890D01*
X80837679Y-66610237D01*
X80795013Y-66554908D01*
X80789034Y-66485294D01*
X80821639Y-66423499D01*
X80871560Y-66392213D01*
X80969334Y-66359814D01*
X81118656Y-66267712D01*
X81242712Y-66143656D01*
X81244752Y-66140347D01*
X81246745Y-66138555D01*
X81247193Y-66137989D01*
X81247289Y-66138065D01*
X81296694Y-66093623D01*
X81365656Y-66082395D01*
X81429740Y-66110234D01*
G37*
G04 #@! TD.AperFunction*
G04 #@! TA.AperFunction,Conductor*
G36*
X105640000Y-61407230D02*
G01*
X105706126Y-61396757D01*
X105706129Y-61396757D01*
X105908217Y-61331095D01*
X105949205Y-61310211D01*
X106017874Y-61297315D01*
X106082614Y-61323591D01*
X106122872Y-61380697D01*
X106129500Y-61420696D01*
X106129500Y-64203952D01*
X106109815Y-64270991D01*
X106057011Y-64316746D01*
X105987853Y-64326690D01*
X105924297Y-64297665D01*
X105899962Y-64269051D01*
X105892315Y-64256654D01*
X105768345Y-64132684D01*
X105619124Y-64040643D01*
X105619114Y-64040639D01*
X105615360Y-64039395D01*
X105613121Y-64037844D01*
X105612579Y-64037592D01*
X105612622Y-64037499D01*
X105557917Y-63999620D01*
X105531096Y-63935103D01*
X105536663Y-63882687D01*
X105564855Y-63797606D01*
X105574999Y-63698322D01*
X105575000Y-63698309D01*
X105575000Y-63650000D01*
X104749000Y-63650000D01*
X104681961Y-63630315D01*
X104636206Y-63577511D01*
X104625000Y-63526000D01*
X104625000Y-63400000D01*
X104499000Y-63400000D01*
X104431961Y-63380315D01*
X104386206Y-63327511D01*
X104375000Y-63276000D01*
X104375000Y-63150000D01*
X104875000Y-63150000D01*
X105574999Y-63150000D01*
X105574999Y-63101692D01*
X105574998Y-63101677D01*
X105564855Y-63002392D01*
X105511547Y-62841518D01*
X105511542Y-62841507D01*
X105422575Y-62697271D01*
X105422572Y-62697267D01*
X105302732Y-62577427D01*
X105302728Y-62577424D01*
X105158492Y-62488457D01*
X105158481Y-62488452D01*
X104997606Y-62435144D01*
X104898322Y-62425000D01*
X104875000Y-62425000D01*
X104875000Y-63150000D01*
X104375000Y-63150000D01*
X104375000Y-62424999D01*
X104351693Y-62425000D01*
X104351674Y-62425001D01*
X104252392Y-62435144D01*
X104091518Y-62488452D01*
X104091507Y-62488457D01*
X103947271Y-62577424D01*
X103947265Y-62577428D01*
X103938031Y-62586663D01*
X103876707Y-62620146D01*
X103807015Y-62615159D01*
X103762672Y-62586660D01*
X103753044Y-62577032D01*
X103753040Y-62577029D01*
X103608700Y-62487998D01*
X103608697Y-62487997D01*
X103585496Y-62480309D01*
X103528051Y-62440536D01*
X103501228Y-62376020D01*
X103500500Y-62362603D01*
X103500500Y-61339617D01*
X103520185Y-61272578D01*
X103554592Y-61238902D01*
X103553874Y-61237914D01*
X103557811Y-61235053D01*
X103557816Y-61235051D01*
X103729792Y-61110104D01*
X103880104Y-60959792D01*
X103880106Y-60959788D01*
X103880109Y-60959786D01*
X103947515Y-60867007D01*
X104005051Y-60787816D01*
X104009793Y-60778508D01*
X104057763Y-60727711D01*
X104125583Y-60710911D01*
X104191719Y-60733445D01*
X104230763Y-60778500D01*
X104235377Y-60787555D01*
X104360272Y-60959459D01*
X104360276Y-60959464D01*
X104510535Y-61109723D01*
X104510540Y-61109727D01*
X104682442Y-61234620D01*
X104871782Y-61331095D01*
X105073871Y-61396757D01*
X105140000Y-61407231D01*
X105140000Y-60513012D01*
X105197007Y-60545925D01*
X105324174Y-60580000D01*
X105455826Y-60580000D01*
X105582993Y-60545925D01*
X105640000Y-60513012D01*
X105640000Y-61407230D01*
G37*
G04 #@! TD.AperFunction*
G04 #@! TA.AperFunction,Conductor*
G36*
X82780000Y-61407230D02*
G01*
X82846126Y-61396757D01*
X82846129Y-61396757D01*
X83048217Y-61331095D01*
X83089205Y-61310211D01*
X83157874Y-61297315D01*
X83222614Y-61323591D01*
X83262872Y-61380697D01*
X83269500Y-61420696D01*
X83269500Y-64084477D01*
X83249815Y-64151516D01*
X83197011Y-64197271D01*
X83127853Y-64207215D01*
X83064297Y-64178190D01*
X83057819Y-64172158D01*
X83018345Y-64132684D01*
X82882162Y-64048686D01*
X82835438Y-63996738D01*
X82824215Y-63927775D01*
X82829553Y-63904143D01*
X82864855Y-63797606D01*
X82874999Y-63698322D01*
X82875000Y-63698309D01*
X82875000Y-63650000D01*
X82049000Y-63650000D01*
X81981961Y-63630315D01*
X81936206Y-63577511D01*
X81925000Y-63526000D01*
X81925000Y-63400000D01*
X81799000Y-63400000D01*
X81731961Y-63380315D01*
X81686206Y-63327511D01*
X81675000Y-63276000D01*
X81675000Y-63150000D01*
X82175000Y-63150000D01*
X82874999Y-63150000D01*
X82874999Y-63101692D01*
X82874998Y-63101677D01*
X82864855Y-63002392D01*
X82811547Y-62841518D01*
X82811542Y-62841507D01*
X82722575Y-62697271D01*
X82722572Y-62697267D01*
X82602732Y-62577427D01*
X82602728Y-62577424D01*
X82458492Y-62488457D01*
X82458481Y-62488452D01*
X82297606Y-62435144D01*
X82198322Y-62425000D01*
X82175000Y-62425000D01*
X82175000Y-63150000D01*
X81675000Y-63150000D01*
X81675000Y-62424999D01*
X81651693Y-62425000D01*
X81651674Y-62425001D01*
X81552392Y-62435144D01*
X81391518Y-62488452D01*
X81391507Y-62488457D01*
X81247271Y-62577424D01*
X81247265Y-62577428D01*
X81238031Y-62586663D01*
X81176707Y-62620146D01*
X81107015Y-62615159D01*
X81062672Y-62586660D01*
X81053044Y-62577032D01*
X81053040Y-62577029D01*
X80908705Y-62488001D01*
X80908699Y-62487998D01*
X80908697Y-62487997D01*
X80775495Y-62443858D01*
X80718051Y-62404086D01*
X80691228Y-62339571D01*
X80690500Y-62326153D01*
X80690500Y-61303547D01*
X80710185Y-61236508D01*
X80741614Y-61203230D01*
X80869792Y-61110104D01*
X81020104Y-60959792D01*
X81020106Y-60959788D01*
X81020109Y-60959786D01*
X81087515Y-60867007D01*
X81145051Y-60787816D01*
X81149793Y-60778508D01*
X81197763Y-60727711D01*
X81265583Y-60710911D01*
X81331719Y-60733445D01*
X81370763Y-60778500D01*
X81375377Y-60787555D01*
X81500272Y-60959459D01*
X81500276Y-60959464D01*
X81650535Y-61109723D01*
X81650540Y-61109727D01*
X81822442Y-61234620D01*
X82011782Y-61331095D01*
X82213871Y-61396757D01*
X82280000Y-61407231D01*
X82280000Y-60513012D01*
X82337007Y-60545925D01*
X82464174Y-60580000D01*
X82595826Y-60580000D01*
X82722993Y-60545925D01*
X82780000Y-60513012D01*
X82780000Y-61407230D01*
G37*
G04 #@! TD.AperFunction*
G04 #@! TA.AperFunction,Conductor*
G36*
X128500000Y-61407230D02*
G01*
X128566126Y-61396757D01*
X128566129Y-61396757D01*
X128768219Y-61331094D01*
X128859204Y-61284735D01*
X128927873Y-61271838D01*
X128992614Y-61298114D01*
X129032871Y-61355220D01*
X129039500Y-61395219D01*
X129039500Y-62911899D01*
X129019815Y-62978938D01*
X128967011Y-63024693D01*
X128897853Y-63034637D01*
X128834297Y-63005612D01*
X128797794Y-62950903D01*
X128761547Y-62841518D01*
X128761542Y-62841507D01*
X128672575Y-62697271D01*
X128672572Y-62697267D01*
X128552732Y-62577427D01*
X128552728Y-62577424D01*
X128408492Y-62488457D01*
X128408481Y-62488452D01*
X128247606Y-62435144D01*
X128148322Y-62425000D01*
X128125000Y-62425000D01*
X128125000Y-63276000D01*
X128105315Y-63343039D01*
X128052511Y-63388794D01*
X128001000Y-63400000D01*
X127749000Y-63400000D01*
X127681961Y-63380315D01*
X127636206Y-63327511D01*
X127625000Y-63276000D01*
X127625000Y-62424999D01*
X127601693Y-62425000D01*
X127601674Y-62425001D01*
X127502392Y-62435144D01*
X127341518Y-62488452D01*
X127341507Y-62488457D01*
X127197271Y-62577424D01*
X127197265Y-62577428D01*
X127188031Y-62586663D01*
X127126707Y-62620146D01*
X127057015Y-62615159D01*
X127012672Y-62586660D01*
X127003044Y-62577032D01*
X127003040Y-62577029D01*
X126858705Y-62488001D01*
X126858699Y-62487998D01*
X126858697Y-62487997D01*
X126835496Y-62480309D01*
X126697709Y-62434651D01*
X126598352Y-62424500D01*
X126598345Y-62424500D01*
X126534500Y-62424500D01*
X126467461Y-62404815D01*
X126421706Y-62352011D01*
X126410500Y-62300500D01*
X126410500Y-61303547D01*
X126430185Y-61236508D01*
X126461614Y-61203230D01*
X126589792Y-61110104D01*
X126740104Y-60959792D01*
X126740106Y-60959788D01*
X126740109Y-60959786D01*
X126807515Y-60867007D01*
X126865051Y-60787816D01*
X126869793Y-60778508D01*
X126917763Y-60727711D01*
X126985583Y-60710911D01*
X127051719Y-60733445D01*
X127090763Y-60778500D01*
X127095377Y-60787555D01*
X127220272Y-60959459D01*
X127220276Y-60959464D01*
X127370535Y-61109723D01*
X127370540Y-61109727D01*
X127542442Y-61234620D01*
X127731782Y-61331095D01*
X127933871Y-61396757D01*
X128000000Y-61407231D01*
X128000000Y-60513012D01*
X128057007Y-60545925D01*
X128184174Y-60580000D01*
X128315826Y-60580000D01*
X128442993Y-60545925D01*
X128500000Y-60513012D01*
X128500000Y-61407230D01*
G37*
G04 #@! TD.AperFunction*
G04 #@! TA.AperFunction,Conductor*
G36*
X82780000Y-59646988D02*
G01*
X82722993Y-59614075D01*
X82595826Y-59580000D01*
X82464174Y-59580000D01*
X82337007Y-59614075D01*
X82280000Y-59646988D01*
X82280000Y-57973012D01*
X82337007Y-58005925D01*
X82464174Y-58040000D01*
X82595826Y-58040000D01*
X82722993Y-58005925D01*
X82780000Y-57973012D01*
X82780000Y-59646988D01*
G37*
G04 #@! TD.AperFunction*
G04 #@! TA.AperFunction,Conductor*
G36*
X105640000Y-59646988D02*
G01*
X105582993Y-59614075D01*
X105455826Y-59580000D01*
X105324174Y-59580000D01*
X105197007Y-59614075D01*
X105140000Y-59646988D01*
X105140000Y-57973012D01*
X105197007Y-58005925D01*
X105324174Y-58040000D01*
X105455826Y-58040000D01*
X105582993Y-58005925D01*
X105640000Y-57973012D01*
X105640000Y-59646988D01*
G37*
G04 #@! TD.AperFunction*
G04 #@! TA.AperFunction,Conductor*
G36*
X128500000Y-59646988D02*
G01*
X128442993Y-59614075D01*
X128315826Y-59580000D01*
X128184174Y-59580000D01*
X128057007Y-59614075D01*
X128000000Y-59646988D01*
X128000000Y-57973012D01*
X128057007Y-58005925D01*
X128184174Y-58040000D01*
X128315826Y-58040000D01*
X128442993Y-58005925D01*
X128500000Y-57973012D01*
X128500000Y-59646988D01*
G37*
G04 #@! TD.AperFunction*
G04 #@! TA.AperFunction,Conductor*
G36*
X113270000Y-49927231D02*
G01*
X113336125Y-49916758D01*
X113512181Y-49859553D01*
X113582022Y-49857558D01*
X113641855Y-49893638D01*
X113672684Y-49956338D01*
X113674500Y-49977484D01*
X113674500Y-51689547D01*
X113654815Y-51756586D01*
X113638181Y-51777228D01*
X112637181Y-52778228D01*
X112575858Y-52811713D01*
X112506166Y-52806729D01*
X112450233Y-52764857D01*
X112425816Y-52699393D01*
X112425500Y-52690547D01*
X112425500Y-49996980D01*
X112445185Y-49929941D01*
X112497989Y-49884186D01*
X112567147Y-49874242D01*
X112587818Y-49879049D01*
X112703872Y-49916757D01*
X112770000Y-49927231D01*
X112770000Y-49033012D01*
X112827007Y-49065925D01*
X112954174Y-49100000D01*
X113085826Y-49100000D01*
X113212993Y-49065925D01*
X113270000Y-49033012D01*
X113270000Y-49927231D01*
G37*
G04 #@! TD.AperFunction*
G04 #@! TA.AperFunction,Conductor*
G36*
X100570000Y-49927230D02*
G01*
X100636126Y-49916757D01*
X100636129Y-49916757D01*
X100838217Y-49851095D01*
X101027557Y-49754620D01*
X101199459Y-49629727D01*
X101199464Y-49629723D01*
X101349723Y-49479464D01*
X101349727Y-49479459D01*
X101474620Y-49307558D01*
X101479232Y-49298507D01*
X101527205Y-49247709D01*
X101595025Y-49230912D01*
X101661161Y-49253447D01*
X101700204Y-49298504D01*
X101704948Y-49307815D01*
X101713093Y-49319025D01*
X101736575Y-49384830D01*
X101720751Y-49452885D01*
X101700458Y-49479594D01*
X99837181Y-51342872D01*
X99775858Y-51376357D01*
X99706166Y-51371373D01*
X99650233Y-51329501D01*
X99625816Y-51264037D01*
X99625500Y-51255191D01*
X99625500Y-49963624D01*
X99645185Y-49896585D01*
X99697989Y-49850830D01*
X99767147Y-49840886D01*
X99796815Y-49850327D01*
X99797271Y-49849227D01*
X99801772Y-49851091D01*
X100003872Y-49916757D01*
X100070000Y-49927231D01*
X100070000Y-49033012D01*
X100127007Y-49065925D01*
X100254174Y-49100000D01*
X100385826Y-49100000D01*
X100512993Y-49065925D01*
X100570000Y-49033012D01*
X100570000Y-49927230D01*
G37*
G04 #@! TD.AperFunction*
G04 #@! TA.AperFunction,Conductor*
G36*
X95490000Y-49927230D02*
G01*
X95556126Y-49916757D01*
X95556129Y-49916757D01*
X95712182Y-49866053D01*
X95782023Y-49864058D01*
X95841856Y-49900138D01*
X95872684Y-49962839D01*
X95874500Y-49983984D01*
X95874500Y-50089548D01*
X95854815Y-50156587D01*
X95838181Y-50177229D01*
X94737181Y-51278229D01*
X94675858Y-51311714D01*
X94606166Y-51306730D01*
X94550233Y-51264858D01*
X94525816Y-51199394D01*
X94525500Y-51190548D01*
X94525500Y-49953434D01*
X94545185Y-49886395D01*
X94597989Y-49840640D01*
X94667147Y-49830696D01*
X94705796Y-49842950D01*
X94721780Y-49851094D01*
X94923871Y-49916757D01*
X94990000Y-49927231D01*
X94990000Y-49033012D01*
X95047007Y-49065925D01*
X95174174Y-49100000D01*
X95305826Y-49100000D01*
X95432993Y-49065925D01*
X95490000Y-49033012D01*
X95490000Y-49927230D01*
G37*
G04 #@! TD.AperFunction*
G04 #@! TA.AperFunction,Conductor*
G36*
X131050000Y-49927230D02*
G01*
X131116125Y-49916757D01*
X131312181Y-49853055D01*
X131382023Y-49851060D01*
X131441856Y-49887140D01*
X131472684Y-49949841D01*
X131474500Y-49970986D01*
X131474500Y-50461610D01*
X131498536Y-50582448D01*
X131499181Y-50584575D01*
X131499191Y-50585743D01*
X131499725Y-50588426D01*
X131499216Y-50588527D01*
X131499802Y-50654442D01*
X131462552Y-50713553D01*
X131399256Y-50743142D01*
X131330012Y-50733814D01*
X131292838Y-50708247D01*
X130586319Y-50001728D01*
X130552834Y-49940405D01*
X130550000Y-49914047D01*
X130550000Y-49033012D01*
X130607007Y-49065925D01*
X130734174Y-49100000D01*
X130865826Y-49100000D01*
X130992993Y-49065925D01*
X131050000Y-49033012D01*
X131050000Y-49927230D01*
G37*
G04 #@! TD.AperFunction*
G04 #@! TD*
M02*
