M48
; DRILL file KiCad 10.0.6-10.0.6~ubuntu24.04.1 date 2026-09-15T11:46:10
; FORMAT={-:-/ absolute / metric / decimal}
; #@! TF.CreationDate,2026-09-15T11:46:10-04:00
; #@! TF.GenerationSoftware,Kicad,Pcbnew,10.0.6-10.0.6~ubuntu24.04.1
; #@! TF.FileFunction,Plated,1,2,PTH
FMAT,2
METRIC
; #@! TA.AperFunction,Plated,PTH,ViaDrill
T1C0.300
; #@! TA.AperFunction,Plated,PTH,ViaDrill
T2C0.400
; #@! TA.AperFunction,Plated,PTH,ComponentDrill
T3C0.400
; #@! TA.AperFunction,Plated,PTH,ComponentDrill
T4C1.000
%
G90
G05
T1
X72.4Y-49.1
X82.8Y-44.8
X82.8Y-51.7
X99.9Y-55.5
X105.5Y-55.3
T2
X72.5Y-70.0
X74.9Y-70.24
X81.1Y-45.2
X81.9Y-44.4
X101.7Y-72.2
X102.85Y-72.1
X105.9Y-65.0
X115.7Y-43.8
X116.7Y-43.8
X124.7Y-72.1
X125.7Y-72.0
X128.9Y-63.6
T3
X69.8Y-47.3
X69.8Y-69.6
X70.3Y-42.9
X71.5Y-72.0
X72.9Y-55.6
X72.9Y-59.7
X73.5Y-49.8
X75.38Y-42.9
X78.4Y-72.0
X79.5Y-46.6
X79.5Y-54.3
X80.46Y-42.9
X81.5Y-66.2
X81.7Y-62.0
X82.6Y-55.3
X83.9Y-71.4
X84.8Y-46.6
X84.8Y-49.9
X85.54Y-42.9
X88.98Y-71.4
X90.62Y-42.9
X94.06Y-71.4
X94.7Y-50.9
X95.7Y-42.9
X96.5Y-62.4
X96.5Y-68.2
X97.3Y-58.0
X99.6Y-71.4
X99.9Y-54.0
X100.0Y-50.8
X100.3Y-58.0
X100.3Y-62.4
X100.3Y-68.3
X100.78Y-42.9
X103.7Y-51.0
X104.22Y-71.4
X105.86Y-42.9
X109.3Y-71.4
X110.94Y-42.9
X112.9Y-51.8
X114.38Y-71.4
X119.46Y-71.4
X120.7Y-51.0
X120.7Y-56.08
X120.7Y-61.16
X120.7Y-66.24
X121.1Y-42.9
X123.8Y-71.4
X126.18Y-42.9
X129.62Y-71.6
X131.26Y-42.9
X134.7Y-71.6
X136.34Y-42.9
X139.78Y-71.6
X139.8Y-45.2
X139.8Y-50.28
X139.8Y-55.36
T4
X70.875Y-52.02
X70.875Y-54.56
X70.875Y-57.1
X70.875Y-59.64
X79.99Y-57.54
X79.99Y-60.08
X80.04Y-67.7
X80.04Y-70.24
X81.4Y-50.6
X81.4Y-53.14
X82.53Y-57.54
X82.53Y-60.08
X82.58Y-67.7
X82.58Y-70.24
X85.07Y-57.54
X85.07Y-60.08
X85.12Y-67.7
X85.12Y-70.24
X87.61Y-57.54
X87.61Y-60.08
X87.62Y-46.06
X87.62Y-48.6
X87.66Y-67.7
X87.66Y-70.24
X90.15Y-57.54
X90.15Y-60.08
X90.16Y-46.06
X90.16Y-48.6
X90.2Y-67.7
X90.2Y-70.24
X92.69Y-57.54
X92.69Y-60.08
X92.7Y-46.06
X92.7Y-48.6
X92.74Y-67.7
X92.74Y-70.24
X95.23Y-60.08
X95.24Y-46.06
X95.24Y-48.6
X95.28Y-70.24
X97.77Y-60.08
X97.78Y-46.06
X97.78Y-48.6
X97.82Y-70.24
X100.32Y-46.06
X100.32Y-48.6
X102.85Y-57.54
X102.85Y-60.08
X102.86Y-46.06
X102.86Y-48.6
X102.9Y-67.7
X102.9Y-70.24
X105.39Y-57.54
X105.39Y-60.08
X105.4Y-46.06
X105.4Y-48.6
X105.44Y-67.7
X105.44Y-70.24
X107.93Y-57.54
X107.93Y-60.08
X107.94Y-46.06
X107.94Y-48.6
X107.98Y-67.7
X107.98Y-70.24
X110.47Y-57.54
X110.47Y-60.08
X110.48Y-46.06
X110.48Y-48.6
X110.52Y-67.7
X110.52Y-70.24
X113.01Y-57.54
X113.01Y-60.08
X113.02Y-46.06
X113.02Y-48.6
X113.06Y-67.7
X113.06Y-70.24
X115.55Y-57.54
X115.55Y-60.08
X115.56Y-46.06
X115.56Y-48.6
X115.6Y-67.7
X115.6Y-70.24
X118.1Y-46.06
X118.1Y-48.6
X120.64Y-46.06
X120.64Y-48.6
X123.18Y-46.06
X123.18Y-48.6
X125.71Y-57.54
X125.71Y-60.08
X125.72Y-46.06
X125.72Y-48.6
X125.76Y-67.7
X125.76Y-70.24
X128.25Y-57.54
X128.25Y-60.08
X128.26Y-46.06
X128.26Y-48.6
X128.3Y-67.7
X128.3Y-70.24
X130.79Y-57.54
X130.79Y-60.08
X130.8Y-46.06
X130.8Y-48.6
X130.84Y-67.7
X130.84Y-70.24
X133.33Y-57.54
X133.33Y-60.08
X133.34Y-46.06
X133.34Y-48.6
X133.38Y-67.7
X133.38Y-70.24
X135.87Y-57.54
X135.87Y-60.08
X135.88Y-46.06
X135.88Y-48.6
X135.92Y-67.7
X135.92Y-70.24
X138.41Y-57.54
X138.41Y-60.08
X138.46Y-67.7
X138.46Y-70.24
M30
