G04 #@! TF.GenerationSoftware,KiCad,Pcbnew,10.0.6-10.0.6~ubuntu24.04.1*
G04 #@! TF.CreationDate,2026-09-15T11:46:04-04:00*
G04 #@! TF.ProjectId,TTDB_2_Raspi,54544442-5f32-45f5-9261-7370692e6b69,1.0*
G04 #@! TF.SameCoordinates,Original*
G04 #@! TF.FileFunction,Soldermask,Top*
G04 #@! TF.FilePolarity,Negative*
%FSLAX46Y46*%
G04 Gerber Fmt 4.6, Leading zero omitted, Abs format (unit mm)*
G04 Created by KiCad (PCBNEW 10.0.6-10.0.6~ubuntu24.04.1) date 2026-09-15 11:46:04*
%MOMM*%
%LPD*%
G01*
G04 APERTURE LIST*
G04 Aperture macros list*
%AMRoundRect*
0 Rectangle with rounded corners*
0 $1 Rounding radius*
0 $2 $3 $4 $5 $6 $7 $8 $9 X,Y pos of 4 corners*
0 Add a 4 corners polygon primitive as box body*
4,1,4,$2,$3,$4,$5,$6,$7,$8,$9,$2,$3,0*
0 Add four circle primitives for the rounded corners*
1,1,$1+$1,$2,$3*
1,1,$1+$1,$4,$5*
1,1,$1+$1,$6,$7*
1,1,$1+$1,$8,$9*
0 Add four rect primitives between the rounded corners*
20,1,$1+$1,$2,$3,$4,$5,0*
20,1,$1+$1,$4,$5,$6,$7,0*
20,1,$1+$1,$6,$7,$8,$9,0*
20,1,$1+$1,$8,$9,$2,$3,0*%
G04 Aperture macros list end*
%ADD10C,2.000000*%
%ADD11RoundRect,0.250000X-0.250000X-0.475000X0.250000X-0.475000X0.250000X0.475000X-0.250000X0.475000X0*%
%ADD12R,1.700000X1.700000*%
%ADD13O,1.700000X1.700000*%
%ADD14C,1.700000*%
%ADD15RoundRect,0.200000X0.275000X-0.200000X0.275000X0.200000X-0.275000X0.200000X-0.275000X-0.200000X0*%
%ADD16RoundRect,0.225000X-0.225000X-0.250000X0.225000X-0.250000X0.225000X0.250000X-0.225000X0.250000X0*%
%ADD17RoundRect,0.102000X-0.700000X0.750000X-0.700000X-0.750000X0.700000X-0.750000X0.700000X0.750000X0*%
%ADD18RoundRect,0.225000X0.250000X-0.225000X0.250000X0.225000X-0.250000X0.225000X-0.250000X-0.225000X0*%
G04 APERTURE END LIST*
D10*
G04 #@! TO.C,FID3*
X73900000Y-62600000D03*
G04 #@! TD*
D11*
G04 #@! TO.C,C4*
X103150000Y-65200000D03*
X105050000Y-65200000D03*
G04 #@! TD*
D12*
G04 #@! TO.C,J7*
X138410000Y-57540000D03*
D13*
X135870000Y-57540000D03*
X133330000Y-57540000D03*
X130790000Y-57540000D03*
X128250000Y-57540000D03*
D14*
X125710000Y-57540000D03*
D13*
X138410000Y-60080000D03*
X135870000Y-60080000D03*
X133330000Y-60080000D03*
X130790000Y-60080000D03*
X128250000Y-60080000D03*
X125710000Y-60080000D03*
G04 #@! TD*
D12*
G04 #@! TO.C,J10*
X70875000Y-59640000D03*
D13*
X70875000Y-57100000D03*
X70875000Y-54560000D03*
X70875000Y-52020000D03*
G04 #@! TD*
D12*
G04 #@! TO.C,J3*
X115600000Y-67700000D03*
D13*
X113060000Y-67700000D03*
X110520000Y-67700000D03*
X107980000Y-67700000D03*
X105440000Y-67700000D03*
D14*
X102900000Y-67700000D03*
D13*
X115600000Y-70240000D03*
X113060000Y-70240000D03*
X110520000Y-70240000D03*
X107980000Y-70240000D03*
X105440000Y-70240000D03*
X102900000Y-70240000D03*
G04 #@! TD*
D10*
G04 #@! TO.C,FID2*
X139400000Y-48600000D03*
G04 #@! TD*
D15*
G04 #@! TO.C,R1*
X71400000Y-66425000D03*
X71400000Y-64775000D03*
G04 #@! TD*
D12*
G04 #@! TO.C,J1*
X135880000Y-46060000D03*
D13*
X135880000Y-48600000D03*
X133340000Y-46060000D03*
X133340000Y-48600000D03*
X130800000Y-46060000D03*
X130800000Y-48600000D03*
X128260000Y-46060000D03*
X128260000Y-48600000D03*
X125720000Y-46060000D03*
X125720000Y-48600000D03*
X123180000Y-46060000D03*
X123180000Y-48600000D03*
X120640000Y-46060000D03*
X120640000Y-48600000D03*
X118100000Y-46060000D03*
X118100000Y-48600000D03*
X115560000Y-46060000D03*
X115560000Y-48600000D03*
X113020000Y-46060000D03*
X113020000Y-48600000D03*
X110480000Y-46060000D03*
X110480000Y-48600000D03*
X107940000Y-46060000D03*
X107940000Y-48600000D03*
X105400000Y-46060000D03*
X105400000Y-48600000D03*
X102860000Y-46060000D03*
X102860000Y-48600000D03*
X100320000Y-46060000D03*
X100320000Y-48600000D03*
X97780000Y-46060000D03*
X97780000Y-48600000D03*
X95240000Y-46060000D03*
X95240000Y-48600000D03*
X92700000Y-46060000D03*
X92700000Y-48600000D03*
X90160000Y-46060000D03*
X90160000Y-48600000D03*
X87620000Y-46060000D03*
X87620000Y-48600000D03*
G04 #@! TD*
D12*
G04 #@! TO.C,J5*
X92690000Y-57540000D03*
D13*
X90150000Y-57540000D03*
X87610000Y-57540000D03*
X85070000Y-57540000D03*
X82530000Y-57540000D03*
D14*
X79990000Y-57540000D03*
D13*
X92690000Y-60080000D03*
X90150000Y-60080000D03*
X87610000Y-60080000D03*
X85070000Y-60080000D03*
X82530000Y-60080000D03*
X79990000Y-60080000D03*
G04 #@! TD*
D16*
G04 #@! TO.C,C3*
X80375000Y-63400000D03*
X81925000Y-63400000D03*
G04 #@! TD*
D12*
G04 #@! TO.C,J6*
X115550000Y-57540000D03*
D13*
X113010000Y-57540000D03*
X110470000Y-57540000D03*
X107930000Y-57540000D03*
X105390000Y-57540000D03*
D14*
X102850000Y-57540000D03*
D13*
X115550000Y-60080000D03*
X113010000Y-60080000D03*
X110470000Y-60080000D03*
X107930000Y-60080000D03*
X105390000Y-60080000D03*
X102850000Y-60080000D03*
G04 #@! TD*
D12*
G04 #@! TO.C,J11*
X81400000Y-53140000D03*
D13*
X81400000Y-50600000D03*
G04 #@! TD*
D11*
G04 #@! TO.C,C2*
X80400000Y-65200000D03*
X82300000Y-65200000D03*
G04 #@! TD*
D17*
G04 #@! TO.C,SW1*
X74900000Y-65350000D03*
X74900000Y-71850000D03*
G04 #@! TD*
D16*
G04 #@! TO.C,C5*
X103075000Y-63400000D03*
X104625000Y-63400000D03*
G04 #@! TD*
D11*
G04 #@! TO.C,C6*
X126350000Y-65200000D03*
X128250000Y-65200000D03*
G04 #@! TD*
D16*
G04 #@! TO.C,C7*
X126325000Y-63400000D03*
X127875000Y-63400000D03*
G04 #@! TD*
D12*
G04 #@! TO.C,J8*
X97770000Y-60080000D03*
D13*
X95230000Y-60080000D03*
G04 #@! TD*
D15*
G04 #@! TO.C,R2*
X69900000Y-66425000D03*
X69900000Y-64775000D03*
G04 #@! TD*
D10*
G04 #@! TO.C,FID1*
X121400000Y-70600000D03*
G04 #@! TD*
D12*
G04 #@! TO.C,J4*
X138460000Y-67700000D03*
D13*
X135920000Y-67700000D03*
X133380000Y-67700000D03*
X130840000Y-67700000D03*
X128300000Y-67700000D03*
D14*
X125760000Y-67700000D03*
D13*
X138460000Y-70240000D03*
X135920000Y-70240000D03*
X133380000Y-70240000D03*
X130840000Y-70240000D03*
X128300000Y-70240000D03*
X125760000Y-70240000D03*
G04 #@! TD*
D18*
G04 #@! TO.C,C1*
X71400000Y-69375000D03*
X71400000Y-67825000D03*
G04 #@! TD*
D12*
G04 #@! TO.C,J2*
X92740000Y-67700000D03*
D13*
X90200000Y-67700000D03*
X87660000Y-67700000D03*
X85120000Y-67700000D03*
X82580000Y-67700000D03*
D14*
X80040000Y-67700000D03*
D13*
X92740000Y-70240000D03*
X90200000Y-70240000D03*
X87660000Y-70240000D03*
X85120000Y-70240000D03*
X82580000Y-70240000D03*
X80040000Y-70240000D03*
G04 #@! TD*
D12*
G04 #@! TO.C,J9*
X97820000Y-70240000D03*
D13*
X95280000Y-70240000D03*
G04 #@! TD*
M02*
